<svg xmlns="http://www.w3.org/2000/svg" viewBox="0 0 783 1182.18"><defs><style>.a{fill:#666;}.b{fill:#78909c;}.c{fill:#90a4ae;}.d{fill:#37474f;}.e{fill:#b0bec5;}.f{fill:#76d275;}.g{fill:#43a047;}</style></defs><title>Asset 1</title><polygon class="a" points="391.5 856.39 36.87 360 0 360 391.5 908 783 360 746.13 360 391.5 856.39"/><polygon class="a" points="391.5 835.89 173.78 360 140.79 360 391.5 908 642.21 360 609.22 360 391.5 835.89"/><polygon class="a" points="391.5 729.08 328.73 360 298.3 360 391.5 908 484.7 360 454.27 360 391.5 729.08"/><rect class="b" x="220.5" y="840.18" width="342" height="342" rx="36.96"/><rect class="c" x="252" y="871.68" width="279" height="279" rx="16.64"/><path class="d" d="M391.5,912.18a99,99,0,1,0,99,99,99,99,0,0,0-99-99m0,168.3a69.3,69.3,0,1,1,69.3-69.3,69.3,69.3,0,0,1-69.3,69.3"/><path class="e" d="M454.31,962.44l4-4a9.95,9.95,0,0,0-14.07-14.06l-4,4a79.68,79.68,0,0,1,14.07,14.06m-125.62,0a80.36,80.36,0,0,1,14.07-14.06l-4-4a9.95,9.95,0,0,0-14.07,14.06Zm-16.77,48.74a79.51,79.51,0,0,1,.68-9.94H307a9.95,9.95,0,1,0,0,19.89h5.65a79.54,79.54,0,0,1-.68-10m79.58-79.57a79.8,79.8,0,0,1,9.95.68v-5.66a10,10,0,0,0-19.9,0v5.66a79.8,79.8,0,0,1,9.95-.68m62.81,128.32A80.36,80.36,0,0,1,440.24,1074l4,4a9.95,9.95,0,0,0,14.07-14.06Zm-125.62,0-4,4A9.95,9.95,0,1,0,338.76,1078l4-4a79.68,79.68,0,0,1-14.07-14.06m147.36-58.69H470.4a73.06,73.06,0,0,1,0,19.89h5.65a9.95,9.95,0,1,0,0-19.89m-84.55,89.52a79.8,79.8,0,0,1-9.95-.68v5.66a10,10,0,0,0,19.9,0v-5.66a79.8,79.8,0,0,1-9.95.68"/><path class="f" d="M783,360C768,158.67,598.46,0,391.5,0S15,158.67,0,360Z"/><path class="g" d="M627.1,360C614.41,36.74,391.5,0,391.5,0c64,63.29,76,280.81,78.21,360Z"/><path class="g" d="M313.29,360c2.24-79.19,14.22-296.71,78.21-360,0,0-222.91,36.74-235.6,360Z"/></svg>