<svg xmlns="http://www.w3.org/2000/svg" viewBox="0 0 780.05 1191.04"><defs><style>.a{fill:#666;}.b{fill:#78909c;}.c{fill:#90a4ae;}.d{fill:#37474f;}.e{fill:#b0bec5;}.f{fill:#76d275;}.g{fill:#43a047;}</style></defs><title>Asset 1</title><polygon class="a" points="433.31 854.66 36.76 391.07 0.03 394.28 437.8 906.08 780.05 326.04 743.32 329.25 433.31 854.66"/><polygon class="a" points="431.52 834.24 173.15 379.14 140.29 382.01 437.8 906.08 639.8 338.31 606.93 341.19 431.52 834.24"/><polygon class="a" points="422.21 727.84 327.51 365.63 297.19 368.29 437.8 906.08 482.89 352.04 452.58 354.69 422.21 727.84"/><rect class="b" x="275.8" y="837.87" width="342" height="342" rx="36.96" transform="translate(-86.23 42.78) rotate(-5)"/><rect class="c" x="307.3" y="869.37" width="279" height="279" rx="16.64" transform="translate(-86.23 42.78) rotate(-5)"/><path class="d" d="M438.17,910.24a99,99,0,1,0,107.25,90,99,99,0,0,0-107.25-90m14.67,167.66a69.3,69.3,0,1,1,63-75.07,69.3,69.3,0,0,1-63,75.07"/><path class="e" d="M505.12,954.84l3.63-4.33a9.95,9.95,0,1,0-15.24-12.79l-3.63,4.33a79.1,79.1,0,0,1,15.24,12.79M380,965.79a79.71,79.71,0,0,1,12.79-15.24l-4.34-3.64a9.94,9.94,0,1,0-12.78,15.24Zm-12.46,50a81.07,81.07,0,0,1-.19-10l-5.63.49a9.95,9.95,0,0,0,1.73,19.82l5.63-.5a79.27,79.27,0,0,1-1.54-9.85m72.34-86.21a81.18,81.18,0,0,1,10-.18l-.49-5.64a9.95,9.95,0,0,0-19.82,1.73l.49,5.64a81.5,81.5,0,0,1,9.85-1.55M513.61,1052a80,80,0,0,1-12.78,15.24l4.33,3.63A9.94,9.94,0,0,0,518,1055.59Zm-125.13,11-3.64,4.33A9.95,9.95,0,0,0,400.08,1080l3.63-4.33a80.07,80.07,0,0,1-15.23-12.79m141.68-71.31-5.63.49a73.9,73.9,0,0,1,1.74,19.82l5.62-.49a9.95,9.95,0,1,0-1.73-19.82m-76.43,96.55a79.26,79.26,0,0,1-10,.19l.5,5.64a9.95,9.95,0,0,0,19.82-1.74l-.5-5.64a79.28,79.28,0,0,1-9.85,1.55"/><path class="f" d="M780.05,326C747.54,126.79,564.84-16.51,358.67,1.53S-2.54,192.41,0,394.28Z"/><path class="g" d="M624.74,339.63C583.93,18.71,358.67,1.53,358.67,1.53,427.93,59,458.82,274.65,468,353.35Z"/><path class="g" d="M312.13,367c-4.67-79.08-11.7-296.82,46.54-365.45,0,0-218.87,56-203.33,379.17Z"/></svg>