<svg xmlns="http://www.w3.org/2000/svg" xmlns:xlink="http://www.w3.org/1999/xlink" viewBox="0 0 2530.72 100.38"><defs><symbol id="a" viewBox="0 0 0.51 0.71"><path d="M0,.49.32,0H.41V.47h.1V.55H.41V.71H.32V.55H0V.49m.1,0H.32V.14Z"/></symbol><symbol id="b" viewBox="0 0 0.45 0.55"><path d="M.44.45A.46.46,0,0,1,.37.52a.25.25,0,0,1-.13,0A.24.24,0,0,1,.07.48.25.25,0,0,1,0,.29v0A.37.37,0,0,1,0,.12.2.2,0,0,1,.12,0,.2.2,0,0,1,.23,0,.19.19,0,0,1,.4.07a.36.36,0,0,1,0,.19v0H.09a.21.21,0,0,0,0,.12.13.13,0,0,0,.12,0,.11.11,0,0,0,.08,0L.39.4l0,0M.23.07a.15.15,0,0,0-.09,0A.33.33,0,0,0,.09.23H.36a.17.17,0,0,0,0-.1A.11.11,0,0,0,.23.07Z"/></symbol><symbol id="c" viewBox="0 0 0.42 0.54"><path d="M.22.08A.11.11,0,0,0,.14.1L.09.16V.54H0V0H.09V.08A.19.19,0,0,1,.25,0,.16.16,0,0,1,.37,0a.21.21,0,0,1,0,.15V.54H.32V.19S.32.12.3.1A.11.11,0,0,0,.22.08Z"/></symbol><symbol id="d" viewBox="0 0 0.45 0.55"><path d="M.23.47a.12.12,0,0,0,.09,0,.08.08,0,0,0,0-.07H.45A.24.24,0,0,1,.38.5.25.25,0,0,1,.23.55.21.21,0,0,1,.06.47.29.29,0,0,1,0,.28v0A.28.28,0,0,1,.06.08.21.21,0,0,1,.23,0,.18.18,0,0,1,.38.06.21.21,0,0,1,.45.19H.36a.12.12,0,0,0,0-.08.13.13,0,0,0-.09,0A.11.11,0,0,0,.15.1L.1.17a.28.28,0,0,0,0,.09v0A.22.22,0,0,0,.1.37a.22.22,0,0,0,0,.08Z"/></symbol><symbol id="e" viewBox="0 0 0.26 0.54"><path d="M.21.09A.11.11,0,0,0,.09.16V.54H0V0H.09V.07A.14.14,0,0,1,.22,0h0V.09Z"/></symbol><symbol id="f" viewBox="0 0 0.45 0.74"><path d="M.24.61C.21.69.16.74.1.74H0V.66h0s.06,0,.08,0a.15.15,0,0,0,0-.06l0-.06L0,0H.1L.23.4.35,0h.1Z"/></symbol><symbol id="g" viewBox="0 0 0.45 0.74"><path d="M.24.55A.2.2,0,0,1,.09.49V.74H0V0H.08V.07A.17.17,0,0,1,.24,0,.16.16,0,0,1,.39.07a.32.32,0,0,1,.06.2h0A.29.29,0,0,1,.39.47.16.16,0,0,1,.24.55m0-.47A.13.13,0,0,0,.09.15V.4A.13.13,0,0,0,.21.47a.13.13,0,0,0,.11,0,.33.33,0,0,0,0-.14h0a.33.33,0,0,0,0-.14A.13.13,0,0,0,.21.08Z"/></symbol><symbol id="h" viewBox="0 0 0.29 0.67"><path d="M.29.66H.22a.14.14,0,0,1-.09,0A.16.16,0,0,1,.1.53V.2H0V.13H.1V0H.19V.13h.1V.2H.19V.53a.07.07,0,0,0,0,0H.29Z"/></symbol><symbol id="i" viewBox="0 0 0.11 0.72"><path d="M0,.05A0,0,0,0,1,0,0l0,0a.05.05,0,0,1,0,0s0,0,0,0a.05.05,0,0,1,0,0H0s0,0,0,0M.1.19V.72H0V.19Z"/></symbol><symbol id="j" viewBox="0 0 0.48 0.55"><path d="M0,.27A.29.29,0,0,1,.06.08.25.25,0,0,1,.24,0,.25.25,0,0,1,.42.08.28.28,0,0,1,.48.26v0A.29.29,0,0,1,.42.47.25.25,0,0,1,.24.55.25.25,0,0,1,.06.47.29.29,0,0,1,0,.28H0m.09,0a.23.23,0,0,0,0,.14.13.13,0,0,0,.11,0,.13.13,0,0,0,.11,0,.23.23,0,0,0,0-.14h0a.23.23,0,0,0,0-.14A.11.11,0,0,0,.24.07.11.11,0,0,0,.13.13a.23.23,0,0,0,0,.14Z"/></symbol><symbol id="l" viewBox="0 0 0 0"><path d="M0,0"/></symbol><symbol id="m" viewBox="0 0 0.42 0.55"><path d="M.33.4a.08.08,0,0,0,0-.05.19.19,0,0,0-.1,0A.3.3,0,0,1,.07.25a.11.11,0,0,1,0-.1A.14.14,0,0,1,.07.05.22.22,0,0,1,.21,0,.21.21,0,0,1,.36.05.14.14,0,0,1,.42.17H.32A.08.08,0,0,0,.3.1a.12.12,0,0,0-.09,0A.11.11,0,0,0,.13.1a.08.08,0,0,0,0,0A.08.08,0,0,0,.13.2l.1,0L.37.29a.12.12,0,0,1,0,.1A.11.11,0,0,1,.36.5.2.2,0,0,1,.22.55.2.2,0,0,1,.06.49.14.14,0,0,1,0,.38H.09a.08.08,0,0,0,0,.07.15.15,0,0,0,.09,0A.11.11,0,0,0,.3.45.05.05,0,0,0,.33.4Z"/></symbol><symbol id="o" viewBox="0 0 0.45 0.76"><path d="M.36.75V.69A.18.18,0,0,1,.21.76.19.19,0,0,1,.06.68.28.28,0,0,1,0,.5v0A.29.29,0,0,1,.06.29.19.19,0,0,1,.21.21.2.2,0,0,1,.36.27V0H.45V.75H.36M.09.49a.32.32,0,0,0,0,.14A.14.14,0,0,0,.23.68.14.14,0,0,0,.36.61V.36A.14.14,0,0,0,.23.29.13.13,0,0,0,.12.35a.25.25,0,0,0,0,.13Z"/></symbol><symbol id="s" viewBox="0 0 0.42 0.54"><path d="M.33.53V.48A.21.21,0,0,1,.17.54.17.17,0,0,1,.05.49.21.21,0,0,1,0,.34V0H.09V.34a.13.13,0,0,0,0,.1l.07,0A.13.13,0,0,0,.33.38V0H.42V.53Z"/></symbol><symbol id="t" viewBox="0 0 0.45 0.76"><path d="M.45.49A.29.29,0,0,1,.39.68.16.16,0,0,1,.24.76.17.17,0,0,1,.09.69V.75H0V0H.09V.28A.18.18,0,0,1,.24.21.16.16,0,0,1,.39.29.29.29,0,0,1,.45.48h0M.22.29.14.31.09.37V.6L.14.66a.11.11,0,0,0,.08,0A.11.11,0,0,0,.32.63a.23.23,0,0,0,0-.14h0a.25.25,0,0,0,0-.13A.11.11,0,0,0,.22.29Z"/></symbol><symbol id="u" viewBox="0 0 0.09 0.75"><path d="M.09,0V.75H0V0Z"/></symbol><symbol id="y" viewBox="0 0 0.44 0.75"><path d="M.33.75.15.5.09.56V.75H0V0H.09V.45L.14.4.3.22H.41L.21.44.44.75Z"/></symbol><symbol id="af" viewBox="0 0 0.45 0.75"><path d="M.22.75l-.1,0A.18.18,0,0,1,0,.65L.07.6A.18.18,0,0,0,.22.67a.17.17,0,0,0,.1,0,.18.18,0,0,0,0-.11V.48A.18.18,0,0,1,.21.55.16.16,0,0,1,.06.47.29.29,0,0,1,0,.28H0A.32.32,0,0,1,.06.07.16.16,0,0,1,.21,0,.18.18,0,0,1,.36.07V0H.45V.53A.22.22,0,0,1,.38.69.21.21,0,0,1,.22.75M.09.28a.32.32,0,0,0,0,.14.14.14,0,0,0,.11,0A.13.13,0,0,0,.36.39V.15s0,0,0,0a.11.11,0,0,0-.08,0A.14.14,0,0,0,.12.13a.32.32,0,0,0,0,.14Z"/></symbol><symbol id="ah" viewBox="0 0 0.42 0.75"><path d="M.22.29.14.31.09.37V.75H0V0H.09V.28A.22.22,0,0,1,.25.21.17.17,0,0,1,.37.26.17.17,0,0,1,.42.4V.75H.32V.4S.32.33.3.31Z"/></symbol><symbol id="aj" viewBox="0 0 0.51 0.71"><path d="M.09.43V.71H0V0H.26A.29.29,0,0,1,.45.06.21.21,0,0,1,.51.22.21.21,0,0,1,.45.38a.36.36,0,0,1-.19,0H.09m0-.35V.36H.26a.17.17,0,0,0,.12,0,.13.13,0,0,0,0-.1.13.13,0,0,0,0-.1S.32.08.26.08Z"/></symbol><symbol id="ak" viewBox="0 0 0.48 0.71"><path d="M.48.51A.2.2,0,0,1,.42.66a.29.29,0,0,1-.17,0H0V0H.23A.26.26,0,0,1,.4.05.16.16,0,0,1,.46.19a.15.15,0,0,1,0,.09L.36.34A.15.15,0,0,1,.45.4a.2.2,0,0,1,0,.11M.09.08V.3H.24a.12.12,0,0,0,.09,0,.09.09,0,0,0,0-.08C.37.12.33.08.24.08H.09m.3.43a.17.17,0,0,0,0-.1.16.16,0,0,0-.11,0H.09V.63H.25a.15.15,0,0,0,.1,0A.1.1,0,0,0,.39.51Z"/></symbol><symbol id="al" viewBox="0 0 0.55 0.71"><path d="M.43.71.18.38.09.47V.71H0V0H.09V.35L.41,0H.52L.24.31l.3.4Z"/></symbol><symbol id="am" viewBox="0 0 0.52 0.71"><path d="M0,.71V0H.2A.32.32,0,0,1,.43.09.32.32,0,0,1,.51.33v0A.32.32,0,0,1,.43.62.32.32,0,0,1,.19.71H0M.09.08V.63h.1A.18.18,0,0,0,.36.56.26.26,0,0,0,.42.38v0A.29.29,0,0,0,.36.14.2.2,0,0,0,.2.08Z"/></symbol><symbol id="an" viewBox="0 0 0.44 0.71"><path d="M0,.71V0H.44V.08H.09V.32h.3V.4H.09V.71Z"/></symbol><symbol id="ao" viewBox="0 0 0.48 0.72"><path d="M.48.65V.72H0V.66L.25.39A.48.48,0,0,0,.33.28.13.13,0,0,0,.36.2a.12.12,0,0,0,0-.09.13.13,0,0,0-.09,0,.13.13,0,0,0-.1,0,.15.15,0,0,0,0,.11H0A.25.25,0,0,1,.06.06.24.24,0,0,1,.23,0,.25.25,0,0,1,.39.05.18.18,0,0,1,.45.19a.38.38,0,0,1,0,.13L.31.44.12.65Z"/></symbol><symbol id="ar" viewBox="0 0 0.44 0.55"><path d="M.34.54a.35.35,0,0,1,0-.06L.27.53.18.55A.17.17,0,0,1,.05.5.14.14,0,0,1,0,.39.15.15,0,0,1,.06.26a.34.34,0,0,1,.18,0H.33v0A.1.1,0,0,0,.3.1a.11.11,0,0,0-.08,0A.12.12,0,0,0,.13.1.06.06,0,0,0,.1.16H0A.14.14,0,0,1,.07.05.25.25,0,0,1,.22,0,.2.2,0,0,1,.36,0,.17.17,0,0,1,.42.18V.41a.22.22,0,0,0,0,.12H.34M.19.47a.16.16,0,0,0,.09,0l0,0V.28H.24c-.1,0-.15,0-.15.1a.07.07,0,0,0,0,.06A.08.08,0,0,0,.19.47Z"/></symbol><symbol id="bb" viewBox="0 0 0.27 0.71"><path d="M.27,0V.71H.18V.11L0,.18V.1L.26,0Z"/></symbol><symbol id="bd" viewBox="0 0 0.45 0.53"><path d="M.45,0,.26.53H.19L0,0H.09L.23.4.36,0Z"/></symbol><symbol id="bm" viewBox="0 0 0.45 0.72"><path d="M.45.48A.25.25,0,0,1,.39.65.18.18,0,0,1,.23.72.18.18,0,0,1,.1.68.39.39,0,0,1,0,.58.59.59,0,0,1,0,.45v0a.69.69,0,0,1,0-.2A.31.31,0,0,1,.13.06.33.33,0,0,1,.34,0h0V.08A.33.33,0,0,0,.2.11.24.24,0,0,0,.12.2l0,.11A.21.21,0,0,1,.25.25a.2.2,0,0,1,.11,0A.22.22,0,0,1,.43.37a.36.36,0,0,1,0,.11M.09.45A.24.24,0,0,0,.13.6a.14.14,0,0,0,.1.05A.14.14,0,0,0,.33.6a.21.21,0,0,0,0-.12.2.2,0,0,0,0-.11.12.12,0,0,0-.1,0,.16.16,0,0,0-.09,0A.18.18,0,0,0,.09.42Z"/></symbol><symbol id="ff" viewBox="0 0 0.42 0.53"><path d="M0,.07V0H.4V.06L.11.45H.42V.53H0V.46L.29.07Z"/></symbol></defs><path d="M158.35,0V51.54" style="fill:none;stroke:#fff;stroke-linejoin:round"/><path d="M158.35,51.54v48.84" style="fill:none;stroke:#000;stroke-linejoin:round"/><path d="M510.49,0V51.54" style="fill:none;stroke:#fff;stroke-linejoin:round"/><path d="M510.49,51.54v48.84" style="fill:none;stroke:#000;stroke-linejoin:round"/><path d="M668.35,0V51.54" style="fill:none;stroke:#fff;stroke-linejoin:round"/><path d="M668.35,51.54v48.84" style="fill:none;stroke:#000;stroke-linejoin:round"/><path d="M1214.77,0V51.54" style="fill:none;stroke:#fff;stroke-linejoin:round"/><path d="M1214.77,51.54v48.84" style="fill:none;stroke:#000;stroke-linejoin:round"/><path d="M1631.66,0V51.54" style="fill:none;stroke:#fff;stroke-linejoin:round"/><path d="M1631.66,51.54v48.84" style="fill:none;stroke:#000;stroke-linejoin:round"/><path d="M1983.8,0V51.54" style="fill:none;stroke:#fff;stroke-linejoin:round"/><path d="M1983.8,51.54v48.84" style="fill:none;stroke:#000;stroke-linejoin:round"/><path d="M0,51.54H2530.72" style="fill:none;stroke:#000;stroke-linejoin:round"/><path d="M.5,0V51.54" style="fill:none;stroke:#fff;stroke-linejoin:round"/><path d="M.5,51.54v48.84" style="fill:none;stroke:#000;stroke-linejoin:round"/><path d="M2530.22,0V51.54" style="fill:none;stroke:#fff;stroke-linejoin:round"/><path d="M2530.22,51.54v48.84" style="fill:none;stroke:#000;stroke-linejoin:round"/><path d="M0,.5H2530.72" style="fill:none;stroke:#fff;stroke-linejoin:round"/><path d="M0,99.88H2530.72" style="fill:none;stroke:#000;stroke-linejoin:round"/><use width="0.51" height="0.71" transform="translate(75.34 22.03) scale(16)" xlink:href="#a"/><use width="0.45" height="0.55" transform="translate(219.09 24.8) scale(16)" xlink:href="#b"/><use width="0.42" height="0.54" transform="translate(227.96 24.8) scale(16)" xlink:href="#c"/><use width="0.45" height="0.55" transform="translate(236.47 24.8) scale(16)" xlink:href="#d"/><use width="0.26" height="0.54" transform="translate(245.22 24.8) scale(16)" xlink:href="#e"/><use width="0.45" height="0.74" transform="translate(249.67 24.95) scale(16)" xlink:href="#f"/><use width="0.45" height="0.74" transform="translate(258.21 24.8) scale(16)" xlink:href="#g"/><use width="0.29" height="0.67" transform="translate(266.18 22.9) scale(16)" xlink:href="#h"/><use width="0.11" height="0.72" transform="translate(272.47 21.87) scale(16)" xlink:href="#i"/><use width="0.48" height="0.55" transform="translate(275.95 24.8) scale(16)" xlink:href="#j"/><use width="0.42" height="0.54" transform="translate(285.46 24.8) scale(16)" xlink:href="#c"/><use transform="translate(293.24 33.4) scale(16)" xlink:href="#l"/><use width="0.42" height="0.55" transform="translate(297.99 24.8) scale(16)" xlink:href="#m"/><use width="0.11" height="0.72" transform="translate(306.6 21.87) scale(16)" xlink:href="#i"/><use width="0.45" height="0.76" transform="translate(310.1 21.4) scale(16)" xlink:href="#o"/><use width="0.45" height="0.55" transform="translate(319.08 24.8) scale(16)" xlink:href="#b"/><use transform="translate(326.86 33.4) scale(16)" xlink:href="#l"/><use width="0.45" height="0.74" transform="translate(331.95 24.8) scale(16)" xlink:href="#g"/><use width="0.42" height="0.54" transform="translate(340.93 24.95) scale(16)" xlink:href="#s"/><use width="0.45" height="0.76" transform="translate(349.83 21.4) scale(16)" xlink:href="#t"/><use width="0.09" height="0.75" transform="translate(358.95 21.4) scale(16)" xlink:href="#u"/><use width="0.11" height="0.72" transform="translate(362.72 21.87) scale(16)" xlink:href="#i"/><use width="0.45" height="0.55" transform="translate(366.21 24.8) scale(16)" xlink:href="#d"/><use transform="translate(373.85 33.4) scale(16)" xlink:href="#l"/><use width="0.44" height="0.75" transform="translate(378.96 21.4) scale(16)" xlink:href="#y"/><use width="0.45" height="0.55" transform="translate(386.72 24.8) scale(16)" xlink:href="#b"/><use width="0.45" height="0.74" transform="translate(394.66 24.95) scale(16)" xlink:href="#f"/><use transform="translate(402.11 33.4) scale(16)" xlink:href="#l"/><use width="0.09" height="0.75" transform="translate(407.33 21.4) scale(16)" xlink:href="#u"/><use width="0.45" height="0.55" transform="translate(410.71 24.8) scale(16)" xlink:href="#b"/><use width="0.42" height="0.54" transform="translate(419.59 24.8) scale(16)" xlink:href="#c"/><use width="0.45" height="0.75" transform="translate(428.13 24.8) scale(16)" xlink:href="#af"/><use width="0.29" height="0.67" transform="translate(436.43 22.9) scale(16)" xlink:href="#h"/><use width="0.42" height="0.75" transform="translate(442.72 21.4) scale(16)" xlink:href="#ah"/><use width="0.51" height="0.71" transform="translate(585.33 22.03) scale(16)" xlink:href="#a"/><use width="0.51" height="0.71" transform="translate(874.38 22.03) scale(16)" xlink:href="#aj"/><use width="0.48" height="0.71" transform="translate(884.5 22.03) scale(16)" xlink:href="#ak"/><use width="0.54" height="0.71" transform="translate(894.5 22.03) scale(16)" xlink:href="#al"/><use width="0.51" height="0.71" transform="translate(904.49 22.03) scale(16)" xlink:href="#am"/><use width="0.44" height="0.71" transform="translate(914.99 22.03) scale(16)" xlink:href="#an"/><use width="0.48" height="0.72" transform="translate(923.28 21.87) scale(16)" xlink:href="#ao"/><use transform="translate(931.55 33.4) scale(16)" xlink:href="#l"/><use width="0.42" height="0.55" transform="translate(936.29 24.8) scale(16)" xlink:href="#m"/><use width="0.44" height="0.55" transform="translate(944.65 24.8) scale(16)" xlink:href="#ar"/><use width="0.09" height="0.75" transform="translate(953.77 21.4) scale(16)" xlink:href="#u"/><use width="0.29" height="0.67" transform="translate(956.49 22.9) scale(16)" xlink:href="#h"/><use transform="translate(961.66 33.4) scale(16)" xlink:href="#l"/><use width="0.09" height="0.75" transform="translate(966.88 21.4) scale(16)" xlink:href="#u"/><use width="0.45" height="0.55" transform="translate(970.25 24.8) scale(16)" xlink:href="#b"/><use width="0.42" height="0.54" transform="translate(979.12 24.8) scale(16)" xlink:href="#c"/><use width="0.45" height="0.75" transform="translate(987.65 24.8) scale(16)" xlink:href="#af"/><use width="0.29" height="0.67" transform="translate(995.97 22.9) scale(16)" xlink:href="#h"/><use width="0.42" height="0.75" transform="translate(1002.25 21.4) scale(16)" xlink:href="#ah"/><use width="0.27" height="0.71" transform="translate(1415.55 21.97) scale(16)" xlink:href="#bb"/><use width="0.48" height="0.72" transform="translate(1423.95 21.87) scale(16)" xlink:href="#ao"/><use width="0.45" height="0.53" transform="translate(1780.05 24.95) scale(16)" xlink:href="#bd"/><use width="0.44" height="0.55" transform="translate(1788.4 24.8) scale(16)" xlink:href="#ar"/><use width="0.26" height="0.54" transform="translate(1797.4 24.8) scale(16)" xlink:href="#e"/><use width="0.11" height="0.72" transform="translate(1802.78 21.87) scale(16)" xlink:href="#i"/><use width="0.44" height="0.55" transform="translate(1806.4 24.8) scale(16)" xlink:href="#ar"/><use width="0.45" height="0.76" transform="translate(1815.4 21.4) scale(16)" xlink:href="#t"/><use width="0.09" height="0.75" transform="translate(1824.52 21.4) scale(16)" xlink:href="#u"/><use width="0.45" height="0.55" transform="translate(1827.91 24.8) scale(16)" xlink:href="#b"/><use width="0.27" height="0.71" transform="translate(2249.35 21.97) scale(16)" xlink:href="#bb"/><use width="0.45" height="0.72" transform="translate(2258.05 22.01) scale(16)" xlink:href="#bm"/><use width="0.45" height="0.55" transform="translate(25.91 64.88) scale(16)" xlink:href="#b"/><use width="0.42" height="0.54" transform="translate(34.78 64.88) scale(16)" xlink:href="#c"/><use width="0.45" height="0.55" transform="translate(43.29 64.88) scale(16)" xlink:href="#d"/><use width="0.26" height="0.54" transform="translate(52.03 64.88) scale(16)" xlink:href="#e"/><use width="0.45" height="0.74" transform="translate(56.48 65.03) scale(16)" xlink:href="#f"/><use width="0.45" height="0.74" transform="translate(65.03 64.88) scale(16)" xlink:href="#g"/><use width="0.29" height="0.67" transform="translate(73 62.98) scale(16)" xlink:href="#h"/><use width="0.11" height="0.72" transform="translate(79.29 61.95) scale(16)" xlink:href="#i"/><use width="0.48" height="0.55" transform="translate(82.77 64.88) scale(16)" xlink:href="#j"/><use width="0.42" height="0.54" transform="translate(92.28 64.88) scale(16)" xlink:href="#c"/><use transform="translate(100.06 73.48) scale(16)" xlink:href="#l"/><use width="0.42" height="0.55" transform="translate(104.81 64.88) scale(16)" xlink:href="#m"/><use width="0.11" height="0.72" transform="translate(113.42 61.95) scale(16)" xlink:href="#i"/><use width="0.45" height="0.76" transform="translate(116.92 61.48) scale(16)" xlink:href="#o"/><use width="0.45" height="0.55" transform="translate(125.9 64.88) scale(16)" xlink:href="#b"/><use transform="translate(133.68 73.48) scale(16)" xlink:href="#l"/><use width="0.45" height="0.74" transform="translate(20.71 83.84) scale(16)" xlink:href="#g"/><use width="0.42" height="0.54" transform="translate(29.69 83.99) scale(16)" xlink:href="#s"/><use width="0.45" height="0.76" transform="translate(38.58 80.44) scale(16)" xlink:href="#t"/><use width="0.09" height="0.75" transform="translate(47.71 80.44) scale(16)" xlink:href="#u"/><use width="0.11" height="0.72" transform="translate(51.48 80.91) scale(16)" xlink:href="#i"/><use width="0.45" height="0.55" transform="translate(54.97 83.84) scale(16)" xlink:href="#d"/><use transform="translate(62.62 92.44) scale(16)" xlink:href="#l"/><use width="0.44" height="0.75" transform="translate(67.73 80.44) scale(16)" xlink:href="#y"/><use width="0.45" height="0.55" transform="translate(75.48 83.84) scale(16)" xlink:href="#b"/><use width="0.45" height="0.74" transform="translate(83.43 83.99) scale(16)" xlink:href="#f"/><use transform="translate(90.88 92.44) scale(16)" xlink:href="#l"/><use width="0.09" height="0.75" transform="translate(96.11 80.44) scale(16)" xlink:href="#u"/><use width="0.45" height="0.55" transform="translate(99.49 83.84) scale(16)" xlink:href="#b"/><use width="0.42" height="0.54" transform="translate(108.37 83.84) scale(16)" xlink:href="#c"/><use width="0.45" height="0.75" transform="translate(116.9 83.84) scale(16)" xlink:href="#af"/><use width="0.29" height="0.67" transform="translate(125.21 81.94) scale(16)" xlink:href="#h"/><use width="0.42" height="0.75" transform="translate(131.5 80.44) scale(16)" xlink:href="#ah"/><use width="0.45" height="0.55" transform="translate(243.27 74.48) scale(16)" xlink:href="#b"/><use width="0.42" height="0.54" transform="translate(252.15 74.48) scale(16)" xlink:href="#c"/><use width="0.45" height="0.55" transform="translate(260.66 74.48) scale(16)" xlink:href="#d"/><use width="0.26" height="0.54" transform="translate(269.4 74.48) scale(16)" xlink:href="#e"/><use width="0.45" height="0.74" transform="translate(273.85 74.63) scale(16)" xlink:href="#f"/><use width="0.45" height="0.74" transform="translate(282.39 74.48) scale(16)" xlink:href="#g"/><use width="0.29" height="0.67" transform="translate(290.37 72.58) scale(16)" xlink:href="#h"/><use width="0.11" height="0.72" transform="translate(296.66 71.55) scale(16)" xlink:href="#i"/><use width="0.48" height="0.55" transform="translate(300.14 74.48) scale(16)" xlink:href="#j"/><use width="0.42" height="0.54" transform="translate(309.65 74.48) scale(16)" xlink:href="#c"/><use transform="translate(317.43 83.08) scale(16)" xlink:href="#l"/><use width="0.42" height="0.55" transform="translate(322.17 74.48) scale(16)" xlink:href="#m"/><use width="0.11" height="0.72" transform="translate(330.78 71.55) scale(16)" xlink:href="#i"/><use width="0.45" height="0.76" transform="translate(334.29 71.08) scale(16)" xlink:href="#o"/><use width="0.45" height="0.55" transform="translate(343.27 74.48) scale(16)" xlink:href="#b"/><use transform="translate(351.04 83.08) scale(16)" xlink:href="#l"/><use width="0.45" height="0.74" transform="translate(356.14 74.48) scale(16)" xlink:href="#g"/><use width="0.42" height="0.54" transform="translate(365.11 74.63) scale(16)" xlink:href="#s"/><use width="0.45" height="0.76" transform="translate(374.02 71.08) scale(16)" xlink:href="#t"/><use width="0.09" height="0.75" transform="translate(383.14 71.08) scale(16)" xlink:href="#u"/><use width="0.11" height="0.72" transform="translate(386.91 71.55) scale(16)" xlink:href="#i"/><use width="0.45" height="0.55" transform="translate(390.4 74.48) scale(16)" xlink:href="#d"/><use transform="translate(398.04 83.08) scale(16)" xlink:href="#l"/><use width="0.44" height="0.75" transform="translate(403.15 71.08) scale(16)" xlink:href="#y"/><use width="0.45" height="0.55" transform="translate(410.9 74.48) scale(16)" xlink:href="#b"/><use width="0.45" height="0.74" transform="translate(418.85 74.63) scale(16)" xlink:href="#f"/><use width="0.51" height="0.71" transform="translate(522.24 71.71) scale(16)" xlink:href="#aj"/><use width="0.48" height="0.71" transform="translate(532.36 71.71) scale(16)" xlink:href="#ak"/><use width="0.54" height="0.71" transform="translate(542.36 71.71) scale(16)" xlink:href="#al"/><use width="0.51" height="0.71" transform="translate(552.36 71.71) scale(16)" xlink:href="#am"/><use width="0.44" height="0.71" transform="translate(562.85 71.71) scale(16)" xlink:href="#an"/><use width="0.48" height="0.72" transform="translate(571.14 71.55) scale(16)" xlink:href="#ao"/><use transform="translate(579.41 83.08) scale(16)" xlink:href="#l"/><use width="0.42" height="0.55" transform="translate(584.15 74.48) scale(16)" xlink:href="#m"/><use width="0.44" height="0.55" transform="translate(592.51 74.48) scale(16)" xlink:href="#ar"/><use width="0.09" height="0.75" transform="translate(601.63 71.08) scale(16)" xlink:href="#u"/><use width="0.29" height="0.67" transform="translate(604.35 72.58) scale(16)" xlink:href="#h"/><use transform="translate(609.52 83.08) scale(16)" xlink:href="#l"/><use width="0.09" height="0.75" transform="translate(614.74 71.08) scale(16)" xlink:href="#u"/><use width="0.45" height="0.55" transform="translate(618.12 74.48) scale(16)" xlink:href="#b"/><use width="0.42" height="0.54" transform="translate(626.98 74.48) scale(16)" xlink:href="#c"/><use width="0.45" height="0.75" transform="translate(635.52 74.48) scale(16)" xlink:href="#af"/><use width="0.29" height="0.67" transform="translate(643.83 72.58) scale(16)" xlink:href="#h"/><use width="0.42" height="0.75" transform="translate(650.11 71.08) scale(16)" xlink:href="#ah"/><use width="0.51" height="0.71" transform="translate(898.56 71.71) scale(16)" xlink:href="#aj"/><use width="0.48" height="0.71" transform="translate(908.69 71.71) scale(16)" xlink:href="#ak"/><use width="0.54" height="0.71" transform="translate(918.69 71.71) scale(16)" xlink:href="#al"/><use width="0.51" height="0.71" transform="translate(928.68 71.71) scale(16)" xlink:href="#am"/><use width="0.44" height="0.71" transform="translate(939.17 71.71) scale(16)" xlink:href="#an"/><use width="0.48" height="0.72" transform="translate(947.47 71.55) scale(16)" xlink:href="#ao"/><use transform="translate(955.74 83.08) scale(16)" xlink:href="#l"/><use width="0.42" height="0.55" transform="translate(960.48 74.48) scale(16)" xlink:href="#m"/><use width="0.44" height="0.55" transform="translate(968.84 74.48) scale(16)" xlink:href="#ar"/><use width="0.09" height="0.75" transform="translate(977.95 71.08) scale(16)" xlink:href="#u"/><use width="0.29" height="0.67" transform="translate(980.67 72.58) scale(16)" xlink:href="#h"/><use width="0.11" height="0.72" transform="translate(1357.07 71.55) scale(16)" xlink:href="#i"/><use width="0.42" height="0.54" transform="translate(1360.94 74.48) scale(16)" xlink:href="#c"/><use width="0.11" height="0.72" transform="translate(1369.83 71.55) scale(16)" xlink:href="#i"/><use width="0.29" height="0.67" transform="translate(1372.67 72.58) scale(16)" xlink:href="#h"/><use width="0.11" height="0.72" transform="translate(1378.96 71.55) scale(16)" xlink:href="#i"/><use width="0.44" height="0.55" transform="translate(1382.58 74.48) scale(16)" xlink:href="#ar"/><use width="0.09" height="0.75" transform="translate(1391.7 71.08) scale(16)" xlink:href="#u"/><use width="0.11" height="0.72" transform="translate(1395.46 71.55) scale(16)" xlink:href="#i"/><use width="0.42" height="0.53" transform="translate(1398.93 74.63) scale(16)" xlink:href="#ff"/><use width="0.44" height="0.55" transform="translate(1407.08 74.48) scale(16)" xlink:href="#ar"/><use width="0.29" height="0.67" transform="translate(1415.06 72.58) scale(16)" xlink:href="#h"/><use width="0.11" height="0.72" transform="translate(1421.35 71.55) scale(16)" xlink:href="#i"/><use width="0.48" height="0.55" transform="translate(1424.83 74.48) scale(16)" xlink:href="#j"/><use width="0.42" height="0.54" transform="translate(1434.34 74.48) scale(16)" xlink:href="#c"/><use transform="translate(1442.12 83.08) scale(16)" xlink:href="#l"/><use width="0.45" height="0.53" transform="translate(1446.38 74.63) scale(16)" xlink:href="#bd"/><use width="0.45" height="0.55" transform="translate(1454.6 74.48) scale(16)" xlink:href="#b"/><use width="0.45" height="0.55" transform="translate(1463.1 74.48) scale(16)" xlink:href="#d"/><use width="0.29" height="0.67" transform="translate(1470.81 72.58) scale(16)" xlink:href="#h"/><use width="0.48" height="0.55" transform="translate(1476.71 74.48) scale(16)" xlink:href="#j"/><use width="0.26" height="0.54" transform="translate(1486.22 74.48) scale(16)" xlink:href="#e"/><use width="0.45" height="0.55" transform="translate(1749.46 74.48) scale(16)" xlink:href="#b"/><use width="0.42" height="0.54" transform="translate(1758.33 74.48) scale(16)" xlink:href="#c"/><use width="0.45" height="0.55" transform="translate(1766.84 74.48) scale(16)" xlink:href="#d"/><use width="0.26" height="0.54" transform="translate(1775.59 74.48) scale(16)" xlink:href="#e"/><use width="0.45" height="0.74" transform="translate(1780.04 74.63) scale(16)" xlink:href="#f"/><use width="0.45" height="0.74" transform="translate(1788.58 74.48) scale(16)" xlink:href="#g"/><use width="0.29" height="0.67" transform="translate(1796.55 72.58) scale(16)" xlink:href="#h"/><use width="0.45" height="0.55" transform="translate(1802.46 74.48) scale(16)" xlink:href="#b"/><use width="0.45" height="0.76" transform="translate(1810.97 71.08) scale(16)" xlink:href="#o"/><use transform="translate(1819.22 83.08) scale(16)" xlink:href="#l"/><use width="0.45" height="0.76" transform="translate(1824.32 71.08) scale(16)" xlink:href="#t"/><use width="0.11" height="0.72" transform="translate(1833.33 71.55) scale(16)" xlink:href="#i"/><use width="0.42" height="0.54" transform="translate(1837.2 74.48) scale(16)" xlink:href="#c"/><use width="0.44" height="0.55" transform="translate(1845.83 74.48) scale(16)" xlink:href="#ar"/><use width="0.26" height="0.54" transform="translate(1854.84 74.48) scale(16)" xlink:href="#e"/><use width="0.45" height="0.74" transform="translate(1859.29 74.63) scale(16)" xlink:href="#f"/><use width="0.44" height="0.55" transform="translate(2193.11 74.48) scale(16)" xlink:href="#ar"/><use width="0.42" height="0.54" transform="translate(2202.08 74.63) scale(16)" xlink:href="#s"/><use width="0.29" height="0.67" transform="translate(2209.96 72.58) scale(16)" xlink:href="#h"/><use width="0.42" height="0.75" transform="translate(2216.24 71.08) scale(16)" xlink:href="#ah"/><use width="0.45" height="0.55" transform="translate(2224.74 74.48) scale(16)" xlink:href="#b"/><use width="0.42" height="0.54" transform="translate(2233.61 74.48) scale(16)" xlink:href="#c"/><use width="0.29" height="0.67" transform="translate(2241.46 72.58) scale(16)" xlink:href="#h"/><use width="0.11" height="0.72" transform="translate(2247.74 71.55) scale(16)" xlink:href="#i"/><use width="0.45" height="0.55" transform="translate(2251.23 74.48) scale(16)" xlink:href="#d"/><use width="0.44" height="0.55" transform="translate(2259.72 74.48) scale(16)" xlink:href="#ar"/><use width="0.29" height="0.67" transform="translate(2267.69 72.58) scale(16)" xlink:href="#h"/><use width="0.11" height="0.72" transform="translate(2273.98 71.55) scale(16)" xlink:href="#i"/><use width="0.48" height="0.55" transform="translate(2277.46 74.48) scale(16)" xlink:href="#j"/><use width="0.42" height="0.54" transform="translate(2286.96 74.48) scale(16)" xlink:href="#c"/><use transform="translate(2294.73 83.08) scale(16)" xlink:href="#l"/><use width="0.29" height="0.67" transform="translate(2298.8 72.58) scale(16)" xlink:href="#h"/><use width="0.44" height="0.55" transform="translate(2304.83 74.48) scale(16)" xlink:href="#ar"/><use width="0.45" height="0.75" transform="translate(2313.49 74.48) scale(16)" xlink:href="#af"/></svg>