<svg xmlns="http://www.w3.org/2000/svg" xmlns:xlink="http://www.w3.org/1999/xlink" viewBox="0 0 904.1 218.92"><defs><symbol id="a" viewBox="0 0 0.45 0.73"><path d="M.45.42A.38.38,0,0,1,.39.66.2.2,0,0,1,.23.73.21.21,0,0,1,.06.66.33.33,0,0,1,0,.43V.31A.35.35,0,0,1,.06.07.2.2,0,0,1,.22,0,.21.21,0,0,1,.39.07.33.33,0,0,1,.45.3V.42M.36.29a.27.27,0,0,0,0-.17.11.11,0,0,0-.1,0,.11.11,0,0,0-.09,0,.25.25,0,0,0,0,.17V.43A.25.25,0,0,0,.13.6a.1.1,0,0,0,.1.06A.1.1,0,0,0,.32.6a.24.24,0,0,0,0-.16Z"/></symbol><symbol id="b" viewBox="0 0 0.45 0.72"><path d="M.45.48A.25.25,0,0,1,.39.65.18.18,0,0,1,.23.72.18.18,0,0,1,.1.68.39.39,0,0,1,0,.58.59.59,0,0,1,0,.45v0a.69.69,0,0,1,0-.2A.31.31,0,0,1,.13.06.33.33,0,0,1,.34,0h0V.08A.33.33,0,0,0,.2.11.24.24,0,0,0,.12.2l0,.11A.21.21,0,0,1,.25.25a.2.2,0,0,1,.11,0A.22.22,0,0,1,.43.37a.36.36,0,0,1,0,.11M.09.45A.24.24,0,0,0,.13.6a.14.14,0,0,0,.1.05A.14.14,0,0,0,.33.6a.21.21,0,0,0,0-.12.2.2,0,0,0,0-.11.12.12,0,0,0-.1,0,.16.16,0,0,0-.09,0A.18.18,0,0,0,.09.42Z"/></symbol><symbol id="c" viewBox="0 0 0.45 0.76"><path d="M.36.75V.69A.18.18,0,0,1,.21.76.19.19,0,0,1,.06.68.28.28,0,0,1,0,.5v0A.29.29,0,0,1,.06.29.19.19,0,0,1,.21.21.2.2,0,0,1,.36.27V0H.45V.75H.36M.09.49a.32.32,0,0,0,0,.14A.14.14,0,0,0,.23.68.14.14,0,0,0,.36.61V.36A.14.14,0,0,0,.23.29.13.13,0,0,0,.12.35a.25.25,0,0,0,0,.13Z"/></symbol><symbol id="d" viewBox="0 0 0.45 0.72"><path d="M.45.32s0,.09,0,.14a.5.5,0,0,1,0,.13.32.32,0,0,1-.1.1A.5.5,0,0,1,.1.72V.65a.31.31,0,0,0,.16,0A.13.13,0,0,0,.33.52a.2.2,0,0,0,0-.11A.18.18,0,0,1,.29.46.15.15,0,0,1,.2.48a.2.2,0,0,1-.11,0L0,.36A.52.52,0,0,1,0,.25.28.28,0,0,1,.06.07.18.18,0,0,1,.22,0,.18.18,0,0,1,.35,0,.19.19,0,0,1,.42.15a.32.32,0,0,1,0,.14v0M.09.24a.27.27,0,0,0,0,.12.11.11,0,0,0,.1,0A.11.11,0,0,0,.3.38.13.13,0,0,0,.36.31v0a.27.27,0,0,0,0-.15A.12.12,0,0,0,.22.07a.14.14,0,0,0-.1,0A.21.21,0,0,0,.09.24Z"/></symbol><symbol id="e" viewBox="0 0 0.45 0.55"><path d="M.23.47a.12.12,0,0,0,.09,0,.08.08,0,0,0,0-.07H.45A.24.24,0,0,1,.38.5.25.25,0,0,1,.23.55.21.21,0,0,1,.06.47.29.29,0,0,1,0,.28v0A.28.28,0,0,1,.06.08.21.21,0,0,1,.23,0,.18.18,0,0,1,.38.06.21.21,0,0,1,.45.19H.36a.12.12,0,0,0,0-.08.13.13,0,0,0-.09,0A.11.11,0,0,0,.15.1L.1.17a.28.28,0,0,0,0,.09v0A.22.22,0,0,0,.1.37a.22.22,0,0,0,0,.08Z"/></symbol><symbol id="f" viewBox="0 0 0.44 0.55"><path d="M.34.54a.35.35,0,0,1,0-.06L.27.53.18.55A.17.17,0,0,1,.05.5.14.14,0,0,1,0,.39.15.15,0,0,1,.06.26a.34.34,0,0,1,.18,0H.33v0A.1.1,0,0,0,.3.1a.11.11,0,0,0-.08,0A.12.12,0,0,0,.13.1.06.06,0,0,0,.1.16H0A.14.14,0,0,1,.07.05.25.25,0,0,1,.22,0,.2.2,0,0,1,.36,0,.17.17,0,0,1,.42.18V.41a.22.22,0,0,0,0,.12H.34M.19.47a.16.16,0,0,0,.09,0l0,0V.28H.24c-.1,0-.15,0-.15.1a.07.07,0,0,0,0,.06A.08.08,0,0,0,.19.47Z"/></symbol><symbol id="g" viewBox="0 0 0.45 0.72"><path d="M.1.37,0,.35.06,0H.43V.08H.14l0,.2a.21.21,0,0,1,.12,0A.2.2,0,0,1,.39.31.24.24,0,0,1,.45.48.24.24,0,0,1,.39.65.19.19,0,0,1,.22.72a.25.25,0,0,1-.15,0A.21.21,0,0,1,0,.52H.09C.1.61.14.65.22.65A.12.12,0,0,0,.32.6a.21.21,0,0,0,0-.11.21.21,0,0,0,0-.12.14.14,0,0,0-.11,0H.15Z"/></symbol><symbol id="h" viewBox="0 0 0.45 0.73"><path d="M.45.53A.2.2,0,0,1,.39.68a.3.3,0,0,1-.16,0,.31.31,0,0,1-.17,0A.2.2,0,0,1,0,.53.2.2,0,0,1,0,.42.22.22,0,0,1,.12.35.16.16,0,0,1,0,.29a.3.3,0,0,1,0-.1A.17.17,0,0,1,.08.05.23.23,0,0,1,.23,0,.25.25,0,0,1,.38.05.17.17,0,0,1,.44.19a.17.17,0,0,1,0,.1A.16.16,0,0,1,.33.35.22.22,0,0,1,.42.42a.2.2,0,0,1,0,.11M.35.2a.13.13,0,0,0,0-.09.12.12,0,0,0-.08,0,.13.13,0,0,0-.09,0A.12.12,0,0,0,.11.2a.11.11,0,0,0,0,.08.1.1,0,0,0,.09,0,.09.09,0,0,0,.08,0A.12.12,0,0,0,.35.2m0,.33a.12.12,0,0,0,0-.1.1.1,0,0,0-.09,0,.11.11,0,0,0-.1,0,.12.12,0,0,0,0,.1.1.1,0,0,0,0,.09.13.13,0,0,0,.1,0,.18.18,0,0,0,.1,0A.12.12,0,0,0,.36.53Z"/></symbol><symbol id="i" viewBox="0 0 0.32 0.76"><path d="M.29.3H.17V.76H.08V.3H0V.23H.08V.17A.19.19,0,0,1,.13,0,.17.17,0,0,1,.26,0H.32V.08h0c-.06,0-.1,0-.1.09V.23H.29Z"/></symbol><symbol id="j" viewBox="0 0 0.48 0.71"><path d="M.48,0V.05L.19.71H.09L.38.07H0V0Z"/></symbol><symbol id="k" viewBox="0 0 0.45 0.76"><path d="M.45.49A.29.29,0,0,1,.39.68.16.16,0,0,1,.24.76.17.17,0,0,1,.09.69V.75H0V0H.09V.28A.18.18,0,0,1,.24.21.16.16,0,0,1,.39.29.29.29,0,0,1,.45.48h0M.22.29.14.31.09.37V.6L.14.66a.11.11,0,0,0,.08,0A.11.11,0,0,0,.32.63a.23.23,0,0,0,0-.14h0a.25.25,0,0,0,0-.13A.11.11,0,0,0,.22.29Z"/></symbol><symbol id="m" viewBox="0 0 0.45 0.55"><path d="M.44.45A.46.46,0,0,1,.37.52a.25.25,0,0,1-.13,0A.24.24,0,0,1,.07.48.25.25,0,0,1,0,.29v0A.37.37,0,0,1,0,.12.2.2,0,0,1,.12,0,.2.2,0,0,1,.23,0,.19.19,0,0,1,.4.07a.36.36,0,0,1,0,.19v0H.09a.21.21,0,0,0,0,.12.13.13,0,0,0,.12,0,.11.11,0,0,0,.08,0L.39.4l0,0M.23.07a.15.15,0,0,0-.09,0A.33.33,0,0,0,.09.23H.36a.17.17,0,0,0,0-.1A.11.11,0,0,0,.23.07Z"/></symbol><symbol id="r" viewBox="0 0 0.27 0.71"><path d="M.27,0V.71H.18V.11L0,.18V.1L.26,0Z"/></symbol><symbol id="aa" viewBox="0 0 0.51 0.71"><path d="M0,.49.32,0H.41V.47h.1V.55H.41V.71H.32V.55H0V.49m.1,0H.32V.14Z"/></symbol><symbol id="au" viewBox="0 0 0.48 0.72"><path d="M.48.65V.72H0V.66L.25.39A.48.48,0,0,0,.33.28.13.13,0,0,0,.36.2a.12.12,0,0,0,0-.09.13.13,0,0,0-.09,0,.13.13,0,0,0-.1,0,.15.15,0,0,0,0,.11H0A.25.25,0,0,1,.06.06.24.24,0,0,1,.23,0,.25.25,0,0,1,.39.05.18.18,0,0,1,.45.19a.38.38,0,0,1,0,.13L.31.44.12.65Z"/></symbol><symbol id="bg" viewBox="0 0 0.45 0.73"><path d="M.14.4V.32H.21a.13.13,0,0,0,.1,0A.12.12,0,0,0,.35.2C.35.12.31.07.23.07a.18.18,0,0,0-.1,0A.12.12,0,0,0,.1.2H0A.18.18,0,0,1,.07.06.21.21,0,0,1,.23,0,.25.25,0,0,1,.38.05.2.2,0,0,1,.44.2a.16.16,0,0,1,0,.09S.37.34.33.36.41.39.42.43a.16.16,0,0,1,0,.09A.21.21,0,0,1,.39.68a.3.3,0,0,1-.16,0,.25.25,0,0,1-.16,0A.17.17,0,0,1,0,.53H.09a.1.1,0,0,0,0,.09.11.11,0,0,0,.1,0,.1.1,0,0,0,.09,0,.11.11,0,0,0,0-.1.1.1,0,0,0,0-.09A.2.2,0,0,0,.21.4Z"/></symbol><symbol id="bm" viewBox="0 0 0.14 0.25"><path d="M.14,0V.07a.22.22,0,0,1,0,.1A.16.16,0,0,1,.05.25l0,0A.21.21,0,0,0,.05.08V0Z"/></symbol><symbol id="bn" viewBox="0 0 0.63 0.71"><path d="M0,.71.27,0H.35L.63.71H.53L.46.52H.16L.1.71H0M.19.45H.43L.31.12Z"/></symbol><symbol id="br" viewBox="0 0 0.45 0.71"><path d="M0,.71V0H.45V.08H.09V.31H.4V.38H.09V.63H.45V.71Z"/></symbol><symbol id="bs" viewBox="0 0 0.55 0.71"><path d="M.45.71V.38H.09V.71H0V0H.09V.31H.45V0h.1V.71Z"/></symbol><symbol id="bt" viewBox="0 0 0.45 0.53"><path d="M.11,0,.23.19.34,0H.45L.28.26.45.53H.35L.23.33.1.53H0L.18.26,0,0Z"/></symbol><symbol id="bu" viewBox="0 0 0.29 0.67"><path d="M.29.66H.22a.14.14,0,0,1-.09,0A.16.16,0,0,1,.1.53V.2H0V.13H.1V0H.19V.13h.1V.2H.19V.53a.07.07,0,0,0,0,0H.29Z"/></symbol><symbol id="bx" viewBox="0 0 0.52 0.71"><path d="M.42.71.26.42H.09V.71H0V0H.24A.3.3,0,0,1,.42.05.21.21,0,0,1,.48.21a.21.21,0,0,1,0,.12A.23.23,0,0,1,.35.4L.52.71H.42M.09.08V.35H.24a.16.16,0,0,0,.11,0,.13.13,0,0,0,0-.1.13.13,0,0,0,0-.1.16.16,0,0,0-.11,0Z"/></symbol><symbol id="by" viewBox="0 0 0.55 0.73"><path d="M.45.49h.1A.3.3,0,0,1,.47.66.24.24,0,0,1,.28.73.24.24,0,0,1,.08.64.36.36,0,0,1,0,.41V.33A.36.36,0,0,1,.08.09.26.26,0,0,1,.29,0,.21.21,0,0,1,.47.07.3.3,0,0,1,.55.24H.45a.21.21,0,0,0,0-.12.16.16,0,0,0-.12,0A.17.17,0,0,0,.14.15.3.3,0,0,0,.09.33V.4A.35.35,0,0,0,.14.58.14.14,0,0,0,.28.65c.06,0,.1,0,.12,0A.22.22,0,0,0,.45.49Z"/></symbol><symbol id="bz" viewBox="0 0 0.61 0.71"><path d="M.61,0,.35.71H.26L0,0H.1L.3.59.51,0Z"/></symbol><symbol id="ca" viewBox="0 0 0.74 0.54"><path d="M.21.08A.11.11,0,0,0,.09.15V.54H0V0H.09V.07A.18.18,0,0,1,.24,0L.33,0s0,0,.07.06S.44,0,.46,0l.1,0A.17.17,0,0,1,.69.05S.74.12.74.19V.54H.65V.19A.12.12,0,0,0,.62.1a.11.11,0,0,0-.08,0,.12.12,0,0,0-.09,0,.11.11,0,0,0,0,.08V.54H.33V.19A.13.13,0,0,0,.29.1S.25.08.21.08Z"/></symbol><symbol id="cb" viewBox="0 0 0.44 0.75"><path d="M.33.75.15.5.09.56V.75H0V0H.09V.45L.14.4.3.22H.41L.21.44.44.75Z"/></symbol><symbol id="cd" viewBox="0 0 0.57 0.84"><path d="M.57.78.51.84.36.72H.29A.26.26,0,0,1,.08.64.39.39,0,0,1,0,.39v0A.39.39,0,0,1,.08.09.26.26,0,0,1,.29,0a.25.25,0,0,1,.2.09A.37.37,0,0,1,.57.34v0a.48.48,0,0,1,0,.18A.24.24,0,0,1,.45.68l.12.1M.48.34a.33.33,0,0,0,0-.19A.16.16,0,0,0,.29.08.15.15,0,0,0,.15.15.27.27,0,0,0,.09.34v0A.27.27,0,0,0,.15.58.15.15,0,0,0,.29.65.15.15,0,0,0,.43.58a.33.33,0,0,0,0-.19Z"/></symbol><symbol id="ce" viewBox="0 0 0.44 0.71"><path d="M0,.71V0H.44V.08H.09V.32h.3V.4H.09V.71Z"/></symbol><symbol id="cf" viewBox="0 0 0.09 0.75"><path d="M.09,0V.75H0V0Z"/></symbol><symbol id="cg" viewBox="0 0 0.55 0.71"><path d="M.43.71.18.38.09.47V.71H0V0H.09V.35L.41,0H.52L.24.31l.3.4Z"/></symbol><symbol id="ci" viewBox="0 0 0.11 0.72"><path d="M0,.05A0,0,0,0,1,0,0l0,0a.05.05,0,0,1,0,0s0,0,0,0a.05.05,0,0,1,0,0H0s0,0,0,0M.1.19V.72H0V.19Z"/></symbol><symbol id="cj" viewBox="0 0 0.55 0.71"><path d="M0,.08V0H.55V.08H.32V.71H.23V.08Z"/></symbol><symbol id="ck" viewBox="0 0 0.43 0.71"><path d="M.43.63V.71H0V0H.09V.63Z"/></symbol><symbol id="cm" viewBox="0 0 0.42 0.53"><path d="M0,.07V0H.4V.06L.11.45H.42V.53H0V.46L.29.07Z"/></symbol><symbol id="cs" viewBox="0 0 0.45 0.53"><path d="M.45,0,.26.53H.19L0,0H.09L.23.4.36,0Z"/></symbol><symbol id="ct" viewBox="0 0 0.52 0.73"><path d="M.42.54a.11.11,0,0,0,0-.08A.38.38,0,0,0,.25.4.38.38,0,0,1,.08.32.15.15,0,0,1,0,.19.15.15,0,0,1,.09.06.24.24,0,0,1,.26,0,.24.24,0,0,1,.45.07.2.2,0,0,1,.51.21H.42a.11.11,0,0,0,0-.09S.32.08.26.08a.18.18,0,0,0-.11,0,.11.11,0,0,0,0,.08.11.11,0,0,0,0,.08l.13,0A.38.38,0,0,1,.46.41.15.15,0,0,1,.52.54.19.19,0,0,1,.45.68a.35.35,0,0,1-.18,0L.14.71A.25.25,0,0,1,0,.63.16.16,0,0,1,0,.51H.09A.11.11,0,0,0,.15.62a.21.21,0,0,0,.12,0,.16.16,0,0,0,.11,0A.08.08,0,0,0,.42.54Z"/></symbol><symbol id="cv" viewBox="0 0 0.2 0.93"><path d="M.09.05s0,0,0,0l0,0a.05.05,0,0,1,0,0,0,0,0,0,1,0,0s0,0,0,0H.11a.05.05,0,0,1,0,0M.1.19H.19V.78c0,.1,0,.15-.13.15H0V.85H0S.1.83.1.79Z"/></symbol><symbol id="cz" viewBox="0 0 0.52 0.71"><path d="M0,.71V0H.2A.32.32,0,0,1,.43.09.32.32,0,0,1,.51.33v0A.32.32,0,0,1,.43.62.32.32,0,0,1,.19.71H0M.09.08V.63h.1A.18.18,0,0,0,.36.56.26.26,0,0,0,.42.38v0A.29.29,0,0,0,.36.14.2.2,0,0,0,.2.08Z"/></symbol><symbol id="dd" viewBox="0 0 0.52 0.71"><path d="M0,.08V0H.5V.07L.11.63H.52V.71H0V.64L.39.08Z"/></symbol><symbol id="de" viewBox="0 0 0.51 0.71"><path d="M.09.43V.71H0V0H.26A.29.29,0,0,1,.45.06.21.21,0,0,1,.51.22.21.21,0,0,1,.45.38a.36.36,0,0,1-.19,0H.09m0-.35V.36H.26a.17.17,0,0,0,.12,0,.13.13,0,0,0,0-.1.13.13,0,0,0,0-.1S.32.08.26.08Z"/></symbol><symbol id="df" viewBox="0 0 0.57 0.71"><path d="M.12,0,.29.27.46,0H.57L.34.35.57.71H.46L.29.43.11.71H0L.23.35,0,0Z"/></symbol><symbol id="di" viewBox="0 0 0.42 0.55"><path d="M.33.4a.08.08,0,0,0,0-.05.19.19,0,0,0-.1,0A.3.3,0,0,1,.07.25a.11.11,0,0,1,0-.1A.14.14,0,0,1,.07.05.22.22,0,0,1,.21,0,.21.21,0,0,1,.36.05.14.14,0,0,1,.42.17H.32A.08.08,0,0,0,.3.1a.12.12,0,0,0-.09,0A.11.11,0,0,0,.13.1a.08.08,0,0,0,0,0A.08.08,0,0,0,.13.2l.1,0L.37.29a.12.12,0,0,1,0,.1A.11.11,0,0,1,.36.5.2.2,0,0,1,.22.55.2.2,0,0,1,.06.49.14.14,0,0,1,0,.38H.09a.08.08,0,0,0,0,.07.15.15,0,0,0,.09,0A.11.11,0,0,0,.3.45.05.05,0,0,0,.33.4Z"/></symbol><symbol id="dj" viewBox="0 0 0.48 0.71"><path d="M.48.51A.2.2,0,0,1,.42.66a.29.29,0,0,1-.17,0H0V0H.23A.26.26,0,0,1,.4.05.16.16,0,0,1,.46.19a.15.15,0,0,1,0,.09L.36.34A.15.15,0,0,1,.45.4a.2.2,0,0,1,0,.11M.09.08V.3H.24a.12.12,0,0,0,.09,0,.09.09,0,0,0,0-.08C.37.12.33.08.24.08H.09m.3.43a.17.17,0,0,0,0-.1.16.16,0,0,0-.11,0H.09V.63H.25a.15.15,0,0,0,.1,0A.1.1,0,0,0,.39.51Z"/></symbol><symbol id="dk" viewBox="0 0 0.55 0.73"><path d="M.55.37V.63A.28.28,0,0,1,.47.69.27.27,0,0,1,.3.73.29.29,0,0,1,.08.64.37.37,0,0,1,0,.39v0A.37.37,0,0,1,.07.09.27.27,0,0,1,.29,0,.24.24,0,0,1,.47.06.27.27,0,0,1,.55.22H.45a.18.18,0,0,0,0-.1.16.16,0,0,0-.12,0A.16.16,0,0,0,.14.15.39.39,0,0,0,.09.33V.39A.27.27,0,0,0,.15.58.18.18,0,0,0,.3.65H.41s0,0,0,0V.44H.29V.37Z"/></symbol><symbol id="dl" viewBox="0 0 0.42 0.54"><path d="M.33.53V.48A.21.21,0,0,1,.17.54.17.17,0,0,1,.05.49.21.21,0,0,1,0,.34V0H.09V.34a.13.13,0,0,0,0,.1l.07,0A.13.13,0,0,0,.33.38V0H.42V.53Z"/></symbol><symbol id="dn" viewBox="0 0 0.48 0.55"><path d="M0,.27A.29.29,0,0,1,.06.08.25.25,0,0,1,.24,0,.25.25,0,0,1,.42.08.28.28,0,0,1,.48.26v0A.29.29,0,0,1,.42.47.25.25,0,0,1,.24.55.25.25,0,0,1,.06.47.29.29,0,0,1,0,.28H0m.09,0a.23.23,0,0,0,0,.14.13.13,0,0,0,.11,0,.13.13,0,0,0,.11,0,.23.23,0,0,0,0-.14h0a.23.23,0,0,0,0-.14A.11.11,0,0,0,.24.07.11.11,0,0,0,.13.13a.23.23,0,0,0,0,.14Z"/></symbol><symbol id="dp" viewBox="0 0 0.55 0.71"><path d="M.55,0V.71H.45L.09.16V.71H0V0H.09L.45.55V0Z"/></symbol><symbol id="dq" viewBox="0 0 0.45 0.74"><path d="M.45,0V.74H.35V.49A.17.17,0,0,1,.21.55.16.16,0,0,1,.06.47.29.29,0,0,1,0,.28H0A.32.32,0,0,1,.06.07.16.16,0,0,1,.21,0,.2.2,0,0,1,.36.06V0H.45M.09.28a.32.32,0,0,0,0,.14.14.14,0,0,0,.11,0A.11.11,0,0,0,.35.4V.14A.13.13,0,0,0,.23.07.13.13,0,0,0,.12.13a.32.32,0,0,0,0,.14Z"/></symbol><symbol id="dx" viewBox="0 0 0.71 0.71"><path d="M.35.58.59,0H.71V.71H.61V.14L.39.71H.32L.08.14V.71H0V0H.12Z"/></symbol><symbol id="dz" viewBox="0 0 0.09 0.71"><path d="M.09,0V.71H0V0Z"/></symbol><symbol id="ef" viewBox="0 0 0.41 0.28"><path d="M.41,0V.08H0V0H.41m0,.2V.28H0V.2Z"/></symbol><symbol id="ei" viewBox="0 0 0.42 0.54"><path d="M.22.08A.11.11,0,0,0,.14.1L.09.16V.54H0V0H.09V.08A.19.19,0,0,1,.25,0,.16.16,0,0,1,.37,0a.21.21,0,0,1,0,.15V.54H.32V.19S.32.12.3.1A.11.11,0,0,0,.22.08Z"/></symbol><symbol id="ek" viewBox="0 0 0.26 0.54"><path d="M.21.09A.11.11,0,0,0,.09.16V.54H0V0H.09V.07A.14.14,0,0,1,.22,0h0V.09Z"/></symbol><symbol id="el" viewBox="0 0 0.45 0.74"><path d="M.24.61C.21.69.16.74.1.74H0V.66h0s.06,0,.08,0a.15.15,0,0,0,0-.06l0-.06L0,0H.1L.23.4.35,0h.1Z"/></symbol><symbol id="em" viewBox="0 0 0.45 0.74"><path d="M.24.55A.2.2,0,0,1,.09.49V.74H0V0H.08V.07A.17.17,0,0,1,.24,0,.16.16,0,0,1,.39.07a.32.32,0,0,1,.06.2h0A.29.29,0,0,1,.39.47.16.16,0,0,1,.24.55m0-.47A.13.13,0,0,0,.09.15V.4A.13.13,0,0,0,.21.47a.13.13,0,0,0,.11,0,.33.33,0,0,0,0-.14h0a.33.33,0,0,0,0-.14A.13.13,0,0,0,.21.08Z"/></symbol><symbol id="er" viewBox="0 0 0 0"><path d="M0,0"/></symbol><symbol id="gi" viewBox="0 0 0.45 0.75"><path d="M.22.75l-.1,0A.18.18,0,0,1,0,.65L.07.6A.18.18,0,0,0,.22.67a.17.17,0,0,0,.1,0,.18.18,0,0,0,0-.11V.48A.18.18,0,0,1,.21.55.16.16,0,0,1,.06.47.29.29,0,0,1,0,.28H0A.32.32,0,0,1,.06.07.16.16,0,0,1,.21,0,.18.18,0,0,1,.36.07V0H.45V.53A.22.22,0,0,1,.38.69.21.21,0,0,1,.22.75M.09.28a.32.32,0,0,0,0,.14.14.14,0,0,0,.11,0A.13.13,0,0,0,.36.39V.15s0,0,0,0a.11.11,0,0,0-.08,0A.14.14,0,0,0,.12.13a.32.32,0,0,0,0,.14Z"/></symbol><symbol id="gk" viewBox="0 0 0.42 0.75"><path d="M.22.29.14.31.09.37V.75H0V0H.09V.28A.22.22,0,0,1,.25.21.17.17,0,0,1,.37.26.17.17,0,0,1,.42.4V.75H.32V.4S.32.33.3.31Z"/></symbol></defs><use width="0.45" height="0.73" transform="translate(0.36 0.47) scale(12)" xlink:href="#a"/><use width="0.45" height="0.72" transform="translate(7.21 0.58) scale(12)" xlink:href="#b"/><use width="0.45" height="0.76" transform="translate(13.74 0.12) scale(12)" xlink:href="#c"/><use width="0.45" height="0.72" transform="translate(20.52 0.47) scale(12)" xlink:href="#d"/><use width="0.45" height="0.55" transform="translate(27.23 2.67) scale(12)" xlink:href="#e"/><use width="0.44" height="0.55" transform="translate(33.57 2.67) scale(12)" xlink:href="#f"/><use width="0.45" height="0.72" transform="translate(40.33 0.59) scale(12)" xlink:href="#g"/><use width="0.45" height="0.73" transform="translate(46.83 0.47) scale(12)" xlink:href="#h"/><use width="0.32" height="0.76" transform="translate(53.29) scale(12)" xlink:href="#i"/><use width="0.48" height="0.71" transform="translate(57.51 0.59) scale(12)" xlink:href="#j"/><use width="0.45" height="0.76" transform="translate(64.62 0.12) scale(12)" xlink:href="#k"/><use width="0.45" height="0.72" transform="translate(71.33 0.58) scale(12)" xlink:href="#b"/><use width="0.45" height="0.55" transform="translate(77.85 2.67) scale(12)" xlink:href="#m"/><use width="0.44" height="0.55" transform="translate(84.32 2.67) scale(12)" xlink:href="#f"/><use width="0.45" height="0.76" transform="translate(91 0.12) scale(12)" xlink:href="#k"/><use width="0.45" height="0.73" transform="translate(97.58 0.47) scale(12)" xlink:href="#h"/><use width="0.45" height="0.73" transform="translate(104.35 0.47) scale(12)" xlink:href="#a"/><use width="0.27" height="0.71" transform="translate(111.43 0.54) scale(12)" xlink:href="#r"/><use width="0.45" height="0.73" transform="translate(117.85 0.47) scale(12)" xlink:href="#a"/><use width="0.45" height="0.76" transform="translate(124.75 0.12) scale(12)" xlink:href="#k"/><use width="0.27" height="0.71" transform="translate(131.68 0.54) scale(12)" xlink:href="#r"/><use width="0.45" height="0.55" transform="translate(137.97 2.67) scale(12)" xlink:href="#m"/><use width="0.45" height="0.55" transform="translate(144.35 2.67) scale(12)" xlink:href="#m"/><use width="0.45" height="0.72" transform="translate(151.08 0.59) scale(12)" xlink:href="#g"/><use width="0.45" height="0.73" transform="translate(157.59 0.47) scale(12)" xlink:href="#h"/><use width="0.45" height="0.72" transform="translate(164.58 0.59) scale(12)" xlink:href="#g"/><use width="0.51" height="0.71" transform="translate(170.74 0.59) scale(12)" xlink:href="#aa"/><use width="0.45" height="0.73" transform="translate(177.84 0.47) scale(12)" xlink:href="#h"/><use width="0.45" height="0.55" transform="translate(184.48 2.67) scale(12)" xlink:href="#e"/><use width="0.45" height="0.73" transform="translate(190.83 0.47) scale(12)" xlink:href="#h"/><use width="0.45" height="0.55" transform="translate(197.47 2.67) scale(12)" xlink:href="#e"/><use width="0.45" height="0.73" transform="translate(203.85 0.47) scale(12)" xlink:href="#a"/><use width="0.32" height="0.76" transform="translate(210.28) scale(12)" xlink:href="#i"/><use width="0.45" height="0.72" transform="translate(214.83 0.58) scale(12)" xlink:href="#b"/><use width="0.45" height="0.55" transform="translate(221.34 2.67) scale(12)" xlink:href="#e"/><use width="0.45" height="0.72" transform="translate(227.63 0.47) scale(12)" xlink:href="#d"/><use width="0.45" height="0.55" transform="translate(234.34 2.67) scale(12)" xlink:href="#m"/><use width="0.44" height="0.55" transform="translate(240.81 2.67) scale(12)" xlink:href="#f"/><use width="0.45" height="0.72" transform="translate(247.45 0.58) scale(12)" xlink:href="#b"/><use width="0.48" height="0.71" transform="translate(253.88 0.59) scale(12)" xlink:href="#j"/><use width="0.45" height="0.73" transform="translate(260.84 0.47) scale(12)" xlink:href="#a"/><use width="0.45" height="0.73" transform="translate(267.57 0.47) scale(12)" xlink:href="#h"/><use width="0.51" height="0.71" transform="translate(273.98 0.59) scale(12)" xlink:href="#aa"/><use width="0.45" height="0.73" transform="translate(281.07 0.47) scale(12)" xlink:href="#h"/><use width="0.27" height="0.71" transform="translate(288.17 0.54) scale(12)" xlink:href="#r"/><use width="0.45" height="0.73" transform="translate(294.59 0.47) scale(12)" xlink:href="#a"/><use width="0.48" height="0.72" transform="translate(301.22 0.47) scale(12)" xlink:href="#au"/><use width="0.48" height="0.71" transform="translate(307.88 0.59) scale(12)" xlink:href="#j"/><use width="0.45" height="0.73" transform="translate(314.82 0.47) scale(12)" xlink:href="#h"/><use width="0.45" height="0.76" transform="translate(321.74 0.12) scale(12)" xlink:href="#k"/><use width="0.51" height="0.71" transform="translate(327.98 0.59) scale(12)" xlink:href="#aa"/><use width="0.45" height="0.76" transform="translate(334.98 0.12) scale(12)" xlink:href="#c"/><use width="0.51" height="0.71" transform="translate(341.48 0.59) scale(12)" xlink:href="#aa"/><use width="0.45" height="0.72" transform="translate(348.5 0.47) scale(12)" xlink:href="#d"/><use width="0.45" height="0.72" transform="translate(355.45 0.58) scale(12)" xlink:href="#b"/><use width="0.45" height="0.55" transform="translate(361.96 2.67) scale(12)" xlink:href="#e"/><use width="0.45" height="0.72" transform="translate(368.25 0.47) scale(12)" xlink:href="#d"/><use width="0.27" height="0.71" transform="translate(375.42 0.54) scale(12)" xlink:href="#r"/><use width="0.45" height="0.73" transform="translate(381.72 0.47) scale(12)" xlink:href="#bg"/><use width="0.32" height="0.76" transform="translate(388.27) scale(12)" xlink:href="#i"/><use width="0.32" height="0.76" transform="translate(392.39) scale(12)" xlink:href="#i"/><use width="0.45" height="0.73" transform="translate(396.83 0.47) scale(12)" xlink:href="#a"/><use width="0.48" height="0.71" transform="translate(403.37 0.59) scale(12)" xlink:href="#j"/><use width="0.27" height="0.71" transform="translate(410.66 0.54) scale(12)" xlink:href="#r"/><use width="0.14" height="0.25" transform="translate(416.58 7.83) scale(12)" xlink:href="#bm"/><use width="0.63" height="0.71" transform="translate(418.95 0.59) scale(12)" xlink:href="#bn"/><use width="0.63" height="0.71" transform="translate(426.83 0.59) scale(12)" xlink:href="#bn"/><use width="0.63" height="0.71" transform="translate(434.7 0.59) scale(12)" xlink:href="#bn"/><use width="0.63" height="0.71" transform="translate(442.58 0.59) scale(12)" xlink:href="#bn"/><use width="0.45" height="0.71" transform="translate(451.28 0.59) scale(12)" xlink:href="#br"/><use width="0.55" height="0.71" transform="translate(458.15 0.59) scale(12)" xlink:href="#bs"/><use width="0.45" height="0.53" transform="translate(465.91 2.78) scale(12)" xlink:href="#bt"/><use width="0.29" height="0.67" transform="translate(471.72 1.24) scale(12)" xlink:href="#bu"/><use width="0.48" height="0.71" transform="translate(476 0.59) scale(12)" xlink:href="#j"/><use width="0.45" height="0.55" transform="translate(482.83 2.67) scale(12)" xlink:href="#e"/><use width="0.52" height="0.71" transform="translate(489.52 0.59) scale(12)" xlink:href="#bx"/><use width="0.55" height="0.73" transform="translate(496.61 0.47) scale(12)" xlink:href="#by"/><use width="0.61" height="0.71" transform="translate(503.82 0.59) scale(12)" xlink:href="#bz"/><use width="0.74" height="0.54" transform="translate(512.09 2.67) scale(12)" xlink:href="#ca"/><use width="0.44" height="0.75" transform="translate(522.6 0.12) scale(12)" xlink:href="#cb"/><use width="0.44" height="0.55" transform="translate(528.54 2.67) scale(12)" xlink:href="#f"/><use width="0.57" height="0.84" transform="translate(535.04 0.47) scale(12)" xlink:href="#cd"/><use width="0.44" height="0.71" transform="translate(543.64 0.59) scale(12)" xlink:href="#ce"/><use width="0.09" height="0.75" transform="translate(550.19 0.12) scale(12)" xlink:href="#cf"/><use width="0.54" height="0.71" transform="translate(553.14 0.59) scale(12)" xlink:href="#cg"/><use width="0.09" height="0.75" transform="translate(560.56 0.12) scale(12)" xlink:href="#cf"/><use width="0.11" height="0.72" transform="translate(563.35 0.47) scale(12)" xlink:href="#ci"/><use width="0.55" height="0.71" transform="translate(565.69 0.59) scale(12)" xlink:href="#cj"/><use width="0.43" height="0.71" transform="translate(573.51 0.59) scale(12)" xlink:href="#ck"/><use width="0.45" height="0.73" transform="translate(579.57 0.47) scale(12)" xlink:href="#bg"/><use width="0.42" height="0.53" transform="translate(586.29 2.78) scale(12)" xlink:href="#cm"/><use width="0.43" height="0.71" transform="translate(592.76 0.59) scale(12)" xlink:href="#ck"/><use width="0.52" height="0.71" transform="translate(599.26 0.59) scale(12)" xlink:href="#bx"/><use width="0.42" height="0.53" transform="translate(606.16 2.78) scale(12)" xlink:href="#cm"/><use width="0.48" height="0.72" transform="translate(612.2 0.47) scale(12)" xlink:href="#au"/><use width="0.27" height="0.71" transform="translate(619.4 0.54) scale(12)" xlink:href="#r"/><use width="0.45" height="0.53" transform="translate(625.34 2.78) scale(12)" xlink:href="#cs"/><use width="0.52" height="0.73" transform="translate(631.5 0.47) scale(12)" xlink:href="#ct"/><use width="0.45" height="0.53" transform="translate(638.34 2.78) scale(12)" xlink:href="#cs"/><use width="0.2" height="0.93" transform="translate(643.63 0.47) scale(12)" xlink:href="#cv"/><use width="0.61" height="0.71" transform="translate(647.06 0.59) scale(12)" xlink:href="#bz"/><use width="0.45" height="0.76" transform="translate(655.34 0.12) scale(12)" xlink:href="#k"/><use width="0.48" height="0.71" transform="translate(661.73 0.59) scale(12)" xlink:href="#j"/><use width="0.51" height="0.71" transform="translate(669.01 0.59) scale(12)" xlink:href="#cz"/><use width="0.45" height="0.72" transform="translate(676.48 0.47) scale(12)" xlink:href="#d"/><use width="0.45" height="0.76" transform="translate(683.47 0.12) scale(12)" xlink:href="#k"/><use width="0.45" height="0.73" transform="translate(690.07 0.47) scale(12)" xlink:href="#a"/><use width="0.52" height="0.71" transform="translate(696.66 0.59) scale(12)" xlink:href="#dd"/><use width="0.51" height="0.71" transform="translate(704.39 0.59) scale(12)" xlink:href="#de"/><use width="0.57" height="0.71" transform="translate(711.37 0.59) scale(12)" xlink:href="#df"/><use width="0.51" height="0.71" transform="translate(718.83 0.59) scale(12)" xlink:href="#aa"/><use width="0.55" height="0.71" transform="translate(725.56 0.59) scale(12)" xlink:href="#cj"/><use width="0.42" height="0.55" transform="translate(732.95 2.67) scale(12)" xlink:href="#di"/><use width="0.48" height="0.71" transform="translate(739.63 0.59) scale(12)" xlink:href="#dj"/><use width="0.55" height="0.73" transform="translate(746.86 0.47) scale(12)" xlink:href="#dk"/><use width="0.42" height="0.54" transform="translate(755.08 2.78) scale(12)" xlink:href="#dl"/><use width="0.52" height="0.71" transform="translate(761.41 0.59) scale(12)" xlink:href="#dd"/><use width="0.48" height="0.55" transform="translate(768.7 2.67) scale(12)" xlink:href="#dn"/><use width="0.44" height="0.71" transform="translate(776.02 0.59) scale(12)" xlink:href="#ce"/><use width="0.55" height="0.71" transform="translate(782.65 0.59) scale(12)" xlink:href="#dp"/><use width="0.45" height="0.74" transform="translate(790.72 2.67) scale(12)" xlink:href="#dq"/><use width="0.44" height="0.71" transform="translate(798.02 0.59) scale(12)" xlink:href="#ce"/><use width="0.55" height="0.73" transform="translate(804.38 0.47) scale(12)" xlink:href="#dk"/><use width="0.45" height="0.76" transform="translate(812.35 0.12) scale(12)" xlink:href="#c"/><use width="0.45" height="0.73" transform="translate(819.2 0.47) scale(12)" xlink:href="#h"/><use width="0.45" height="0.55" transform="translate(825.85 2.67) scale(12)" xlink:href="#m"/><use width="0.63" height="0.71" transform="translate(831.85 0.59) scale(12)" xlink:href="#bn"/><use width="0.71" height="0.71" transform="translate(840.55 0.59) scale(12)" xlink:href="#dx"/><use width="0.54" height="0.71" transform="translate(851.05 0.59) scale(12)" xlink:href="#cg"/><use width="0.09" height="0.71" transform="translate(858.63 0.59) scale(12)" xlink:href="#dz"/><use width="0.45" height="0.55" transform="translate(861.36 2.67) scale(12)" xlink:href="#m"/><use width="0.09" height="0.75" transform="translate(868.1 0.12) scale(12)" xlink:href="#cf"/><use width="0.54" height="0.71" transform="translate(871.05 0.59) scale(12)" xlink:href="#cg"/><use width="0.45" height="0.53" transform="translate(877.76 2.78) scale(12)" xlink:href="#cs"/><use width="0.57" height="0.84" transform="translate(884.09 0.47) scale(12)" xlink:href="#cd"/><use width="0.41" height="0.28" transform="translate(892.59 3.41) scale(12)" xlink:href="#ef"/><use width="0.41" height="0.28" transform="translate(899.21 3.41) scale(12)" xlink:href="#ef"/><path d="M417.3,14.64v30.2" style="fill:none;stroke:#000;stroke-linejoin:round"/><path d="M.5,14.64v30.2" style="fill:none;stroke:#000;stroke-linejoin:round"/><path d="M902.31,14.64v30.2" style="fill:none;stroke:#000;stroke-linejoin:round"/><path d="M0,15.14H902.81" style="fill:none;stroke:#000;stroke-linejoin:round"/><path d="M0,44.34H902.81" style="fill:none;stroke:#000;stroke-linejoin:round"/><use width="0.45" height="0.55" transform="translate(106.59 26.08) scale(18)" xlink:href="#m"/><use width="0.42" height="0.54" transform="translate(116.52 26.08) scale(18)" xlink:href="#ei"/><use width="0.45" height="0.55" transform="translate(126.1 26.08) scale(18)" xlink:href="#e"/><use width="0.26" height="0.54" transform="translate(135.89 26.08) scale(18)" xlink:href="#ek"/><use width="0.45" height="0.74" transform="translate(140.98 26.25) scale(18)" xlink:href="#el"/><use width="0.45" height="0.74" transform="translate(150.51 26.08) scale(18)" xlink:href="#em"/><use width="0.29" height="0.67" transform="translate(159.49 23.94) scale(18)" xlink:href="#bu"/><use width="0.11" height="0.72" transform="translate(166.54 22.79) scale(18)" xlink:href="#ci"/><use width="0.48" height="0.55" transform="translate(170.47 26.08) scale(18)" xlink:href="#dn"/><use width="0.42" height="0.54" transform="translate(181.16 26.08) scale(18)" xlink:href="#ei"/><use transform="translate(189.93 35.76) scale(18)" xlink:href="#er"/><use width="0.42" height="0.55" transform="translate(195.26 26.08) scale(18)" xlink:href="#di"/><use width="0.11" height="0.72" transform="translate(204.92 22.79) scale(18)" xlink:href="#ci"/><use width="0.45" height="0.76" transform="translate(208.88 22.26) scale(18)" xlink:href="#c"/><use width="0.45" height="0.55" transform="translate(218.99 26.08) scale(18)" xlink:href="#m"/><use transform="translate(227.67 35.76) scale(18)" xlink:href="#er"/><use width="0.45" height="0.74" transform="translate(233.4 26.08) scale(18)" xlink:href="#em"/><use width="0.42" height="0.54" transform="translate(243.5 26.25) scale(18)" xlink:href="#dl"/><use width="0.45" height="0.76" transform="translate(253.41 22.26) scale(18)" xlink:href="#k"/><use width="0.09" height="0.75" transform="translate(263.68 22.26) scale(18)" xlink:href="#cf"/><use width="0.11" height="0.72" transform="translate(267.93 22.79) scale(18)" xlink:href="#ci"/><use width="0.45" height="0.55" transform="translate(271.87 26.08) scale(18)" xlink:href="#e"/><use transform="translate(280.42 35.76) scale(18)" xlink:href="#er"/><use width="0.44" height="0.75" transform="translate(286.16 22.26) scale(18)" xlink:href="#cb"/><use width="0.45" height="0.55" transform="translate(294.86 26.08) scale(18)" xlink:href="#m"/><use width="0.45" height="0.74" transform="translate(303.74 26.25) scale(18)" xlink:href="#el"/><use width="0.45" height="0.76" transform="translate(611.6 22.26) scale(18)" xlink:href="#k"/><use width="0.44" height="0.55" transform="translate(621.45 26.08) scale(18)" xlink:href="#f"/><use width="0.42" height="0.55" transform="translate(631.07 26.08) scale(18)" xlink:href="#di"/><use width="0.45" height="0.55" transform="translate(640.3 26.08) scale(18)" xlink:href="#m"/><use width="0.45" height="0.72" transform="translate(650.15 22.95) scale(18)" xlink:href="#b"/><use width="0.51" height="0.71" transform="translate(659.57 22.97) scale(18)" xlink:href="#aa"/><use transform="translate(669.23 35.76) scale(18)" xlink:href="#er"/><use width="0.45" height="0.76" transform="translate(674.58 22.26) scale(18)" xlink:href="#c"/><use width="0.44" height="0.55" transform="translate(684.83 26.08) scale(18)" xlink:href="#f"/><use width="0.29" height="0.67" transform="translate(693.69 23.94) scale(18)" xlink:href="#bu"/><use width="0.44" height="0.55" transform="translate(700.45 26.08) scale(18)" xlink:href="#f"/><path d="M71,165.92v53" style="fill:none;stroke:#000;stroke-linejoin:round"/><path d="M315,165.92v53" style="fill:none;stroke:#000;stroke-linejoin:round"/><path d="M501.1,165.92v53" style="fill:none;stroke:#000;stroke-linejoin:round"/><path d="M658.33,165.92v53" style="fill:none;stroke:#000;stroke-linejoin:round"/><path d="M0,166.42H902.81" style="fill:none;stroke:#000;stroke-linejoin:round"/><path d="M.5,131.42v87.5" style="fill:none;stroke:#000;stroke-linejoin:round"/><path d="M902.31,131.42v87.5" style="fill:none;stroke:#000;stroke-linejoin:round"/><path d="M0,218.42H902.81" style="fill:none;stroke:#000;stroke-linejoin:round"/><use width="0.51" height="0.71" transform="translate(32.68 145.55) scale(12)" xlink:href="#aa"/><use width="0.51" height="0.71" transform="translate(142.71 145.55) scale(12)" xlink:href="#de"/><use width="0.48" height="0.71" transform="translate(150.34 145.55) scale(12)" xlink:href="#dj"/><use width="0.54" height="0.71" transform="translate(157.84 145.55) scale(12)" xlink:href="#cg"/><use width="0.51" height="0.71" transform="translate(165.34 145.55) scale(12)" xlink:href="#cz"/><use width="0.44" height="0.71" transform="translate(173.22 145.55) scale(12)" xlink:href="#ce"/><use width="0.48" height="0.72" transform="translate(179.41 145.43) scale(12)" xlink:href="#au"/><use transform="translate(185.61 154.08) scale(12)" xlink:href="#er"/><use width="0.42" height="0.55" transform="translate(189.17 147.63) scale(12)" xlink:href="#di"/><use width="0.44" height="0.55" transform="translate(195.5 147.63) scale(12)" xlink:href="#f"/><use width="0.09" height="0.75" transform="translate(202.27 145.08) scale(12)" xlink:href="#cf"/><use width="0.29" height="0.67" transform="translate(204.28 146.2) scale(12)" xlink:href="#bu"/><use transform="translate(208.1 154.08) scale(12)" xlink:href="#er"/><use width="0.09" height="0.75" transform="translate(212.02 145.08) scale(12)" xlink:href="#cf"/><use width="0.45" height="0.55" transform="translate(214.52 147.63) scale(12)" xlink:href="#m"/><use width="0.42" height="0.54" transform="translate(221.18 147.63) scale(12)" xlink:href="#ei"/><use width="0.45" height="0.75" transform="translate(227.55 147.63) scale(12)" xlink:href="#gi"/><use width="0.29" height="0.67" transform="translate(233.78 146.2) scale(12)" xlink:href="#bu"/><use width="0.42" height="0.75" transform="translate(238.42 145.08) scale(12)" xlink:href="#gk"/><use width="0.27" height="0.71" transform="translate(402.28 145.5) scale(12)" xlink:href="#r"/><use width="0.48" height="0.72" transform="translate(408.58 145.43) scale(12)" xlink:href="#au"/><use width="0.45" height="0.53" transform="translate(558.97 147.74) scale(12)" xlink:href="#cs"/><use width="0.44" height="0.55" transform="translate(565.29 147.63) scale(12)" xlink:href="#f"/><use width="0.26" height="0.54" transform="translate(571.98 147.63) scale(12)" xlink:href="#ek"/><use width="0.11" height="0.72" transform="translate(576.11 145.43) scale(12)" xlink:href="#ci"/><use width="0.44" height="0.55" transform="translate(578.79 147.63) scale(12)" xlink:href="#f"/><use width="0.45" height="0.76" transform="translate(585.47 145.08) scale(12)" xlink:href="#k"/><use width="0.09" height="0.75" transform="translate(592.32 145.08) scale(12)" xlink:href="#cf"/><use width="0.45" height="0.55" transform="translate(594.82 147.63) scale(12)" xlink:href="#m"/><use width="0.27" height="0.71" transform="translate(774.57 145.5) scale(12)" xlink:href="#r"/><use width="0.45" height="0.72" transform="translate(781.1 145.54) scale(12)" xlink:href="#b"/><use width="0.51" height="0.71" transform="translate(3.54 181.79) scale(12)" xlink:href="#de"/><use width="0.48" height="0.71" transform="translate(11.17 181.79) scale(12)" xlink:href="#dj"/><use width="0.54" height="0.71" transform="translate(18.67 181.79) scale(12)" xlink:href="#cg"/><use width="0.51" height="0.71" transform="translate(26.18 181.79) scale(12)" xlink:href="#cz"/><use width="0.44" height="0.71" transform="translate(34.05 181.79) scale(12)" xlink:href="#ce"/><use width="0.48" height="0.72" transform="translate(40.24 181.67) scale(12)" xlink:href="#au"/><use transform="translate(46.44 190.32) scale(12)" xlink:href="#er"/><use width="0.42" height="0.55" transform="translate(50 183.87) scale(12)" xlink:href="#di"/><use width="0.44" height="0.55" transform="translate(56.33 183.87) scale(12)" xlink:href="#f"/><use width="0.09" height="0.75" transform="translate(63.1 181.32) scale(12)" xlink:href="#cf"/><use width="0.29" height="0.67" transform="translate(65.11 182.44) scale(12)" xlink:href="#bu"/><use transform="translate(68.93 190.32) scale(12)" xlink:href="#er"/><use width="0.09" height="0.75" transform="translate(20.09 196.44) scale(12)" xlink:href="#cf"/><use width="0.45" height="0.55" transform="translate(22.6 198.99) scale(12)" xlink:href="#m"/><use width="0.42" height="0.54" transform="translate(29.26 198.99) scale(12)" xlink:href="#ei"/><use width="0.45" height="0.75" transform="translate(35.63 198.99) scale(12)" xlink:href="#gi"/><use width="0.29" height="0.67" transform="translate(41.87 197.56) scale(12)" xlink:href="#bu"/><use width="0.42" height="0.75" transform="translate(46.51 196.44) scale(12)" xlink:href="#gk"/><use width="0.51" height="0.71" transform="translate(160.77 188.99) scale(12)" xlink:href="#de"/><use width="0.48" height="0.71" transform="translate(168.4 188.99) scale(12)" xlink:href="#dj"/><use width="0.54" height="0.71" transform="translate(175.9 188.99) scale(12)" xlink:href="#cg"/><use width="0.51" height="0.71" transform="translate(183.41 188.99) scale(12)" xlink:href="#cz"/><use width="0.44" height="0.71" transform="translate(191.28 188.99) scale(12)" xlink:href="#ce"/><use width="0.48" height="0.72" transform="translate(197.47 188.87) scale(12)" xlink:href="#au"/><use transform="translate(203.67 197.52) scale(12)" xlink:href="#er"/><use width="0.42" height="0.55" transform="translate(207.23 191.07) scale(12)" xlink:href="#di"/><use width="0.44" height="0.55" transform="translate(213.56 191.07) scale(12)" xlink:href="#f"/><use width="0.09" height="0.75" transform="translate(220.33 188.52) scale(12)" xlink:href="#cf"/><use width="0.29" height="0.67" transform="translate(222.34 189.64) scale(12)" xlink:href="#bu"/><use width="0.11" height="0.72" transform="translate(358.61 188.87) scale(12)" xlink:href="#ci"/><use width="0.42" height="0.54" transform="translate(361.48 191.07) scale(12)" xlink:href="#ei"/><use width="0.11" height="0.72" transform="translate(368.12 188.87) scale(12)" xlink:href="#ci"/><use width="0.29" height="0.67" transform="translate(370.21 189.64) scale(12)" xlink:href="#bu"/><use width="0.11" height="0.72" transform="translate(374.87 188.87) scale(12)" xlink:href="#ci"/><use width="0.44" height="0.55" transform="translate(377.55 191.07) scale(12)" xlink:href="#f"/><use width="0.09" height="0.75" transform="translate(384.32 188.52) scale(12)" xlink:href="#cf"/><use width="0.11" height="0.72" transform="translate(387.11 188.87) scale(12)" xlink:href="#ci"/><use width="0.42" height="0.53" transform="translate(389.68 191.18) scale(12)" xlink:href="#cm"/><use width="0.44" height="0.55" transform="translate(395.79 191.07) scale(12)" xlink:href="#f"/><use width="0.29" height="0.67" transform="translate(401.71 189.64) scale(12)" xlink:href="#bu"/><use width="0.11" height="0.72" transform="translate(406.36 188.87) scale(12)" xlink:href="#ci"/><use width="0.48" height="0.55" transform="translate(408.94 191.07) scale(12)" xlink:href="#dn"/><use width="0.42" height="0.54" transform="translate(416.1 191.07) scale(12)" xlink:href="#ei"/><use transform="translate(421.9 197.52) scale(12)" xlink:href="#er"/><use width="0.45" height="0.53" transform="translate(425.09 191.18) scale(12)" xlink:href="#cs"/><use width="0.45" height="0.55" transform="translate(431.32 191.07) scale(12)" xlink:href="#m"/><use width="0.45" height="0.55" transform="translate(437.7 191.07) scale(12)" xlink:href="#e"/><use width="0.29" height="0.67" transform="translate(443.45 189.64) scale(12)" xlink:href="#bu"/><use width="0.48" height="0.55" transform="translate(447.81 191.07) scale(12)" xlink:href="#dn"/><use width="0.26" height="0.54" transform="translate(454.97 191.07) scale(12)" xlink:href="#ek"/><use width="0.45" height="0.55" transform="translate(512.39 191.07) scale(12)" xlink:href="#m"/><use width="0.42" height="0.54" transform="translate(519.04 191.07) scale(12)" xlink:href="#ei"/><use width="0.45" height="0.55" transform="translate(525.39 191.07) scale(12)" xlink:href="#e"/><use width="0.26" height="0.54" transform="translate(531.92 191.07) scale(12)" xlink:href="#ek"/><use width="0.45" height="0.74" transform="translate(535.36 191.18) scale(12)" xlink:href="#el"/><use width="0.45" height="0.74" transform="translate(541.67 191.07) scale(12)" xlink:href="#em"/><use width="0.29" height="0.67" transform="translate(547.65 189.64) scale(12)" xlink:href="#bu"/><use width="0.45" height="0.55" transform="translate(552.02 191.07) scale(12)" xlink:href="#m"/><use width="0.45" height="0.76" transform="translate(558.4 188.52) scale(12)" xlink:href="#c"/><use transform="translate(564.59 197.52) scale(12)" xlink:href="#er"/><use width="0.45" height="0.76" transform="translate(568.41 188.52) scale(12)" xlink:href="#k"/><use width="0.11" height="0.72" transform="translate(575.17 188.87) scale(12)" xlink:href="#ci"/><use width="0.42" height="0.54" transform="translate(578.04 191.07) scale(12)" xlink:href="#ei"/><use width="0.44" height="0.55" transform="translate(584.48 191.07) scale(12)" xlink:href="#f"/><use width="0.26" height="0.54" transform="translate(591.16 191.07) scale(12)" xlink:href="#ek"/><use width="0.45" height="0.74" transform="translate(594.59 191.18) scale(12)" xlink:href="#el"/><use transform="translate(600.08 197.52) scale(12)" xlink:href="#er"/><use width="0.48" height="0.55" transform="translate(603.62 191.07) scale(12)" xlink:href="#dn"/><use width="0.32" height="0.76" transform="translate(610.32 188.4) scale(12)" xlink:href="#i"/><use transform="translate(614.08 197.52) scale(12)" xlink:href="#er"/><use width="0.42" height="0.55" transform="translate(617.64 191.07) scale(12)" xlink:href="#di"/><use width="0.29" height="0.67" transform="translate(623.39 189.64) scale(12)" xlink:href="#bu"/><use width="0.26" height="0.54" transform="translate(628.04 191.07) scale(12)" xlink:href="#ek"/><use width="0.11" height="0.72" transform="translate(632.18 188.87) scale(12)" xlink:href="#ci"/><use width="0.42" height="0.54" transform="translate(635.04 191.07) scale(12)" xlink:href="#ei"/><use width="0.45" height="0.75" transform="translate(641.41 191.07) scale(12)" xlink:href="#gi"/><use width="0.44" height="0.55" transform="translate(732.71 191.07) scale(12)" xlink:href="#f"/><use width="0.42" height="0.54" transform="translate(739.37 191.18) scale(12)" xlink:href="#dl"/><use width="0.29" height="0.67" transform="translate(745.24 189.64) scale(12)" xlink:href="#bu"/><use width="0.42" height="0.75" transform="translate(749.89 188.52) scale(12)" xlink:href="#gk"/><use width="0.45" height="0.55" transform="translate(756.23 191.07) scale(12)" xlink:href="#m"/><use width="0.42" height="0.54" transform="translate(762.89 191.07) scale(12)" xlink:href="#ei"/><use width="0.29" height="0.67" transform="translate(768.74 189.64) scale(12)" xlink:href="#bu"/><use width="0.11" height="0.72" transform="translate(773.39 188.87) scale(12)" xlink:href="#ci"/><use width="0.45" height="0.55" transform="translate(775.98 191.07) scale(12)" xlink:href="#e"/><use width="0.44" height="0.55" transform="translate(782.32 191.07) scale(12)" xlink:href="#f"/><use width="0.29" height="0.67" transform="translate(788.23 189.64) scale(12)" xlink:href="#bu"/><use width="0.11" height="0.72" transform="translate(792.89 188.87) scale(12)" xlink:href="#ci"/><use width="0.48" height="0.55" transform="translate(795.47 191.07) scale(12)" xlink:href="#dn"/><use width="0.42" height="0.54" transform="translate(802.63 191.07) scale(12)" xlink:href="#ei"/><use transform="translate(808.42 197.52) scale(12)" xlink:href="#er"/><use width="0.29" height="0.67" transform="translate(811.47 189.64) scale(12)" xlink:href="#bu"/><use width="0.44" height="0.55" transform="translate(815.93 191.07) scale(12)" xlink:href="#f"/><use width="0.45" height="0.75" transform="translate(822.36 191.07) scale(12)" xlink:href="#gi"/><path d="M417.6,44.34.5,131.42" style="fill:none;stroke:#000;stroke-miterlimit:10"/><path d="M902.31,44.34v87.08" style="fill:none;stroke:#000;stroke-miterlimit:10"/></svg>