<svg id="Layer_2" data-name="Layer 2" xmlns="http://www.w3.org/2000/svg" viewBox="0 0 342 342"><defs></defs><rect class="cls-1" width="342" height="342" rx="36.96"/><rect class="cls-2" x="31.5" y="31.5" width="279" height="279" rx="16.64"/><path class="cls-3" d="M171,72a99,99,0,1,0,99,99,99,99,0,0,0-99-99m0,168.3A69.3,69.3,0,1,1,240.3,171,69.3,69.3,0,0,1,171,240.3"/><path class="cls-4" d="M233.81,122.26l4-4a9.95,9.95,0,1,0-14.07-14.07l-4,4a79.73,79.73,0,0,1,14.07,14.07m-125.62,0a80.41,80.41,0,0,1,14.07-14.07l-4-4a9.95,9.95,0,1,0-14.07,14.07ZM91.42,171a79.8,79.8,0,0,1,.68-9.95H86.45a9.95,9.95,0,0,0,0,19.9H92.1a79.8,79.8,0,0,1-.68-9.95M171,91.42a79.8,79.8,0,0,1,9.95.69V86.45a10,10,0,1,0-19.9,0v5.66a79.8,79.8,0,0,1,9.95-.69m62.81,128.32a80.41,80.41,0,0,1-14.07,14.07l4,4a9.95,9.95,0,0,0,14.07-14.07Zm-125.62,0-4,4a9.95,9.95,0,0,0,14.07,14.07l4-4a79.73,79.73,0,0,1-14.07-14.07m147.36-58.69H249.9a73.14,73.14,0,0,1,0,19.9h5.65a9.95,9.95,0,0,0,0-19.9M171,250.58a79.8,79.8,0,0,1-9.95-.69v5.66a9.95,9.95,0,0,0,19.9,0v-5.66a79.8,79.8,0,0,1-9.95.69"/></svg>