<svg xmlns="http://www.w3.org/2000/svg" viewBox="0 0 4432.59 1191.04"><defs><style>.a{fill:#666;}.b{fill:#78909c;}.c{fill:#90a4ae;}.d{fill:#37474f;}.e{fill:#b0bec5;}.f{fill:#76d275;}.g{fill:#43a047;}</style></defs><title>logo-tilted-with-text</title><polygon class="a" points="433.31 854.66 36.76 391.07 0.03 394.28 437.8 906.08 780.05 326.04 743.32 329.25 433.31 854.66"/><polygon class="a" points="431.52 834.24 173.15 379.14 140.29 382.01 437.8 906.08 639.8 338.31 606.93 341.19 431.52 834.24"/><polygon class="a" points="422.21 727.84 327.51 365.63 297.19 368.29 437.8 906.08 482.89 352.04 452.58 354.69 422.21 727.84"/><rect class="b" x="505.61" y="888.59" width="342" height="342" rx="36.96" transform="translate(-319.59 12.28) rotate(-5)"/><rect class="c" x="537.11" y="920.09" width="279" height="279" rx="16.64" transform="matrix(1, -0.09, 0.09, 1, -319.59, 12.28)"/><path class="d" d="M668,961a99,99,0,1,0,107.25,90A99,99,0,0,0,668,961m14.66,167.66a69.3,69.3,0,1,1,63-75.07,69.29,69.29,0,0,1-63,75.07" transform="translate(-229.82 -50.72)"/><path class="e" d="M734.93,1005.56l3.64-4.34a9.94,9.94,0,1,0-15.24-12.78l-3.63,4.33a79.34,79.34,0,0,1,15.23,12.79M609.8,1016.5a80,80,0,0,1,12.78-15.23l-4.33-3.64a9.95,9.95,0,0,0-12.79,15.24Zm-12.46,50a79.28,79.28,0,0,1-.2-10l-5.62.5a9.94,9.94,0,1,0,1.73,19.81l5.63-.49a79.27,79.27,0,0,1-1.54-9.85m72.34-86.21a79.24,79.24,0,0,1,10-.18l-.5-5.64a9.95,9.95,0,0,0-19.82,1.73l.5,5.64a79.28,79.28,0,0,1,9.85-1.55m73.75,122.36a79.71,79.71,0,0,1-12.79,15.24l4.34,3.63a9.94,9.94,0,1,0,12.78-15.24Zm-125.14,10.95-3.63,4.33a9.95,9.95,0,0,0,15.24,12.79l3.63-4.34a79.41,79.41,0,0,1-15.24-12.78M760,1042.31l-5.63.49a79.27,79.27,0,0,1,1.54,9.85,81.2,81.2,0,0,1,.19,10l5.63-.49a9.95,9.95,0,0,0-1.73-19.82m-76.43,96.55a79.26,79.26,0,0,1-10,.19l.49,5.63a9.95,9.95,0,1,0,19.82-1.73l-.49-5.64a79.57,79.57,0,0,1-9.85,1.55" transform="translate(-229.82 -50.72)"/><path class="f" d="M1009.87,376.76C977.35,177.51,794.66,34.21,588.48,52.25S227.27,243.13,229.85,445Z" transform="translate(-229.82 -50.72)"/><path class="g" d="M854.56,390.35C813.75,69.42,588.48,52.25,588.48,52.25c69.27,57.48,100.16,273.12,109.29,351.81Z" transform="translate(-229.82 -50.72)"/><path class="g" d="M542,417.7c-4.67-79.09-11.7-296.82,46.53-365.45,0,0-218.86,56-203.32,379.16Z" transform="translate(-229.82 -50.72)"/><path d="M1437.12,780.39q0-36-25.78-56.84t-90.82-39q-65-18.17-102.25-44.68T1181.06,563q0-49.21,40.14-79.69t103.13-30.47q67.38,0,106.78,37.06t39.41,90.38h-36q0-41.89-29-69.28t-81.15-27.4q-53,0-80,23.29t-26.95,55.23q0,30.18,23.88,51.42t91.4,39.69q67.53,18.46,104.16,46.73t36.62,79.83q0,52.16-41.46,81.74t-105.32,29.59A219,219,0,0,1,1252,878q-36.63-13.19-60.64-41.31t-24-73.24h36.33q0,36,18.61,57.27t46.87,30.62a181.81,181.81,0,0,0,57.57,9.37q50.38,0,80.42-22.11T1437.12,780.39Z" transform="translate(-229.82 -50.72)"/><path d="M1777.84,834.88q-15.52,23.14-42.77,39.7t-69.73,16.55q-61.81,0-101.95-43.65t-40.14-111.91V723q0-73.25,40.87-116.9t95.07-43.65q60.35,0,92.87,40.87t32.52,104.15v21.39H1558.41v6.74q0,52.44,30,89.21t78.37,36.76q55.95,0,88.77-43.36ZM1659.19,592.3q-40.14,0-66.94,29.3T1559.87,699h189.55v-3.81q-.87-39.84-23.29-71.34T1659.19,592.3Z" transform="translate(-229.82 -50.72)"/><path d="M1970.32,861.25q33.11,0,59.33-18.9t28.85-55.22h33.4q-2.34,45.4-37.79,74.71t-83.79,29.29q-66.21,0-100.49-45T1835,735V720.63q0-66.81,34.28-112.5t100.49-45.71q51,0,85.4,30.47t36.76,82h-33.4q-2.34-38.37-27.53-60.5t-61.23-22.12q-54.21,0-77.06,39t-22.85,89.36v12.3q0,50.69,22.85,89.5T1970.32,861.25Z" transform="translate(-229.82 -50.72)"/><path d="M2285.26,595.82q-35.45,0-57.27,19.78t-30.62,51.12V885.27h-35.15v-317h34.27l.88,49.51q28.13-55.37,89.06-55.37,14.07,0,23.44,3.52l-1.17,31.93A164.08,164.08,0,0,0,2285.26,595.82Z" transform="translate(-229.82 -50.72)"/><path d="M2594.05,834.88q-15.53,23.14-42.77,39.7t-69.73,16.55q-61.82,0-102-43.65t-40.14-111.91V723q0-73.25,40.87-116.9t95.07-43.65q60.34,0,92.87,40.87t32.52,104.15v21.39H2374.62v6.74q0,52.44,30,89.21T2483,861.54q56,0,88.77-43.36ZM2475.4,592.3q-40.14,0-66.94,29.3T2376.08,699h189.55v-3.81q-.87-39.84-23.29-71.34T2475.4,592.3Z" transform="translate(-229.82 -50.72)"/><path d="M2795,886.45q-13.49,4.68-37.5,4.68-30.48,0-49.81-17.72t-19.33-65.48V597h-58V568.28h58V486.84h35.45v81.44h65.33V597h-65.33V807.93q0,33.41,12.45,42.92a45.73,45.73,0,0,0,28.56,9.52q11.71,0,28.71-3.22Z" transform="translate(-229.82 -50.72)"/><path d="M2870.61,885.27V458.71h119.24q79.7,0,130.81,53t51.13,140.62v39.26q0,87.9-51.13,140.77t-133.44,52.88Zm36-395.8V854.8h80.57q68.55,0,108.69-45.26T3136,691.62V651.78q0-73.83-40.13-118.07t-106.06-44.24Z" transform="translate(-229.82 -50.72)"/><path d="M3378.33,595.82q-35.46,0-57.28,19.78t-30.61,51.12V885.27h-35.16v-317h34.28l.88,49.51q28.13-55.37,89.06-55.37,14.07,0,23.44,3.52l-1.17,31.93A164.32,164.32,0,0,0,3378.33,595.82Z" transform="translate(-229.82 -50.72)"/><path d="M3432.53,722.09q0-69.14,38.67-114.4t102.54-45.27q64.16,0,102.54,44.39t39.26,112.35v12.31q0,69.42-38.53,114.55t-102.68,45.11q-64.47,0-103.13-45.11t-38.67-114.55Zm35.15,9.38q0,52.44,27.4,91.11t79.25,38.67q51.26,0,78.66-38.67t27.39-91.11v-9.38q0-51.27-27.54-90.53t-79.1-39.26q-51.27,0-78.66,39.26t-27.4,90.82Z" transform="translate(-229.82 -50.72)"/><path d="M3922.08,891.13q-64.76,0-99.32-46v162h-35.15V568.28h32.81l1.76,44.83q34-50.68,99.31-50.69,58,0,89.8,43.8t31.79,117.63V730q0,70.9-31.79,116T3922.08,891.13Zm-8.5-298.24q-37.78,0-59.18,18.31t-31.64,42V806.17a101.49,101.49,0,0,0,33.69,39.41q22.26,15.67,57.72,15.67,47.74,0,70.75-37.94t23-93.31v-6.15q0-55.38-23-93.17T3913.58,592.89Z" transform="translate(-229.82 -50.72)"/><path d="M4117.49,863.89q0-24.32,24.61-24.32,25.18,0,25.19,24.32,0,24-25.19,24Q4117.48,887.91,4117.49,863.89Z" transform="translate(-229.82 -50.72)"/><path d="M4261.63,476.58q0-23.73,24-23.73,24.32,0,24.32,23.73,0,23.15-24.32,23.15Q4261.64,499.73,4261.63,476.58Zm41.31,91.7v317h-34.86v-317Z" transform="translate(-229.82 -50.72)"/><path d="M4379.4,722.09q0-69.14,38.68-114.4t102.53-45.27q64.17,0,102.54,44.39t39.26,112.35v12.31q0,69.42-38.52,114.55T4521.2,891.13q-64.46,0-103.12-45.11T4379.4,731.47Zm35.16,9.38q0,52.44,27.39,91.11t79.25,38.67q51.27,0,78.66-38.67t27.39-91.11v-9.38q0-51.27-27.53-90.53t-79.11-39.26q-51.27,0-78.66,39.26t-27.39,90.82Z" transform="translate(-229.82 -50.72)"/></svg>