<?xml version="1.0" encoding="utf-8"?>
<!-- Generator: Adobe Illustrator 24.2.3, SVG Export Plug-In . SVG Version: 6.00 Build 0)  -->
<svg version="1.1" id="Layer_1" xmlns="http://www.w3.org/2000/svg" xmlns:xlink="http://www.w3.org/1999/xlink" x="0px" y="0px"
	 viewBox="0 0 904.1 218.9" style="enable-background:new 0 0 904.1 218.9;" xml:space="preserve">
<style type="text/css">
	.st0{fill:none;stroke:#000000;stroke-linejoin:round;stroke-miterlimit:10;}
	.st1{fill:none;stroke:#000000;stroke-miterlimit:10;}
</style>
<symbol  id="font_1_1" viewBox="0 0 0 0">
	<path d="M0,0"/>
</symbol>
<symbol  id="font_1_10" viewBox="-0.3 -0.4 0.5 0.7">
	<path d="M0.2-0.1L0.2-0.1c0.1-0.1,0.1-0.1,0-0.2S0.1-0.4,0-0.4c-0.1,0-0.1,0-0.2,0.1C-0.2-0.2-0.3-0.1-0.3,0V0c0,0.1,0,0.2,0.1,0.2
		C-0.1,0.3-0.1,0.4,0,0.4c0.1,0,0.1,0,0.2-0.1s0.1-0.1,0.1-0.2H0.2c0,0,0,0.1,0,0.1c0,0-0.1,0-0.1,0c-0.1,0-0.1,0-0.1-0.1
		s0-0.1,0-0.2V0c0-0.1,0-0.1,0-0.2c0,0,0.1-0.1,0.1-0.1c0.1,0,0.1,0,0.1,0C0.2-0.2,0.2-0.2,0.2-0.1z"/>
</symbol>
<symbol  id="font_1_11" viewBox="-0.3 -0.4 0.5 0.7">
	<path d="M-0.3-0.4v0.7h0.2c0.1,0,0.2,0,0.2-0.1C0.2,0.2,0.3,0.1,0.3,0v0c0-0.1,0-0.2-0.1-0.2C0.1-0.3,0-0.4-0.1-0.4H-0.3 M-0.2,0.3
		v-0.6h0.1c0.1,0,0.1,0,0.2,0.1S0.2-0.1,0.2,0v0c0,0.1,0,0.1-0.1,0.2S0,0.3-0.1,0.3H-0.2z"/>
</symbol>
<symbol  id="font_1_12" viewBox="-0.2 -0.4 0.5 0.7">
	<path d="M-0.2-0.4v0.7h0.4V0.3h-0.4V0h0.3V0h-0.3L-0.2-0.4l0.5,0.1v-0.1H-0.2z"/>
</symbol>
<symbol  id="font_1_13" viewBox="-0.2 -0.4 0.4 0.7">
	<path d="M-0.2-0.4v0.7h0.4V0.3h-0.3V0h0.3V0h-0.3L-0.2-0.4L-0.2-0.4z"/>
</symbol>
<symbol  id="font_1_14" viewBox="-0.3 -0.4 0.5 0.7">
	<path d="M0.3,0v-0.3c0,0,0,0-0.1-0.1s-0.1,0-0.2,0c-0.1,0-0.2,0-0.2,0.1C-0.2-0.2-0.3-0.1-0.3,0V0c0,0.1,0,0.2,0.1,0.2
		S-0.1,0.4,0,0.4c0.1,0,0.1,0,0.2-0.1c0,0,0.1-0.1,0.1-0.2H0.2c0,0,0,0.1,0,0.1c0,0-0.1,0-0.1,0c-0.1,0-0.1,0-0.1-0.1
		c0,0,0-0.1,0-0.2V0c0-0.1,0-0.1,0.1-0.2c0,0,0.1-0.1,0.1-0.1c0.1,0,0.1,0,0.1,0c0,0,0,0,0,0L0.3,0L0-0.1V0H0.3z"/>
</symbol>
<symbol  id="font_1_15" viewBox="-0.3 -0.4 0.5 0.7">
	<path d="M0.2-0.4V0h-0.4v-0.3h-0.1v0.7h0.1V0h0.4v0.3h0.1L0.2-0.4L0.2-0.4z"/>
</symbol>
<symbol  id="font_1_16" viewBox="0 -0.4 0.1 0.7">
	<path d="M0,0.4v-0.7H0L0,0.4L0,0.4z"/>
</symbol>
<symbol  id="font_1_17" viewBox="-0.3 -0.4 0.5 0.7">
	<path d="M0.2-0.4L-0.1,0l-0.1-0.1v-0.2h-0.1v0.7h0.1V0l0.3,0.4h0.1L0,0l0.3-0.4H0.2z"/>
</symbol>
<symbol  id="font_1_18" viewBox="-0.2 -0.4 0.4 0.7">
	<path d="M0.2-0.3L0.2-0.3l-0.4-0.1v0.7h0.1v-0.6H0.2z"/>
</symbol>
<symbol  id="font_1_19" viewBox="-0.4 -0.4 0.7 0.7">
	<path d="M0-0.2l0.2,0.6h0.1v-0.7H0.3v0.3l0,0.3L0-0.4H0l-0.2,0.6l0-0.3v-0.3h-0.1v0.7h0.1L0-0.2z"/>
</symbol>
<symbol  id="font_1_1a" viewBox="-0.3 -0.4 0.5 0.7">
	<path d="M0.3,0.4v-0.7H0.2l-0.4,0.5v-0.5h-0.1v0.7h0.1l0.4-0.5L0.3,0.4L0.3,0.4z"/>
</symbol>
<symbol  id="font_1_1b" viewBox="-0.3 -0.4 0.5 0.7">
	<path d="M-0.2-0.1v-0.3h-0.1v0.7H0c0.1,0,0.1,0,0.2-0.1c0,0,0.1-0.1,0.1-0.2c0-0.1,0-0.1-0.1-0.2c0,0-0.1-0.1-0.2-0.1H-0.2
		 M-0.2,0.3V0H0c0.1,0,0.1,0,0.1,0s0,0.1,0,0.1c0,0,0,0.1,0,0.1s-0.1,0-0.1,0H-0.2z"/>
</symbol>
<symbol  id="font_1_1c" viewBox="-0.3 -0.4 0.6 0.8">
	<path d="M0.3-0.4L0.3-0.4L0.1-0.3c0,0,0,0-0.1,0c-0.1,0-0.2,0-0.2,0.1S-0.3-0.1-0.3,0v0c0,0.1,0,0.2,0.1,0.3
		C-0.2,0.4-0.1,0.4,0,0.4c0.1,0,0.2,0,0.2-0.1c0.1-0.1,0.1-0.1,0.1-0.2V0c0-0.1,0-0.1,0-0.2c0,0-0.1-0.1-0.1-0.1L0.3-0.4 M0.2,0.1
		c0,0.1,0,0.1-0.1,0.2S0.1,0.3,0,0.3c-0.1,0-0.1,0-0.1-0.1c0,0-0.1-0.1-0.1-0.2v0c0-0.1,0-0.2,0.1-0.2c0,0,0.1-0.1,0.1-0.1
		c0.1,0,0.1,0,0.1,0.1C0.2-0.1,0.2-0.1,0.2,0.1L0.2,0.1z"/>
</symbol>
<symbol  id="font_1_1d" viewBox="-0.3 -0.4 0.5 0.7">
	<path d="M0.2-0.4L0-0.1h-0.2v-0.3h-0.1v0.7H0c0.1,0,0.1,0,0.2-0.1c0,0,0.1-0.1,0.1-0.2c0,0,0-0.1,0-0.1C0.2,0,0.1,0,0.1,0l0.2-0.3
		v0H0.2 M-0.2,0.3V0H0C0,0,0.1,0,0.1,0c0,0,0,0.1,0,0.1c0,0,0,0.1,0,0.1c0,0-0.1,0-0.1,0H-0.2z"/>
</symbol>
<symbol  id="font_1_1e" viewBox="-0.3 -0.4 0.5 0.7">
	<path d="M0.2-0.2C0.2-0.1,0.2-0.1,0.2-0.2C0.1-0.1,0.1-0.1,0,0C-0.1,0-0.1,0-0.2,0c0,0-0.1,0.1-0.1,0.1c0,0.1,0,0.1,0.1,0.1
		c0,0,0.1,0.1,0.2,0.1c0.1,0,0.1,0,0.2-0.1c0,0,0.1-0.1,0.1-0.1H0.2c0,0,0,0.1,0,0.1s-0.1,0-0.1,0c-0.1,0-0.1,0-0.1,0c0,0,0,0,0-0.1
		c0,0,0-0.1,0-0.1c0,0,0.1,0,0.1-0.1C0.1,0,0.2,0,0.2,0C0.2-0.1,0.3-0.1,0.2-0.2c0.1-0.1,0.1-0.1,0-0.1S0.1-0.4,0-0.4
		c0,0-0.1,0-0.1,0c0,0-0.1,0-0.1,0.1c0,0,0,0.1,0,0.1h0.1c0,0,0-0.1,0.1-0.1s0.1,0,0.1,0C0.1-0.3,0.1-0.3,0.2-0.2
		C0.2-0.2,0.2-0.2,0.2-0.2z"/>
</symbol>
<symbol  id="font_1_1f" viewBox="-0.3 -0.4 0.5 0.7">
	<path d="M-0.3,0.3L-0.3,0.3l0.5,0.1V0.3H0v-0.6H0v0.6H-0.3z"/>
</symbol>
<symbol  id="font_1_2" viewBox="-0.1 -0.1 0.1 0.2">
	<path d="M0.1,0.1L0.1,0.1C0.1,0,0.1,0,0,0c0,0,0-0.1-0.1-0.1l-0.1,0C0,0,0,0,0.1,0.1L0.1,0.1L0.1,0.1z"/>
</symbol>
<symbol  id="font_1_20" viewBox="-0.3 -0.4 0.6 0.7">
	<path d="M0.3,0.4L0-0.4H0l-0.3,0.7h0.1L0-0.2l0.2,0.6H0.3z"/>
</symbol>
<symbol  id="font_1_21" viewBox="-0.3 -0.4 0.6 0.7">
	<path d="M-0.2,0.4L0,0.1l0.2,0.3h0.1L0.1,0l0.2-0.4H0.2L0-0.1l-0.2-0.3h-0.1L-0.1,0l-0.2,0.4H-0.2z"/>
</symbol>
<symbol  id="font_1_22" viewBox="-0.3 -0.4 0.5 0.7">
	<path d="M-0.3,0.3L-0.3,0.3l0.5,0.1V0.3l-0.4-0.6h0.4v-0.1h-0.5v0.1l0.4,0.6H-0.3z"/>
</symbol>
<symbol  id="font_1_23" viewBox="-0.2 -0.3 0.4 0.5">
	<path d="M0.1-0.3C0.1-0.3,0.1-0.2,0.1-0.3C0.1-0.2,0.1-0.2,0.1-0.3C0-0.3,0-0.3,0-0.3c-0.1,0-0.1,0-0.1,0s0,0.1,0,0.1
		c0,0.1,0,0.1,0.1,0.1c0,0,0.1,0,0.2,0h0.1v0c0,0,0,0.1,0,0.1c0,0,0,0-0.1,0c0,0-0.1,0-0.1,0c0,0,0,0,0-0.1h-0.1c0,0,0,0.1,0.1,0.1
		s0.1,0,0.2,0c0.1,0,0.1,0,0.1,0s0.1-0.1,0.1-0.1v-0.2C0.2-0.2,0.2-0.2,0.1-0.3L0.1-0.3L0.1-0.3 M0-0.2C0-0.2,0-0.2,0-0.2
		c0.1,0,0.1,0.1,0.1,0.1V0H0c-0.1,0-0.2,0-0.2-0.1C-0.1-0.1-0.1-0.2,0-0.2C-0.1-0.2-0.1-0.2,0-0.2z"/>
</symbol>
<symbol  id="font_1_24" viewBox="-0.2 -0.4 0.4 0.8">
	<path d="M0.2-0.1c0-0.1,0-0.1-0.1-0.2S0.1-0.4,0-0.4c-0.1,0-0.1,0-0.2,0.1l0-0.1h-0.1v0.8h0.1V0.1c0,0,0.1,0.1,0.2,0.1
		c0.1,0,0.1,0,0.2-0.1C0.2,0,0.2,0,0.2-0.1L0.2-0.1 M0,0.1C0,0.1-0.1,0.1,0,0.1C-0.1,0.1-0.1,0-0.1,0v-0.2c0,0,0,0,0-0.1s0,0,0.1,0
		c0,0,0.1,0,0.1,0.1c0,0,0,0.1,0,0.1v0c0,0.1,0,0.1,0,0.1C0.1,0.1,0,0.1,0,0.1z"/>
</symbol>
<symbol  id="font_1_25" viewBox="-0.2 -0.3 0.4 0.5">
	<path d="M0-0.2C0-0.2,0.1-0.2,0-0.2c0.1,0,0.1,0.1,0.1,0.1h0.1c0,0,0-0.1-0.1-0.1C0.1-0.3,0.1-0.3,0-0.2c-0.1-0.1-0.1,0-0.2,0
		c0,0.1-0.1,0.1-0.1,0.2v0c0,0.1,0,0.1,0.1,0.2c0,0.1,0.1,0.1,0.2,0.1c0.1,0,0.1,0,0.1-0.1c0,0,0.1-0.1,0.1-0.1H0.1c0,0,0,0.1,0,0.1
		c0,0-0.1,0-0.1,0c0,0-0.1,0-0.1,0c0,0,0,0,0-0.1c0,0,0-0.1,0-0.1v0c0,0,0-0.1,0-0.1S-0.1-0.2,0-0.2C-0.1-0.2,0-0.2,0-0.2z"/>
</symbol>
<symbol  id="font_1_26" viewBox="-0.2 -0.4 0.4 0.8">
	<path d="M0.1-0.4L0.1-0.4c0,0-0.1,0-0.2,0c-0.1,0-0.1,0-0.1,0.1s-0.1,0.1-0.1,0.2v0c0,0.1,0,0.1,0.1,0.2c0,0,0.1,0.1,0.2,0.1
		c0.1,0,0.1,0,0.1-0.1v0.3h0.1L0.1-0.4L0.1-0.4 M-0.1-0.1c0-0.1,0-0.1,0-0.1c0,0,0.1-0.1,0.1-0.1c0.1,0,0.1,0,0.1,0.1V0
		c0,0.1-0.1,0.1-0.1,0.1c0,0-0.1,0-0.1-0.1C-0.1,0-0.1,0-0.1-0.1L-0.1-0.1z"/>
</symbol>
<symbol  id="font_1_27" viewBox="-0.2 -0.3 0.4 0.5">
	<path d="M0.2-0.2C0.2-0.2,0.2-0.2,0.2-0.2C0.1-0.3,0.1-0.3,0-0.3c-0.1,0-0.1,0-0.2,0.1c0,0-0.1,0.1-0.1,0.2v0c0,0.1,0,0.1,0,0.1
		c0,0,0.1,0.1,0.1,0.1c0,0,0.1,0,0.1,0c0.1,0,0.1,0,0.2-0.1c0,0,0.1-0.1,0.1-0.2v0h-0.4c0,0,0-0.1,0-0.1c0,0,0.1-0.1,0.1-0.1
		c0,0,0.1,0,0.1,0S0.1-0.2,0.2-0.2L0.2-0.2 M0,0.2C0,0.2-0.1,0.2,0,0.2C-0.1,0.1-0.1,0.1-0.1,0h0.3v0C0.1,0.1,0.1,0.1,0,0.2
		C0.1,0.2,0.1,0.2,0,0.2z"/>
</symbol>
<symbol  id="font_1_28" viewBox="-0.2 -0.4 0.3 0.8">
	<path d="M0.1,0.1H0v-0.5h-0.1v0.5h-0.1v0.1h0.1v0.1c0,0.1,0,0.1,0,0.1c0,0,0.1,0,0.1,0c0,0,0,0,0.1,0l0-0.1c0,0,0,0,0,0
		C0,0.3,0,0.3,0,0.2V0.1L0.1,0.1L0.1,0.1z"/>
</symbol>
<symbol  id="font_1_29" viewBox="-0.2 -0.4 0.4 0.7">
	<path d="M0-0.4c0,0-0.1,0-0.1,0s-0.1,0-0.1,0.1l0,0.1C-0.1-0.3-0.1-0.3,0-0.4c0,0.1,0.1,0.1,0.1,0.1c0,0,0,0.1,0,0.1v0
		c0,0-0.1-0.1-0.1-0.1c-0.1,0-0.1,0-0.2,0.1S-0.2,0-0.2,0.1v0c0,0.1,0,0.1,0.1,0.2c0,0,0.1,0.1,0.2,0.1c0.1,0,0.1,0,0.2-0.1l0,0.1
		h0.1v-0.5c0-0.1,0-0.1-0.1-0.2C0.1-0.4,0.1-0.4,0-0.4 M-0.1,0.1c0-0.1,0-0.1,0-0.1c0,0,0.1-0.1,0.1-0.1c0.1,0,0.1,0,0.1,0.1v0.2
		c0,0,0,0,0,0.1c0,0,0,0-0.1,0c0,0-0.1,0-0.1-0.1C-0.1,0.2-0.1,0.2-0.1,0.1L-0.1,0.1z"/>
</symbol>
<symbol  id="font_1_2a" viewBox="-0.2 -0.4 0.4 0.8">
	<path d="M0,0.1C0,0.1,0,0.1,0,0.1C-0.1,0-0.1,0-0.1,0v-0.4h-0.1v0.8h0.1V0.1C-0.1,0.1,0,0.2,0,0.1c0.1,0.1,0.1,0.1,0.1,0
		c0,0,0-0.1,0-0.1v-0.3H0.1V0C0.1,0,0.1,0,0,0.1C0.1,0.1,0,0.1,0,0.1z"/>
</symbol>
<symbol  id="font_1_2b" viewBox="-0.1 -0.4 0.1 0.7">
	<path d="M-0.1,0.3C-0.1,0.3,0,0.3-0.1,0.3C0,0.4,0,0.4-0.1,0.3C0,0.4,0,0.4-0.1,0.3c0.1,0,0.1,0,0.1,0C0.1,0.3,0,0.3-0.1,0.3
		C0,0.3,0,0.3-0.1,0.3C0,0.3,0,0.3-0.1,0.3C0,0.3-0.1,0.3-0.1,0.3 M0,0.2v-0.5H0L0,0.2L0,0.2z"/>
</symbol>
<symbol  id="font_1_2c" viewBox="-0.1 -0.5 0.2 0.9">
	<path d="M0,0.4C0,0.4,0,0.4,0,0.4C0,0.5,0,0.5,0,0.4C0.1,0.5,0.1,0.5,0,0.4c0.1,0,0.1,0,0.1,0C0.1,0.4,0.1,0.4,0,0.4
		C0.1,0.4,0.1,0.4,0,0.4C0,0.4,0,0.4,0,0.4C0,0.4,0,0.4,0,0.4 M0,0.3L0,0.3l0.1-0.6c0-0.1,0-0.2-0.1-0.2c0,0,0,0-0.1,0l0,0.1
		c0,0,0,0,0,0c0,0,0.1,0,0.1,0.1V0.3z"/>
</symbol>
<symbol  id="font_1_2d" viewBox="-0.2 -0.4 0.4 0.8">
	<path d="M0.1-0.4l-0.2,0.2l-0.1-0.1v-0.2h-0.1v0.8h0.1v-0.5l0,0.1l0.2,0.2h0.1L0-0.1l0.2-0.3H0.1z"/>
</symbol>
<symbol  id="font_1_2e" viewBox="0 -0.4 0.1 0.8">
	<path d="M0,0.4v-0.8H0L0,0.4L0,0.4z"/>
</symbol>
<symbol  id="font_1_2f" viewBox="-0.4 -0.3 0.7 0.5">
	<path d="M-0.2,0.2c-0.1,0-0.1,0-0.1-0.1v-0.4h-0.1v0.5h0.1l0-0.1C-0.2,0.2-0.2,0.3-0.2,0.2C-0.1,0.3-0.1,0.3,0,0.2c0,0,0,0,0.1-0.1
		c0,0,0,0,0.1,0.1c0,0,0.1,0,0.1,0c0.1,0,0.1,0,0.1,0c0,0,0-0.1,0-0.1v-0.3H0.3v0.3c0,0,0,0.1,0,0.1c0,0,0,0-0.1,0c0,0-0.1,0-0.1,0
		c0,0,0,0,0-0.1v-0.4H0v0.3C0,0.1-0.1,0.1-0.2,0.2C-0.1,0.2-0.1,0.2-0.2,0.2z"/>
</symbol>
<symbol  id="font_1_3" viewBox="-0.2 -0.4 0.4 0.7">
	<path d="M0.2-0.1c0-0.1,0-0.2-0.1-0.2c0,0-0.1-0.1-0.2-0.1c-0.1,0-0.1,0-0.2,0.1c0,0-0.1,0.1-0.1,0.2v0.1c0,0.1,0,0.2,0.1,0.2
		c0,0,0.1,0.1,0.2,0.1s0.1,0,0.2-0.1c0,0,0.1-0.1,0.1-0.2V-0.1 M0.1,0.1c0,0.1,0,0.1,0,0.2S0,0.3,0,0.3c0,0-0.1,0-0.1,0
		c0,0,0-0.1,0-0.2v-0.1c0-0.1,0-0.1,0-0.2c0,0,0.1-0.1,0.1-0.1c0,0,0.1,0,0.1,0.1c0,0,0,0.1,0,0.2V0.1z"/>
</symbol>
<symbol  id="font_1_30" viewBox="-0.2 -0.3 0.4 0.5">
	<path d="M0,0.2C0,0.2,0,0.2,0,0.2c-0.1,0-0.1-0.1-0.1-0.1v-0.4h-0.1v0.5h0.1l0-0.1C-0.1,0.2,0,0.3,0,0.2c0.1,0.1,0.1,0.1,0.1,0
		c0,0,0-0.1,0-0.1v-0.3H0.1v0.3C0.1,0.1,0.1,0.1,0,0.2C0.1,0.2,0,0.2,0,0.2z"/>
</symbol>
<symbol  id="font_1_31" viewBox="-0.2 -0.3 0.5 0.5">
	<path d="M-0.2,0c0,0.1,0,0.1,0.1,0.2c0,0.1,0.1,0.1,0.2,0.1s0.1,0,0.2-0.1c0-0.1,0.1-0.1,0.1-0.2v0c0-0.1,0-0.1-0.1-0.2
		c0-0.1-0.1-0.1-0.2-0.1c-0.1,0-0.1,0-0.2,0.1C-0.2-0.1-0.2-0.1-0.2,0L-0.2,0 M-0.2,0c0-0.1,0-0.1,0-0.1c0,0,0.1-0.1,0.1-0.1
		c0,0,0.1,0,0.1,0.1c0,0,0,0.1,0,0.1v0c0,0.1,0,0.1,0,0.1c0,0-0.1,0.1-0.1,0.1c0,0-0.1,0-0.1-0.1C-0.1,0.1-0.2,0.1-0.2,0L-0.2,0z"/>
</symbol>
<symbol  id="font_1_32" viewBox="-0.2 -0.4 0.4 0.7">
	<path d="M0-0.2c-0.1,0-0.1,0-0.2,0.1v-0.3h-0.1v0.7h0.1l0-0.1c0,0,0.1,0.1,0.2,0.1c0.1,0,0.1,0,0.2-0.1s0.1-0.1,0.1-0.2v0
		c0-0.1,0-0.1-0.1-0.2C0.1-0.2,0.1-0.2,0-0.2 M0,0.3c-0.1,0-0.1,0-0.1-0.1V0c0,0,0.1-0.1,0.1-0.1c0,0,0.1,0,0.1,0.1c0,0,0,0.1,0,0.1
		v0c0,0.1,0,0.1,0,0.1C0.1,0.3,0,0.3,0,0.3z"/>
</symbol>
<symbol  id="font_1_33" viewBox="-0.2 -0.4 0.4 0.7">
	<path d="M0.2,0.4v-0.7H0.1v0.3c0,0-0.1-0.1-0.1-0.1c-0.1,0-0.1,0-0.2,0.1c0,0.1-0.1,0.1-0.1,0.2v0c0,0.1,0,0.1,0.1,0.2
		S-0.1,0.4,0,0.4C0.1,0.4,0.1,0.3,0.2,0.4L0.2,0.4L0.2,0.4 M-0.1,0.1c0-0.1,0-0.1,0-0.1c0,0,0.1-0.1,0.1-0.1c0.1,0,0.1,0,0.1,0.1
		v0.3c0,0-0.1,0.1-0.1,0.1c0,0-0.1,0-0.1-0.1C-0.1,0.2-0.1,0.2-0.1,0.1L-0.1,0.1z"/>
</symbol>
<symbol  id="font_1_34" viewBox="-0.1 -0.3 0.3 0.5">
	<path d="M0.1,0.2C0,0.2,0,0.2,0,0.1v-0.4h-0.1v0.5H0l0-0.1C0,0.2,0,0.3,0.1,0.2C0.1,0.3,0.1,0.3,0.1,0.2L0.1,0.2
		C0.1,0.2,0.1,0.2,0.1,0.2z"/>
</symbol>
<symbol  id="font_1_35" viewBox="-0.2 -0.3 0.4 0.5">
	<path d="M0.1-0.1C0.1-0.1,0.1-0.1,0.1-0.1C0.1-0.1,0.1,0,0,0C-0.1,0-0.1,0-0.1,0c0,0-0.1,0.1-0.1,0.1c0,0,0,0.1,0.1,0.1
		c0,0,0.1,0,0.1,0c0.1,0,0.1,0,0.1,0s0.1-0.1,0.1-0.1H0.1c0,0,0,0,0,0.1c0,0,0,0-0.1,0c0,0-0.1,0-0.1,0s0,0,0-0.1s0,0,0,0
		c0,0,0,0,0.1,0C0.1,0,0.1,0,0.2,0C0.2,0,0.2-0.1,0.1-0.1c0.1,0,0.1-0.1,0-0.1c0,0-0.1,0-0.1,0c-0.1,0-0.1,0-0.2,0.1
		s-0.1,0.1-0.1,0.1h0.1c0,0,0-0.1,0-0.1c0,0,0.1,0,0.1,0C0-0.2,0.1-0.2,0.1-0.1C0.1-0.2,0.1-0.1,0.1-0.1z"/>
</symbol>
<symbol  id="font_1_36" viewBox="-0.1 -0.3 0.3 0.7">
	<path d="M0.1-0.3C0.1-0.3,0.1-0.3,0.1-0.3C0-0.3,0-0.3,0-0.3s0,0.1,0,0.1v0.3h-0.1v0.1H0v0.1H0V0.2h0.1V0.1H0v-0.3
		C0-0.2,0-0.2,0.1-0.3C0.1-0.3,0.1-0.3,0.1-0.3C0.1-0.3,0.1-0.3,0.1-0.3L0.1-0.3z"/>
</symbol>
<symbol  id="font_1_37" viewBox="-0.2 -0.3 0.4 0.5">
	<path d="M0.1-0.3L0.1-0.3c0,0-0.1,0-0.2,0c-0.1,0-0.1,0-0.1,0s0,0.1,0,0.2v0.3h0.1v-0.3c0,0,0-0.1,0-0.1c0,0,0,0,0.1,0
		c0.1,0,0.1,0,0.1,0.1v0.4h0.1L0.1-0.3L0.1-0.3z"/>
</symbol>
<symbol  id="font_1_38" viewBox="-0.2 -0.3 0.5 0.5">
	<path d="M0.2,0.3L0-0.3H0l-0.2,0.5h0.1L0-0.1L0.2,0.3L0.2,0.3z"/>
</symbol>
<symbol  id="font_1_39" viewBox="-0.2 -0.3 0.5 0.5">
	<path d="M-0.1,0.3L0,0.1l0.1,0.2h0.1L0,0l0.2-0.3H0.1L0-0.1l-0.1-0.2h-0.1L0,0l-0.2,0.3H-0.1z"/>
</symbol>
<symbol  id="font_1_3a" viewBox="-0.2 -0.4 0.5 0.7">
	<path d="M0-0.2c0-0.1-0.1-0.1-0.1-0.1l0,0c0,0,0,0-0.1,0l0,0.1l0,0c0,0,0.1,0,0.1,0C-0.1-0.3-0.1-0.2,0-0.2L0-0.2l-0.2,0.6h0.1L0,0
		l0.1,0.4h0.1L0-0.2z"/>
</symbol>
<symbol  id="font_1_3b" viewBox="-0.2 -0.3 0.4 0.5">
	<path d="M-0.2,0.2L-0.2,0.2l0.4,0.1V0.2l-0.3-0.4h0.3v-0.1h-0.4v0.1l0.3,0.4H-0.2z"/>
</symbol>
<symbol  id="font_1_4" viewBox="-0.1 -0.4 0.3 0.7">
	<path d="M0.1,0.4v-0.7H0v0.6l-0.2-0.1v0.1L0.1,0.4L0.1,0.4z"/>
</symbol>
<symbol  id="font_1_5" viewBox="-0.2 -0.4 0.5 0.7">
	<path d="M0.2-0.3L0.2-0.3l-0.5-0.1v0.1L0,0c0,0,0.1,0.1,0.1,0.1c0,0,0,0.1,0,0.1c0,0,0,0.1,0,0.1c0,0-0.1,0-0.1,0c0,0-0.1,0-0.1,0
		s0-0.1,0-0.1h-0.1c0,0.1,0,0.1,0.1,0.2S-0.1,0.4,0,0.4c0.1,0,0.1,0,0.2-0.1c0,0,0.1-0.1,0.1-0.1c0,0,0-0.1,0-0.1
		c0,0-0.1-0.1-0.1-0.1l-0.2-0.2H0.2z"/>
</symbol>
<symbol  id="font_1_6" viewBox="-0.2 -0.4 0.5 0.7">
	<path d="M-0.1,0L-0.1,0L-0.1,0C0,0,0.1,0.1,0.1,0.1s0,0.1,0,0.1c0,0.1,0,0.1-0.1,0.1c0,0-0.1,0-0.1,0c0,0,0-0.1,0-0.1h-0.1
		c0,0.1,0,0.1,0.1,0.1c0,0,0.1,0.1,0.2,0.1c0.1,0,0.1,0,0.2-0.1c0,0,0.1-0.1,0.1-0.1c0,0,0-0.1,0-0.1c0,0,0-0.1-0.1-0.1
		c0,0,0.1,0,0.1-0.1s0-0.1,0-0.1c0-0.1,0-0.1-0.1-0.2S0.1-0.4,0-0.4c-0.1,0-0.1,0-0.2,0.1c0,0-0.1,0.1-0.1,0.1h0.1c0,0,0-0.1,0-0.1
		c0,0,0.1,0,0.1,0c0,0,0.1,0,0.1,0s0,0.1,0,0.1s0,0.1,0,0.1C0.1,0,0,0-0.1,0L-0.1,0z"/>
</symbol>
<symbol  id="font_1_7" viewBox="-0.3 -0.4 0.5 0.7">
	<path d="M-0.3-0.1l0.3,0.5h0.1v-0.5h0.1v-0.1H0.2v-0.2H0.1v0.2L-0.3-0.1L-0.3-0.1 M-0.2-0.1h0.2v0.3l0,0L-0.2-0.1z"/>
</symbol>
<symbol  id="font_1_8" viewBox="-0.2 -0.4 0.4 0.7">
	<path d="M-0.1,0L-0.1,0l0,0.4h0.4V0.3h-0.3L-0.1,0C-0.1,0.1,0,0.1,0,0.1c0.1,0,0.1,0,0.2-0.1c0,0,0.1-0.1,0.1-0.2
		c0-0.1,0-0.1-0.1-0.2c0,0-0.1-0.1-0.2-0.1c-0.1,0-0.1,0-0.1,0c0,0-0.1,0.1-0.1,0.1h0.1c0-0.1,0.1-0.1,0.1-0.1c0,0,0.1,0,0.1,0
		s0,0.1,0,0.1c0,0,0,0.1,0,0.1C0.1,0,0,0,0,0C0,0-0.1,0-0.1,0C-0.1,0-0.1,0-0.1,0z"/>
</symbol>
<symbol  id="font_1_9" viewBox="-0.2 -0.4 0.4 0.7">
	<path d="M0.2-0.1c0-0.1,0-0.1-0.1-0.2c0,0-0.1-0.1-0.2-0.1c-0.1,0-0.1,0-0.1,0c0,0-0.1,0.1-0.1,0.1c0,0,0,0.1,0,0.1v0
		c0,0.1,0,0.1,0,0.2c0,0.1,0.1,0.1,0.1,0.2c0,0,0.1,0.1,0.2,0.1h0V0.3c-0.1,0-0.1,0-0.1,0c0,0-0.1-0.1-0.1-0.1c0,0,0-0.1,0-0.1
		c0,0,0.1,0.1,0.2,0.1c0,0,0.1,0,0.1,0c0,0,0.1-0.1,0.1-0.1C0.2,0,0.2-0.1,0.2-0.1 M-0.1-0.1c0-0.1,0-0.1,0-0.1c0,0,0.1-0.1,0.1-0.1
		c0,0,0.1,0,0.1,0c0,0,0,0.1,0,0.1c0,0,0,0.1,0,0.1S0,0,0,0c0,0-0.1,0-0.1,0S-0.1,0-0.1-0.1L-0.1-0.1z"/>
</symbol>
<symbol  id="font_1_a" viewBox="-0.2 -0.4 0.5 0.7">
	<path d="M0.2,0.4L0.2,0.4l-0.3-0.7h-0.1L0.2,0.4l-0.5-0.1v0.1H0.2z"/>
</symbol>
<symbol  id="font_1_b" viewBox="-0.2 -0.4 0.5 0.7">
	<path d="M0.2-0.2c0-0.1,0-0.1-0.1-0.1c0,0-0.1-0.1-0.2-0.1s-0.1,0-0.2,0.1c0,0-0.1,0.1-0.1,0.1c0,0,0,0.1,0,0.1C-0.2,0-0.1,0-0.1,0
		c0,0-0.1,0-0.1,0.1c0,0,0,0.1,0,0.1c0,0.1,0,0.1,0.1,0.1c0,0,0.1,0.1,0.2,0.1c0.1,0,0.1,0,0.2-0.1c0,0,0.1-0.1,0.1-0.1
		c0,0,0-0.1,0-0.1c0,0,0,0-0.1-0.1c0,0,0.1,0,0.1-0.1S0.2-0.1,0.2-0.2 M0.1,0.2C0.1,0.2,0.1,0.2,0.1,0.2C0.1,0.3,0,0.3,0,0.3
		s-0.1,0-0.1,0c0,0,0-0.1,0-0.1c0,0,0-0.1,0-0.1S0,0,0,0C0,0,0.1,0.1,0.1,0.2C0.1,0.1,0.1,0.1,0.1,0.2 M0.1-0.2
		C0.1-0.1,0.1-0.1,0.1-0.2C0.1,0,0,0,0,0c0,0-0.1,0-0.1,0c0,0,0-0.1,0-0.1c0,0,0-0.1,0-0.1c0,0,0.1,0,0.1,0S0.1-0.3,0.1-0.2
		C0.1-0.2,0.1-0.2,0.1-0.2z"/>
</symbol>
<symbol  id="font_1_c" viewBox="-0.2 -0.4 0.4 0.7">
	<path d="M0.2,0c0,0,0-0.1,0-0.1c0,0,0-0.1,0-0.1c0,0-0.1-0.1-0.1-0.1c0,0-0.1,0-0.2,0v0.1c0.1,0,0.1,0,0.2,0c0,0,0.1,0.1,0.1,0.1
		C0.1-0.1,0.1-0.1,0.2,0C0.1-0.1,0.1-0.1,0.1-0.1c0,0-0.1,0-0.1,0c0,0-0.1,0-0.1,0S-0.2,0-0.2,0c0,0,0,0.1,0,0.1
		c0,0.1,0,0.1,0.1,0.2c0,0,0.1,0.1,0.2,0.1c0.1,0,0.1,0,0.1,0c0,0,0.1-0.1,0.1-0.1C0.2,0.2,0.2,0.1,0.2,0L0.2,0 M-0.1,0.1
		c0,0,0-0.1,0-0.1C-0.1,0,0,0,0,0c0,0,0.1,0,0.1,0c0,0,0,0,0.1,0.1v0c0,0.1,0,0.1,0,0.1c0,0-0.1,0.1-0.1,0.1c0,0-0.1,0-0.1,0
		C-0.1,0.2-0.1,0.2-0.1,0.1z"/>
</symbol>
<symbol  id="font_1_d" viewBox="-0.2 -0.1 0.4 0.3">
	<path d="M0.2,0.1L0.2,0.1l-0.4-0.1v0.1H0.2 M0.2-0.1L0.2-0.1l-0.4-0.1v0.1H0.2z"/>
</symbol>
<symbol  id="font_1_e" viewBox="-0.3 -0.4 0.6 0.7">
	<path d="M-0.3-0.4L0,0.4H0l0.3-0.7H0.2L0.1-0.2h-0.3L-0.3-0.4L-0.3-0.4 M-0.1-0.1h0.2L0,0.2L-0.1-0.1z"/>
</symbol>
<symbol  id="font_1_f" viewBox="-0.2 -0.4 0.5 0.7">
	<path d="M0.2-0.2c0-0.1,0-0.1-0.1-0.2c0,0-0.1-0.1-0.2-0.1h-0.2v0.7H0c0.1,0,0.1,0,0.2,0c0,0,0.1-0.1,0.1-0.1c0,0,0-0.1,0-0.1
		c0,0,0,0-0.1-0.1c0,0,0.1,0,0.1-0.1C0.2-0.1,0.2-0.1,0.2-0.2 M-0.1,0.3V0.1H0c0,0,0.1,0,0.1,0s0,0,0,0.1c0,0.1,0,0.1-0.1,0.1H-0.1
		 M0.1-0.2C0.1-0.1,0.1-0.1,0.1-0.2C0.1,0,0.1,0,0,0h-0.2v-0.3H0C0.1-0.3,0.1-0.3,0.1-0.2C0.1-0.2,0.1-0.2,0.1-0.2z"/>
</symbol>
<symbol  id="font_2_1" viewBox="0 0 0 0">
	<path d="M0,0"/>
</symbol>
<symbol  id="font_2_10" viewBox="-0.2 -0.3 0.4 0.5">
	<path d="M0.1-0.1C0.1-0.1,0.1-0.1,0.1-0.1C0.1-0.1,0.1,0,0,0C-0.1,0-0.1,0-0.1,0c0,0-0.1,0.1-0.1,0.1c0,0,0,0.1,0.1,0.1
		c0,0,0.1,0,0.1,0c0.1,0,0.1,0,0.1,0s0.1-0.1,0.1-0.1H0.1c0,0,0,0,0,0.1c0,0,0,0-0.1,0c0,0-0.1,0-0.1,0s0,0,0-0.1s0,0,0,0
		c0,0,0,0,0.1,0C0.1,0,0.1,0,0.2,0C0.2,0,0.2-0.1,0.1-0.1c0.1,0,0.1-0.1,0-0.1c0,0-0.1,0-0.1,0c-0.1,0-0.1,0-0.2,0.1
		s-0.1,0.1-0.1,0.1h0.1c0,0,0-0.1,0-0.1c0,0,0.1,0,0.1,0C0-0.2,0.1-0.2,0.1-0.1C0.1-0.2,0.1-0.1,0.1-0.1z"/>
</symbol>
<symbol  id="font_2_11" viewBox="-0.1 -0.3 0.3 0.7">
	<path d="M0.1-0.3C0.1-0.3,0.1-0.3,0.1-0.3C0-0.3,0-0.3,0-0.3s0,0.1,0,0.1v0.3h-0.1v0.1H0v0.1H0V0.2h0.1V0.1H0v-0.3
		C0-0.2,0-0.2,0.1-0.3C0.1-0.3,0.1-0.3,0.1-0.3C0.1-0.3,0.1-0.3,0.1-0.3L0.1-0.3z"/>
</symbol>
<symbol  id="font_2_12" viewBox="-0.2 -0.3 0.4 0.5">
	<path d="M0.1-0.3L0.1-0.3c0,0-0.1,0-0.2,0c-0.1,0-0.1,0-0.1,0s0,0.1,0,0.2v0.3h0.1v-0.3c0,0,0-0.1,0-0.1c0,0,0,0,0.1,0
		c0.1,0,0.1,0,0.1,0.1v0.4h0.1L0.1-0.3L0.1-0.3z"/>
</symbol>
<symbol  id="font_2_13" viewBox="-0.2 -0.4 0.5 0.7">
	<path d="M0-0.2c0-0.1-0.1-0.1-0.1-0.1l0,0c0,0,0,0-0.1,0l0,0.1l0,0c0,0,0.1,0,0.1,0C-0.1-0.3-0.1-0.2,0-0.2L0-0.2l-0.2,0.6h0.1L0,0
		l0.1,0.4h0.1L0-0.2z"/>
</symbol>
<symbol  id="font_2_2" viewBox="-0.3 -0.4 0.5 0.7">
	<path d="M-0.3-0.1l0.3,0.5h0.1v-0.5h0.1v-0.1H0.2v-0.2H0.1v0.2L-0.3-0.1L-0.3-0.1 M-0.2-0.1h0.2v0.3l0,0L-0.2-0.1z"/>
</symbol>
<symbol  id="font_2_3" viewBox="-0.2 -0.4 0.4 0.7">
	<path d="M0.2-0.1c0-0.1,0-0.1-0.1-0.2c0,0-0.1-0.1-0.2-0.1c-0.1,0-0.1,0-0.1,0c0,0-0.1,0.1-0.1,0.1c0,0,0,0.1,0,0.1v0
		c0,0.1,0,0.1,0,0.2c0,0.1,0.1,0.1,0.1,0.2c0,0,0.1,0.1,0.2,0.1h0V0.3c-0.1,0-0.1,0-0.1,0c0,0-0.1-0.1-0.1-0.1c0,0,0-0.1,0-0.1
		c0,0,0.1,0.1,0.2,0.1c0,0,0.1,0,0.1,0c0,0,0.1-0.1,0.1-0.1C0.2,0,0.2-0.1,0.2-0.1 M-0.1-0.1c0-0.1,0-0.1,0-0.1c0,0,0.1-0.1,0.1-0.1
		c0,0,0.1,0,0.1,0c0,0,0,0.1,0,0.1c0,0,0,0.1,0,0.1S0,0,0,0c0,0-0.1,0-0.1,0S-0.1,0-0.1-0.1L-0.1-0.1z"/>
</symbol>
<symbol  id="font_2_4" viewBox="-0.2 -0.3 0.4 0.5">
	<path d="M0.1-0.3C0.1-0.3,0.1-0.2,0.1-0.3C0.1-0.2,0.1-0.2,0.1-0.3C0-0.3,0-0.3,0-0.3c-0.1,0-0.1,0-0.1,0s0,0.1,0,0.1
		c0,0.1,0,0.1,0.1,0.1c0,0,0.1,0,0.2,0h0.1v0c0,0,0,0.1,0,0.1c0,0,0,0-0.1,0c0,0-0.1,0-0.1,0c0,0,0,0,0-0.1h-0.1c0,0,0,0.1,0.1,0.1
		s0.1,0,0.2,0c0.1,0,0.1,0,0.1,0s0.1-0.1,0.1-0.1v-0.2C0.2-0.2,0.2-0.2,0.1-0.3L0.1-0.3L0.1-0.3 M0-0.2C0-0.2,0-0.2,0-0.2
		c0.1,0,0.1,0.1,0.1,0.1V0H0c-0.1,0-0.2,0-0.2-0.1C-0.1-0.1-0.1-0.2,0-0.2C-0.1-0.2-0.1-0.2,0-0.2z"/>
</symbol>
<symbol  id="font_2_5" viewBox="-0.2 -0.4 0.4 0.8">
	<path d="M0.2-0.1c0-0.1,0-0.1-0.1-0.2S0.1-0.4,0-0.4c-0.1,0-0.1,0-0.2,0.1l0-0.1h-0.1v0.8h0.1V0.1c0,0,0.1,0.1,0.2,0.1
		c0.1,0,0.1,0,0.2-0.1C0.2,0,0.2,0,0.2-0.1L0.2-0.1 M0,0.1C0,0.1-0.1,0.1,0,0.1C-0.1,0.1-0.1,0-0.1,0v-0.2c0,0,0,0,0-0.1s0,0,0.1,0
		c0,0,0.1,0,0.1,0.1c0,0,0,0.1,0,0.1v0c0,0.1,0,0.1,0,0.1C0.1,0.1,0,0.1,0,0.1z"/>
</symbol>
<symbol  id="font_2_6" viewBox="-0.2 -0.3 0.4 0.5">
	<path d="M0-0.2C0-0.2,0.1-0.2,0-0.2c0.1,0,0.1,0.1,0.1,0.1h0.1c0,0,0-0.1-0.1-0.1C0.1-0.3,0.1-0.3,0-0.2c-0.1-0.1-0.1,0-0.2,0
		c0,0.1-0.1,0.1-0.1,0.2v0c0,0.1,0,0.1,0.1,0.2c0,0.1,0.1,0.1,0.2,0.1c0.1,0,0.1,0,0.1-0.1c0,0,0.1-0.1,0.1-0.1H0.1c0,0,0,0.1,0,0.1
		c0,0-0.1,0-0.1,0c0,0-0.1,0-0.1,0c0,0,0,0,0-0.1c0,0,0-0.1,0-0.1v0c0,0,0-0.1,0-0.1S-0.1-0.2,0-0.2C-0.1-0.2,0-0.2,0-0.2z"/>
</symbol>
<symbol  id="font_2_7" viewBox="-0.2 -0.4 0.4 0.8">
	<path d="M0.1-0.4L0.1-0.4c0,0-0.1,0-0.2,0c-0.1,0-0.1,0-0.1,0.1s-0.1,0.1-0.1,0.2v0c0,0.1,0,0.1,0.1,0.2c0,0,0.1,0.1,0.2,0.1
		c0.1,0,0.1,0,0.1-0.1v0.3h0.1L0.1-0.4L0.1-0.4 M-0.1-0.1c0-0.1,0-0.1,0-0.1c0,0,0.1-0.1,0.1-0.1c0.1,0,0.1,0,0.1,0.1V0
		c0,0.1-0.1,0.1-0.1,0.1c0,0-0.1,0-0.1-0.1C-0.1,0-0.1,0-0.1-0.1L-0.1-0.1z"/>
</symbol>
<symbol  id="font_2_8" viewBox="-0.2 -0.3 0.4 0.5">
	<path d="M0.2-0.2C0.2-0.2,0.2-0.2,0.2-0.2C0.1-0.3,0.1-0.3,0-0.3c-0.1,0-0.1,0-0.2,0.1c0,0-0.1,0.1-0.1,0.2v0c0,0.1,0,0.1,0,0.1
		c0,0,0.1,0.1,0.1,0.1c0,0,0.1,0,0.1,0c0.1,0,0.1,0,0.2-0.1c0,0,0.1-0.1,0.1-0.2v0h-0.4c0,0,0-0.1,0-0.1c0,0,0.1-0.1,0.1-0.1
		c0,0,0.1,0,0.1,0S0.1-0.2,0.2-0.2L0.2-0.2 M0,0.2C0,0.2-0.1,0.2,0,0.2C-0.1,0.1-0.1,0.1-0.1,0h0.3v0C0.1,0.1,0.1,0.1,0,0.2
		C0.1,0.2,0.1,0.2,0,0.2z"/>
</symbol>
<symbol  id="font_2_9" viewBox="-0.1 -0.4 0.1 0.7">
	<path d="M-0.1,0.3C-0.1,0.3,0,0.3-0.1,0.3C0,0.4,0,0.4-0.1,0.3C0,0.4,0,0.4-0.1,0.3c0.1,0,0.1,0,0.1,0C0.1,0.3,0,0.3-0.1,0.3
		C0,0.3,0,0.3-0.1,0.3C0,0.3,0,0.3-0.1,0.3C0,0.3-0.1,0.3-0.1,0.3 M0,0.2v-0.5H0L0,0.2L0,0.2z"/>
</symbol>
<symbol  id="font_2_a" viewBox="-0.2 -0.4 0.4 0.8">
	<path d="M0.1-0.4l-0.2,0.2l-0.1-0.1v-0.2h-0.1v0.8h0.1v-0.5l0,0.1l0.2,0.2h0.1L0-0.1l0.2-0.3H0.1z"/>
</symbol>
<symbol  id="font_2_b" viewBox="0 -0.4 0.1 0.8">
	<path d="M0,0.4v-0.8H0L0,0.4L0,0.4z"/>
</symbol>
<symbol  id="font_2_c" viewBox="-0.2 -0.3 0.4 0.5">
	<path d="M0,0.2C0,0.2,0,0.2,0,0.2c-0.1,0-0.1-0.1-0.1-0.1v-0.4h-0.1v0.5h0.1l0-0.1C-0.1,0.2,0,0.3,0,0.2c0.1,0.1,0.1,0.1,0.1,0
		c0,0,0-0.1,0-0.1v-0.3H0.1v0.3C0.1,0.1,0.1,0.1,0,0.2C0.1,0.2,0,0.2,0,0.2z"/>
</symbol>
<symbol  id="font_2_d" viewBox="-0.2 -0.3 0.5 0.5">
	<path d="M-0.2,0c0,0.1,0,0.1,0.1,0.2c0,0.1,0.1,0.1,0.2,0.1s0.1,0,0.2-0.1c0-0.1,0.1-0.1,0.1-0.2v0c0-0.1,0-0.1-0.1-0.2
		c0-0.1-0.1-0.1-0.2-0.1c-0.1,0-0.1,0-0.2,0.1C-0.2-0.1-0.2-0.1-0.2,0L-0.2,0 M-0.2,0c0-0.1,0-0.1,0-0.1c0,0,0.1-0.1,0.1-0.1
		c0,0,0.1,0,0.1,0.1c0,0,0,0.1,0,0.1v0c0,0.1,0,0.1,0,0.1c0,0-0.1,0.1-0.1,0.1c0,0-0.1,0-0.1-0.1C-0.1,0.1-0.2,0.1-0.2,0L-0.2,0z"/>
</symbol>
<symbol  id="font_2_e" viewBox="-0.2 -0.4 0.4 0.7">
	<path d="M0-0.2c-0.1,0-0.1,0-0.2,0.1v-0.3h-0.1v0.7h0.1l0-0.1c0,0,0.1,0.1,0.2,0.1c0.1,0,0.1,0,0.2-0.1s0.1-0.1,0.1-0.2v0
		c0-0.1,0-0.1-0.1-0.2C0.1-0.2,0.1-0.2,0-0.2 M0,0.3c-0.1,0-0.1,0-0.1-0.1V0c0,0,0.1-0.1,0.1-0.1c0,0,0.1,0,0.1,0.1c0,0,0,0.1,0,0.1
		v0c0,0.1,0,0.1,0,0.1C0.1,0.3,0,0.3,0,0.3z"/>
</symbol>
<symbol  id="font_2_f" viewBox="-0.1 -0.3 0.3 0.5">
	<path d="M0.1,0.2C0,0.2,0,0.2,0,0.1v-0.4h-0.1v0.5H0l0-0.1C0,0.2,0,0.3,0.1,0.2C0.1,0.3,0.1,0.3,0.1,0.2L0.1,0.2
		C0.1,0.2,0.1,0.2,0.1,0.2z"/>
</symbol>
<use xlink:href="#font_1_3"  width="0.4" height="0.7" x="-0.2" y="-0.4" transform="matrix(12 0 0 -12 3.0537 4.8574)" style="overflow:visible;"/>
<use xlink:href="#font_1_9"  width="0.4" height="0.7" x="-0.2" y="-0.4" transform="matrix(12 0 0 -12 9.9092 4.9102)" style="overflow:visible;"/>
<use xlink:href="#font_1_26"  width="0.4" height="0.8" x="-0.2" y="-0.4" transform="matrix(12 0 0 -12 16.4189 4.6816)" style="overflow:visible;"/>
<use xlink:href="#font_1_c"  width="0.4" height="0.7" x="-0.2" y="-0.4" transform="matrix(12 0 0 -12 23.2041 4.8047)" style="overflow:visible;"/>
<use xlink:href="#font_1_25"  width="0.4" height="0.5" x="-0.2" y="-0.3" transform="matrix(12 0 0 -12 29.9014 5.9531)" style="overflow:visible;"/>
<use xlink:href="#font_1_23"  width="0.4" height="0.5" x="-0.2" y="-0.3" transform="matrix(12 0 0 -12 36.1855 5.9531)" style="overflow:visible;"/>
<use xlink:href="#font_1_8"  width="0.4" height="0.7" x="-0.2" y="-0.4" transform="matrix(12 0 0 -12 43.0145 4.916)" style="overflow:visible;"/>
<use xlink:href="#font_1_b"  width="0.5" height="0.7" x="-0.2" y="-0.4" transform="matrix(12 0 0 -12 49.5477 4.8574)" style="overflow:visible;"/>
<use xlink:href="#font_1_28"  width="0.3" height="0.8" x="-0.2" y="-0.4" transform="matrix(12 0 0 -12 55.202 4.5615)" style="overflow:visible;"/>
<use xlink:href="#font_1_a"  width="0.5" height="0.7" x="-0.2" y="-0.4" transform="matrix(12 0 0 -12 60.3904 4.8574)" style="overflow:visible;"/>
<use xlink:href="#font_1_24"  width="0.4" height="0.8" x="-0.2" y="-0.4" transform="matrix(12 0 0 -12 67.3074 4.6816)" style="overflow:visible;"/>
<use xlink:href="#font_1_9"  width="0.4" height="0.7" x="-0.2" y="-0.4" transform="matrix(12 0 0 -12 74.0252 4.9102)" style="overflow:visible;enable-background:new    ;"/>
<use xlink:href="#font_1_27"  width="0.4" height="0.5" x="-0.2" y="-0.3" transform="matrix(12 0 0 -12 80.535 5.9531)" style="overflow:visible;"/>
<use xlink:href="#font_1_23"  width="0.4" height="0.5" x="-0.2" y="-0.3" transform="matrix(12 0 0 -12 86.9335 5.9531)" style="overflow:visible;enable-background:new    ;"/>
<use xlink:href="#font_1_24"  width="0.4" height="0.8" x="-0.2" y="-0.4" transform="matrix(12 0 0 -12 93.6834 4.6816)" style="overflow:visible;enable-background:new    ;"/>
<use xlink:href="#font_1_b"  width="0.5" height="0.7" x="-0.2" y="-0.4" transform="matrix(12 0 0 -12 100.2957 4.8574)" style="overflow:visible;enable-background:new    ;"/>
<use xlink:href="#font_1_3"  width="0.4" height="0.7" x="-0.2" y="-0.4" transform="matrix(12 0 0 -12 107.0457 4.8574)" style="overflow:visible;enable-background:new    ;"/>
<use xlink:href="#font_1_4"  width="0.3" height="0.7" x="-0.1" y="-0.4" transform="matrix(12 0 0 -12 113.0633 4.834)" style="overflow:visible;"/>
<use xlink:href="#font_1_3"  width="0.4" height="0.7" x="-0.2" y="-0.4" transform="matrix(12 0 0 -12 120.5457 4.8574)" style="overflow:visible;enable-background:new    ;"/>
<use xlink:href="#font_1_24"  width="0.4" height="0.8" x="-0.2" y="-0.4" transform="matrix(12 0 0 -12 127.4334 4.6816)" style="overflow:visible;enable-background:new    ;"/>
<use xlink:href="#font_1_4"  width="0.3" height="0.7" x="-0.1" y="-0.4" transform="matrix(12 0 0 -12 133.3133 4.834)" style="overflow:visible;enable-background:new    ;"/>
<use xlink:href="#font_1_27"  width="0.4" height="0.5" x="-0.2" y="-0.3" transform="matrix(12 0 0 -12 140.6609 5.9531)" style="overflow:visible;enable-background:new    ;"/>
<use xlink:href="#font_1_27"  width="0.4" height="0.5" x="-0.2" y="-0.3" transform="matrix(12 0 0 -12 147.039 5.9531)" style="overflow:visible;enable-background:new    ;"/>
<use xlink:href="#font_1_8"  width="0.4" height="0.7" x="-0.2" y="-0.4" transform="matrix(12 0 0 -12 153.7685 4.916)" style="overflow:visible;enable-background:new    ;"/>
<use xlink:href="#font_1_b"  width="0.5" height="0.7" x="-0.2" y="-0.4" transform="matrix(12 0 0 -12 160.3017 4.8574)" style="overflow:visible;enable-background:new    ;"/>
<use xlink:href="#font_1_8"  width="0.4" height="0.7" x="-0.2" y="-0.4" transform="matrix(12 0 0 -12 167.2685 4.916)" style="overflow:visible;enable-background:new    ;"/>
<use xlink:href="#font_1_7"  width="0.5" height="0.7" x="-0.3" y="-0.4" transform="matrix(12 0 0 -12 173.8252 4.8574)" style="overflow:visible;"/>
<use xlink:href="#font_1_b"  width="0.5" height="0.7" x="-0.2" y="-0.4" transform="matrix(12 0 0 -12 180.5517 4.8574)" style="overflow:visible;enable-background:new    ;"/>
<use xlink:href="#font_1_25"  width="0.4" height="0.5" x="-0.2" y="-0.3" transform="matrix(12 0 0 -12 187.1494 5.9531)" style="overflow:visible;enable-background:new    ;"/>
<use xlink:href="#font_1_b"  width="0.5" height="0.7" x="-0.2" y="-0.4" transform="matrix(12 0 0 -12 193.5477 4.8574)" style="overflow:visible;enable-background:new    ;"/>
<use xlink:href="#font_1_25"  width="0.4" height="0.5" x="-0.2" y="-0.3" transform="matrix(12 0 0 -12 200.1454 5.9531)" style="overflow:visible;enable-background:new    ;"/>
<use xlink:href="#font_1_3"  width="0.4" height="0.7" x="-0.2" y="-0.4" transform="matrix(12 0 0 -12 206.5437 4.8574)" style="overflow:visible;enable-background:new    ;"/>
<use xlink:href="#font_1_28"  width="0.3" height="0.8" x="-0.2" y="-0.4" transform="matrix(12 0 0 -12 212.198 4.5615)" style="overflow:visible;enable-background:new    ;"/>
<use xlink:href="#font_1_9"  width="0.4" height="0.7" x="-0.2" y="-0.4" transform="matrix(12 0 0 -12 217.5212 4.9102)" style="overflow:visible;enable-background:new    ;"/>
<use xlink:href="#font_1_25"  width="0.4" height="0.5" x="-0.2" y="-0.3" transform="matrix(12 0 0 -12 224.0134 5.9531)" style="overflow:visible;enable-background:new    ;"/>
<use xlink:href="#font_1_c"  width="0.4" height="0.7" x="-0.2" y="-0.4" transform="matrix(12 0 0 -12 230.3121 4.8047)" style="overflow:visible;enable-background:new    ;"/>
<use xlink:href="#font_1_27"  width="0.4" height="0.5" x="-0.2" y="-0.3" transform="matrix(12 0 0 -12 237.0269 5.9531)" style="overflow:visible;enable-background:new    ;"/>
<use xlink:href="#font_1_23"  width="0.4" height="0.5" x="-0.2" y="-0.3" transform="matrix(12 0 0 -12 243.4254 5.9531)" style="overflow:visible;enable-background:new    ;"/>
<use xlink:href="#font_1_9"  width="0.4" height="0.7" x="-0.2" y="-0.4" transform="matrix(12 0 0 -12 250.1432 4.9102)" style="overflow:visible;enable-background:new    ;"/>
<use xlink:href="#font_1_a"  width="0.5" height="0.7" x="-0.2" y="-0.4" transform="matrix(12 0 0 -12 256.7584 4.8574)" style="overflow:visible;enable-background:new    ;"/>
<use xlink:href="#font_1_3"  width="0.4" height="0.7" x="-0.2" y="-0.4" transform="matrix(12 0 0 -12 263.5377 4.8574)" style="overflow:visible;enable-background:new    ;"/>
<use xlink:href="#font_1_b"  width="0.5" height="0.7" x="-0.2" y="-0.4" transform="matrix(12 0 0 -12 270.2877 4.8574)" style="overflow:visible;enable-background:new    ;"/>
<use xlink:href="#font_1_7"  width="0.5" height="0.7" x="-0.3" y="-0.4" transform="matrix(12 0 0 -12 277.0611 4.8574)" style="overflow:visible;enable-background:new    ;"/>
<use xlink:href="#font_1_b"  width="0.5" height="0.7" x="-0.2" y="-0.4" transform="matrix(12 0 0 -12 283.7877 4.8574)" style="overflow:visible;enable-background:new    ;"/>
<use xlink:href="#font_1_4"  width="0.3" height="0.7" x="-0.1" y="-0.4" transform="matrix(12 0 0 -12 289.8053 4.834)" style="overflow:visible;enable-background:new    ;"/>
<use xlink:href="#font_1_3"  width="0.4" height="0.7" x="-0.2" y="-0.4" transform="matrix(12 0 0 -12 297.2877 4.8574)" style="overflow:visible;enable-background:new    ;"/>
<use xlink:href="#font_1_5"  width="0.5" height="0.7" x="-0.2" y="-0.4" transform="matrix(12 0 0 -12 304.0934 4.7988)" style="overflow:visible;"/>
<use xlink:href="#font_1_a"  width="0.5" height="0.7" x="-0.2" y="-0.4" transform="matrix(12 0 0 -12 310.7584 4.8574)" style="overflow:visible;enable-background:new    ;"/>
<use xlink:href="#font_1_b"  width="0.5" height="0.7" x="-0.2" y="-0.4" transform="matrix(12 0 0 -12 317.5377 4.8574)" style="overflow:visible;enable-background:new    ;"/>
<use xlink:href="#font_1_24"  width="0.4" height="0.8" x="-0.2" y="-0.4" transform="matrix(12 0 0 -12 324.4254 4.6816)" style="overflow:visible;enable-background:new    ;"/>
<use xlink:href="#font_1_7"  width="0.5" height="0.7" x="-0.3" y="-0.4" transform="matrix(12 0 0 -12 331.0611 4.8574)" style="overflow:visible;enable-background:new    ;"/>
<use xlink:href="#font_1_26"  width="0.4" height="0.8" x="-0.2" y="-0.4" transform="matrix(12 0 0 -12 337.6529 4.6816)" style="overflow:visible;enable-background:new    ;"/>
<use xlink:href="#font_1_7"  width="0.5" height="0.7" x="-0.3" y="-0.4" transform="matrix(12 0 0 -12 344.5611 4.8574)" style="overflow:visible;enable-background:new    ;"/>
<use xlink:href="#font_1_c"  width="0.4" height="0.7" x="-0.2" y="-0.4" transform="matrix(12 0 0 -12 351.1881 4.8047)" style="overflow:visible;enable-background:new    ;"/>
<use xlink:href="#font_1_9"  width="0.4" height="0.7" x="-0.2" y="-0.4" transform="matrix(12 0 0 -12 358.1432 4.9102)" style="overflow:visible;enable-background:new    ;"/>
<use xlink:href="#font_1_25"  width="0.4" height="0.5" x="-0.2" y="-0.3" transform="matrix(12 0 0 -12 364.6353 5.9531)" style="overflow:visible;enable-background:new    ;"/>
<use xlink:href="#font_1_c"  width="0.4" height="0.7" x="-0.2" y="-0.4" transform="matrix(12 0 0 -12 370.9341 4.8047)" style="overflow:visible;enable-background:new    ;"/>
<use xlink:href="#font_1_4"  width="0.3" height="0.7" x="-0.1" y="-0.4" transform="matrix(12 0 0 -12 377.0513 4.834)" style="overflow:visible;enable-background:new    ;"/>
<use xlink:href="#font_1_6"  width="0.5" height="0.7" x="-0.2" y="-0.4" transform="matrix(12 0 0 -12 384.4253 4.8574)" style="overflow:visible;"/>
<use xlink:href="#font_1_28"  width="0.3" height="0.8" x="-0.2" y="-0.4" transform="matrix(12 0 0 -12 390.188 4.5615)" style="overflow:visible;enable-background:new    ;"/>
<use xlink:href="#font_1_28"  width="0.3" height="0.8" x="-0.2" y="-0.4" transform="matrix(12 0 0 -12 394.31 4.5615)" style="overflow:visible;enable-background:new    ;"/>
<use xlink:href="#font_1_3"  width="0.4" height="0.7" x="-0.2" y="-0.4" transform="matrix(12 0 0 -12 399.5277 4.8574)" style="overflow:visible;enable-background:new    ;"/>
<use xlink:href="#font_1_a"  width="0.5" height="0.7" x="-0.2" y="-0.4" transform="matrix(12 0 0 -12 406.2484 4.8574)" style="overflow:visible;enable-background:new    ;"/>
<use xlink:href="#font_1_4"  width="0.3" height="0.7" x="-0.1" y="-0.4" transform="matrix(12 0 0 -12 412.2953 4.834)" style="overflow:visible;enable-background:new    ;"/>
<use xlink:href="#font_1_2"  width="0.1" height="0.2" x="-0.1" y="-0.1" transform="matrix(12 0 0 -12 417.3988 9.3311)" style="overflow:visible;"/>
<use xlink:href="#font_1_e"  width="0.6" height="0.7" x="-0.3" y="-0.4" transform="matrix(12 0 0 -12 422.7014 4.8574)" style="overflow:visible;"/>
<use xlink:href="#font_1_e"  width="0.6" height="0.7" x="-0.3" y="-0.4" transform="matrix(12 0 0 -12 430.5794 4.8574)" style="overflow:visible;enable-background:new    ;"/>
<use xlink:href="#font_1_e"  width="0.6" height="0.7" x="-0.3" y="-0.4" transform="matrix(12 0 0 -12 438.4574 4.8574)" style="overflow:visible;enable-background:new    ;"/>
<use xlink:href="#font_1_e"  width="0.6" height="0.7" x="-0.3" y="-0.4" transform="matrix(12 0 0 -12 446.3354 4.8574)" style="overflow:visible;enable-background:new    ;"/>
<use xlink:href="#font_1_12"  width="0.5" height="0.7" x="-0.2" y="-0.4" transform="matrix(12 0 0 -12 453.9908 4.8574)" style="overflow:visible;"/>
<use xlink:href="#font_1_15"  width="0.5" height="0.7" x="-0.3" y="-0.4" transform="matrix(12 0 0 -12 461.4291 4.8574)" style="overflow:visible;"/>
<use xlink:href="#font_1_39"  width="0.5" height="0.5" x="-0.2" y="-0.3" transform="matrix(12 0 0 -12 468.6303 5.9531)" style="overflow:visible;"/>
<use xlink:href="#font_1_36"  width="0.3" height="0.7" x="-0.1" y="-0.3" transform="matrix(12 0 0 -12 473.4498 5.2412)" style="overflow:visible;"/>
<use xlink:href="#font_1_a"  width="0.5" height="0.7" x="-0.2" y="-0.4" transform="matrix(12 0 0 -12 478.8784 4.8574)" style="overflow:visible;enable-background:new    ;"/>
<use xlink:href="#font_1_25"  width="0.4" height="0.5" x="-0.2" y="-0.3" transform="matrix(12 0 0 -12 485.5053 5.9531)" style="overflow:visible;enable-background:new    ;"/>
<use xlink:href="#font_1_1d"  width="0.5" height="0.7" x="-0.3" y="-0.4" transform="matrix(12 0 0 -12 492.6214 4.8574)" style="overflow:visible;"/>
<use xlink:href="#font_1_10"  width="0.5" height="0.7" x="-0.3" y="-0.4" transform="matrix(12 0 0 -12 499.8929 4.8574)" style="overflow:visible;"/>
<use xlink:href="#font_1_20"  width="0.6" height="0.7" x="-0.3" y="-0.4" transform="matrix(12 0 0 -12 507.4807 4.8574)" style="overflow:visible;"/>
<use xlink:href="#font_1_2f"  width="0.7" height="0.5" x="-0.4" y="-0.3" transform="matrix(12 0 0 -12 516.5422 5.8945)" style="overflow:visible;"/>
<use xlink:href="#font_1_2d"  width="0.4" height="0.8" x="-0.2" y="-0.4" transform="matrix(12 0 0 -12 525.2256 4.623)" style="overflow:visible;"/>
<use xlink:href="#font_1_23"  width="0.4" height="0.5" x="-0.2" y="-0.3" transform="matrix(12 0 0 -12 531.1553 5.9531)" style="overflow:visible;enable-background:new    ;"/>
<use xlink:href="#font_1_1c"  width="0.6" height="0.8" x="-0.3" y="-0.4" transform="matrix(12 0 0 -12 538.4883 5.5195)" style="overflow:visible;"/>
<use xlink:href="#font_1_13"  width="0.4" height="0.7" x="-0.2" y="-0.4" transform="matrix(12 0 0 -12 546.2813 4.8574)" style="overflow:visible;"/>
<use xlink:href="#font_1_2e"  width="0.1" height="0.8" x="0" y="-0.4" transform="matrix(12 0 0 -12 550.7375 4.623)" style="overflow:visible;"/>
<use xlink:href="#font_1_17"  width="0.5" height="0.7" x="-0.3" y="-0.4" transform="matrix(12 0 0 -12 556.4123 4.8574)" style="overflow:visible;"/>
<use xlink:href="#font_1_2e"  width="0.1" height="0.8" x="0" y="-0.4" transform="matrix(12 0 0 -12 561.1055 4.623)" style="overflow:visible;enable-background:new    ;"/>
<use xlink:href="#font_1_2b"  width="0.1" height="0.7" x="-0.1" y="-0.4" transform="matrix(12 0 0 -12 563.9942 4.7988)" style="overflow:visible;"/>
<use xlink:href="#font_1_1f"  width="0.5" height="0.7" x="-0.3" y="-0.4" transform="matrix(12 0 0 -12 568.9835 4.8574)" style="overflow:visible;"/>
<use xlink:href="#font_1_18"  width="0.4" height="0.7" x="-0.2" y="-0.4" transform="matrix(12 0 0 -12 576.0938 4.8574)" style="overflow:visible;"/>
<use xlink:href="#font_1_6"  width="0.5" height="0.7" x="-0.2" y="-0.4" transform="matrix(12 0 0 -12 582.2754 4.8574)" style="overflow:visible;enable-background:new    ;"/>
<use xlink:href="#font_1_3b"  width="0.4" height="0.5" x="-0.2" y="-0.3" transform="matrix(12 0 0 -12 588.7998 5.9531)" style="overflow:visible;"/>
<use xlink:href="#font_1_18"  width="0.4" height="0.7" x="-0.2" y="-0.4" transform="matrix(12 0 0 -12 595.3478 4.8574)" style="overflow:visible;enable-background:new    ;"/>
<use xlink:href="#font_1_1d"  width="0.5" height="0.7" x="-0.3" y="-0.4" transform="matrix(12 0 0 -12 602.3556 4.8574)" style="overflow:visible;enable-background:new    ;"/>
<use xlink:href="#font_1_3b"  width="0.4" height="0.5" x="-0.2" y="-0.3" transform="matrix(12 0 0 -12 608.6778 5.9531)" style="overflow:visible;enable-background:new    ;"/>
<use xlink:href="#font_1_5"  width="0.5" height="0.7" x="-0.2" y="-0.4" transform="matrix(12 0 0 -12 615.0734 4.7988)" style="overflow:visible;enable-background:new    ;"/>
<use xlink:href="#font_1_4"  width="0.3" height="0.7" x="-0.1" y="-0.4" transform="matrix(12 0 0 -12 621.0353 4.834)" style="overflow:visible;enable-background:new    ;"/>
<use xlink:href="#font_1_38"  width="0.5" height="0.5" x="-0.2" y="-0.3" transform="matrix(12 0 0 -12 628.0432 5.9531)" style="overflow:visible;"/>
<use xlink:href="#font_1_1e"  width="0.5" height="0.7" x="-0.3" y="-0.4" transform="matrix(12 0 0 -12 634.5969 4.8574)" style="overflow:visible;"/>
<use xlink:href="#font_1_38"  width="0.5" height="0.5" x="-0.2" y="-0.3" transform="matrix(12 0 0 -12 641.0392 5.9531)" style="overflow:visible;enable-background:new    ;"/>
<use xlink:href="#font_1_2c"  width="0.2" height="0.9" x="-0.1" y="-0.5" transform="matrix(12 0 0 -12 644.839 6.0791)" style="overflow:visible;"/>
<use xlink:href="#font_1_20"  width="0.6" height="0.7" x="-0.3" y="-0.4" transform="matrix(12 0 0 -12 650.7189 4.8574)" style="overflow:visible;enable-background:new    ;"/>
<use xlink:href="#font_1_24"  width="0.4" height="0.8" x="-0.2" y="-0.4" transform="matrix(12 0 0 -12 658.0255 4.6816)" style="overflow:visible;enable-background:new    ;"/>
<use xlink:href="#font_1_a"  width="0.5" height="0.7" x="-0.2" y="-0.4" transform="matrix(12 0 0 -12 664.6085 4.8574)" style="overflow:visible;enable-background:new    ;"/>
<use xlink:href="#font_1_11"  width="0.5" height="0.7" x="-0.3" y="-0.4" transform="matrix(12 0 0 -12 672.0968 4.8574)" style="overflow:visible;"/>
<use xlink:href="#font_1_c"  width="0.4" height="0.7" x="-0.2" y="-0.4" transform="matrix(12 0 0 -12 679.1662 4.8047)" style="overflow:visible;enable-background:new    ;"/>
<use xlink:href="#font_1_24"  width="0.4" height="0.8" x="-0.2" y="-0.4" transform="matrix(12 0 0 -12 686.1535 4.6816)" style="overflow:visible;enable-background:new    ;"/>
<use xlink:href="#font_1_3"  width="0.4" height="0.7" x="-0.2" y="-0.4" transform="matrix(12 0 0 -12 692.7658 4.8574)" style="overflow:visible;enable-background:new    ;"/>
<use xlink:href="#font_1_22"  width="0.5" height="0.7" x="-0.3" y="-0.4" transform="matrix(12 0 0 -12 699.759 4.8574)" style="overflow:visible;"/>
<use xlink:href="#font_1_1b"  width="0.5" height="0.7" x="-0.3" y="-0.4" transform="matrix(12 0 0 -12 707.4612 4.8574)" style="overflow:visible;"/>
<use xlink:href="#font_1_21"  width="0.6" height="0.7" x="-0.3" y="-0.4" transform="matrix(12 0 0 -12 714.8001 4.8574)" style="overflow:visible;"/>
<use xlink:href="#font_1_7"  width="0.5" height="0.7" x="-0.3" y="-0.4" transform="matrix(12 0 0 -12 721.9133 4.8574)" style="overflow:visible;enable-background:new    ;"/>
<use xlink:href="#font_1_1f"  width="0.5" height="0.7" x="-0.3" y="-0.4" transform="matrix(12 0 0 -12 728.8596 4.8574)" style="overflow:visible;enable-background:new    ;"/>
<use xlink:href="#font_1_35"  width="0.4" height="0.5" x="-0.2" y="-0.3" transform="matrix(12 0 0 -12 735.4718 5.9531)" style="overflow:visible;"/>
<use xlink:href="#font_1_f"  width="0.5" height="0.7" x="-0.2" y="-0.4" transform="matrix(12 0 0 -12 742.5322 4.8574)" style="overflow:visible;"/>
<use xlink:href="#font_1_14"  width="0.5" height="0.7" x="-0.3" y="-0.4" transform="matrix(12 0 0 -12 750.1496 4.8574)" style="overflow:visible;"/>
<use xlink:href="#font_1_37"  width="0.4" height="0.5" x="-0.2" y="-0.3" transform="matrix(12 0 0 -12 757.5735 6.0117)" style="overflow:visible;"/>
<use xlink:href="#font_1_22"  width="0.5" height="0.7" x="-0.3" y="-0.4" transform="matrix(12 0 0 -12 764.517 4.8574)" style="overflow:visible;enable-background:new    ;"/>
<use xlink:href="#font_1_31"  width="0.5" height="0.5" x="-0.2" y="-0.3" transform="matrix(12 0 0 -12 771.5836 5.9531)" style="overflow:visible;"/>
<use xlink:href="#font_1_13"  width="0.4" height="0.7" x="-0.2" y="-0.4" transform="matrix(12 0 0 -12 778.6616 4.8574)" style="overflow:visible;enable-background:new    ;"/>
<use xlink:href="#font_1_1a"  width="0.5" height="0.7" x="-0.3" y="-0.4" transform="matrix(12 0 0 -12 785.9302 4.8574)" style="overflow:visible;"/>
<use xlink:href="#font_1_33"  width="0.4" height="0.7" x="-0.2" y="-0.4" transform="matrix(12 0 0 -12 793.3922 7.1133)" style="overflow:visible;"/>
<use xlink:href="#font_1_13"  width="0.4" height="0.7" x="-0.2" y="-0.4" transform="matrix(12 0 0 -12 800.6636 4.8574)" style="overflow:visible;enable-background:new    ;"/>
<use xlink:href="#font_1_14"  width="0.5" height="0.7" x="-0.3" y="-0.4" transform="matrix(12 0 0 -12 807.6656 4.8574)" style="overflow:visible;enable-background:new    ;"/>
<use xlink:href="#font_1_26"  width="0.4" height="0.8" x="-0.2" y="-0.4" transform="matrix(12 0 0 -12 815.0251 4.6816)" style="overflow:visible;enable-background:new    ;"/>
<use xlink:href="#font_1_b"  width="0.5" height="0.7" x="-0.2" y="-0.4" transform="matrix(12 0 0 -12 821.9099 4.8574)" style="overflow:visible;enable-background:new    ;"/>
<use xlink:href="#font_1_27"  width="0.4" height="0.5" x="-0.2" y="-0.3" transform="matrix(12 0 0 -12 828.5439 5.9531)" style="overflow:visible;enable-background:new    ;"/>
<use xlink:href="#font_1_e"  width="0.6" height="0.7" x="-0.3" y="-0.4" transform="matrix(12 0 0 -12 835.6068 4.8574)" style="overflow:visible;enable-background:new    ;"/>
<use xlink:href="#font_1_19"  width="0.7" height="0.7" x="-0.4" y="-0.4" transform="matrix(12 0 0 -12 844.7936 4.8574)" style="overflow:visible;"/>
<use xlink:href="#font_1_17"  width="0.5" height="0.7" x="-0.3" y="-0.4" transform="matrix(12 0 0 -12 854.3193 4.8574)" style="overflow:visible;enable-background:new    ;"/>
<use xlink:href="#font_1_16"  width="0.1" height="0.7" x="0" y="-0.4" transform="matrix(12 0 0 -12 859.1972 4.8574)" style="overflow:visible;"/>
<use xlink:href="#font_1_27"  width="0.4" height="0.5" x="-0.2" y="-0.3" transform="matrix(12 0 0 -12 864.0459 5.9531)" style="overflow:visible;enable-background:new    ;"/>
<use xlink:href="#font_1_2e"  width="0.1" height="0.8" x="0" y="-0.4" transform="matrix(12 0 0 -12 868.6425 4.623)" style="overflow:visible;enable-background:new    ;"/>
<use xlink:href="#font_1_17"  width="0.5" height="0.7" x="-0.3" y="-0.4" transform="matrix(12 0 0 -12 874.3233 4.8574)" style="overflow:visible;enable-background:new    ;"/>
<use xlink:href="#font_1_38"  width="0.5" height="0.5" x="-0.2" y="-0.3" transform="matrix(12 0 0 -12 880.4581 5.9531)" style="overflow:visible;enable-background:new    ;"/>
<use xlink:href="#font_1_1c"  width="0.6" height="0.8" x="-0.3" y="-0.4" transform="matrix(12 0 0 -12 887.5333 5.5195)" style="overflow:visible;enable-background:new    ;"/>
<use xlink:href="#font_1_d"  width="0.4" height="0.3" x="-0.2" y="-0.1" transform="matrix(12 0 0 -12 895.0335 5.0977)" style="overflow:visible;"/>
<use xlink:href="#font_1_d"  width="0.4" height="0.3" x="-0.2" y="-0.1" transform="matrix(12 0 0 -12 901.6575 5.0977)" style="overflow:visible;enable-background:new    ;"/>
<path class="st0" d="M417.3,14.6v30.2"/>
<path class="st0" d="M0.5,14.6v30.2"/>
<path class="st0" d="M902.3,14.6v30.2"/>
<path class="st0" d="M0,15.1h902.8"/>
<path class="st0" d="M0,44.3h902.8"/>
<use xlink:href="#font_2_8"  width="0.4" height="0.5" x="-0.2" y="-0.3" transform="matrix(18 0 0 -18 110.6277 31.0082)" style="overflow:visible;"/>
<use xlink:href="#font_2_c"  width="0.4" height="0.5" x="-0.2" y="-0.3" transform="matrix(18 0 0 -18 120.2555 30.9203)" style="overflow:visible;"/>
<use xlink:href="#font_2_6"  width="0.4" height="0.5" x="-0.2" y="-0.3" transform="matrix(18 0 0 -18 130.1061 31.0082)" style="overflow:visible;"/>
<use xlink:href="#font_2_f"  width="0.3" height="0.5" x="-0.1" y="-0.3" transform="matrix(18 0 0 -18 138.1929 30.9203)" style="overflow:visible;"/>
<use xlink:href="#font_2_13"  width="0.5" height="0.7" x="-0.2" y="-0.4" transform="matrix(18 0 0 -18 145.0348 32.9286)" style="overflow:visible;"/>
<use xlink:href="#font_2_e"  width="0.4" height="0.7" x="-0.2" y="-0.4" transform="matrix(18 0 0 -18 154.5336 32.7484)" style="overflow:visible;"/>
<use xlink:href="#font_2_11"  width="0.3" height="0.7" x="-0.1" y="-0.3" transform="matrix(18 0 0 -18 162.0844 29.9403)" style="overflow:visible;"/>
<use xlink:href="#font_2_9"  width="0.1" height="0.7" x="-0.1" y="-0.4" transform="matrix(18 0 0 -18 167.5054 29.2767)" style="overflow:visible;"/>
<use xlink:href="#font_2_d"  width="0.5" height="0.5" x="-0.2" y="-0.3" transform="matrix(18 0 0 -18 174.8025 31.0082)" style="overflow:visible;"/>
<use xlink:href="#font_2_c"  width="0.4" height="0.5" x="-0.2" y="-0.3" transform="matrix(18 0 0 -18 184.9007 30.9203)" style="overflow:visible;enable-background:new    ;"/>
<use xlink:href="#font_2_1"  transform="matrix(18 0 0 -18 189.9261 35.7631)" style="overflow:visible;"/>
<use xlink:href="#font_2_10"  width="0.4" height="0.5" x="-0.2" y="-0.3" transform="matrix(18 0 0 -18 199.0412 31.0082)" style="overflow:visible;"/>
<use xlink:href="#font_2_9"  width="0.1" height="0.7" x="-0.1" y="-0.4" transform="matrix(18 0 0 -18 205.8814 29.2767)" style="overflow:visible;enable-background:new    ;"/>
<use xlink:href="#font_2_7"  width="0.4" height="0.8" x="-0.2" y="-0.4" transform="matrix(18 0 0 -18 212.8929 29.101)" style="overflow:visible;"/>
<use xlink:href="#font_2_8"  width="0.4" height="0.5" x="-0.2" y="-0.3" transform="matrix(18 0 0 -18 223.0233 31.0082)" style="overflow:visible;enable-background:new    ;"/>
<use xlink:href="#font_2_1"  transform="matrix(18 0 0 -18 227.6721 35.7631)" style="overflow:visible;enable-background:new    ;"/>
<use xlink:href="#font_2_e"  width="0.4" height="0.7" x="-0.2" y="-0.4" transform="matrix(18 0 0 -18 237.42 32.7484)" style="overflow:visible;enable-background:new    ;"/>
<use xlink:href="#font_2_12"  width="0.4" height="0.5" x="-0.2" y="-0.3" transform="matrix(18 0 0 -18 247.2471 31.0961)" style="overflow:visible;"/>
<use xlink:href="#font_2_5"  width="0.4" height="0.8" x="-0.2" y="-0.4" transform="matrix(18 0 0 -18 257.4376 29.101)" style="overflow:visible;"/>
<use xlink:href="#font_2_b"  width="0.1" height="0.8" x="0" y="-0.4" transform="matrix(18 0 0 -18 264.4962 29.0131)" style="overflow:visible;"/>
<use xlink:href="#font_2_9"  width="0.1" height="0.7" x="-0.1" y="-0.4" transform="matrix(18 0 0 -18 268.8886 29.2767)" style="overflow:visible;enable-background:new    ;"/>
<use xlink:href="#font_2_6"  width="0.4" height="0.5" x="-0.2" y="-0.3" transform="matrix(18 0 0 -18 275.8737 31.0082)" style="overflow:visible;enable-background:new    ;"/>
<use xlink:href="#font_2_1"  transform="matrix(18 0 0 -18 280.4229 35.7631)" style="overflow:visible;enable-background:new    ;"/>
<use xlink:href="#font_2_a"  width="0.4" height="0.8" x="-0.2" y="-0.4" transform="matrix(18 0 0 -18 290.0961 29.0131)" style="overflow:visible;"/>
<use xlink:href="#font_2_8"  width="0.4" height="0.5" x="-0.2" y="-0.3" transform="matrix(18 0 0 -18 298.8933 31.0082)" style="overflow:visible;enable-background:new    ;"/>
<use xlink:href="#font_2_13"  width="0.5" height="0.7" x="-0.2" y="-0.4" transform="matrix(18 0 0 -18 307.7873 32.9286)" style="overflow:visible;enable-background:new    ;"/>
<use xlink:href="#font_2_5"  width="0.4" height="0.8" x="-0.2" y="-0.4" transform="matrix(18 0 0 -18 615.6281 29.101)" style="overflow:visible;enable-background:new    ;"/>
<use xlink:href="#font_2_4"  width="0.4" height="0.5" x="-0.2" y="-0.3" transform="matrix(18 0 0 -18 625.3751 31.0082)" style="overflow:visible;"/>
<use xlink:href="#font_2_10"  width="0.4" height="0.5" x="-0.2" y="-0.3" transform="matrix(18 0 0 -18 634.8585 31.0082)" style="overflow:visible;enable-background:new    ;"/>
<use xlink:href="#font_2_8"  width="0.4" height="0.5" x="-0.2" y="-0.3" transform="matrix(18 0 0 -18 644.3344 31.0082)" style="overflow:visible;enable-background:new    ;"/>
<use xlink:href="#font_2_3"  width="0.4" height="0.7" x="-0.2" y="-0.4" transform="matrix(18 0 0 -18 654.1897 29.4437)" style="overflow:visible;"/>
<use xlink:href="#font_2_2"  width="0.5" height="0.7" x="-0.3" y="-0.4" transform="matrix(18 0 0 -18 664.1917 29.3646)" style="overflow:visible;"/>
<use xlink:href="#font_2_1"  transform="matrix(18 0 0 -18 669.2278 35.7631)" style="overflow:visible;enable-background:new    ;"/>
<use xlink:href="#font_2_7"  width="0.4" height="0.8" x="-0.2" y="-0.4" transform="matrix(18 0 0 -18 678.5944 29.101)" style="overflow:visible;enable-background:new    ;"/>
<use xlink:href="#font_2_4"  width="0.4" height="0.5" x="-0.2" y="-0.3" transform="matrix(18 0 0 -18 688.7501 31.0082)" style="overflow:visible;enable-background:new    ;"/>
<use xlink:href="#font_2_11"  width="0.3" height="0.7" x="-0.1" y="-0.3" transform="matrix(18 0 0 -18 696.2867 29.9403)" style="overflow:visible;enable-background:new    ;"/>
<use xlink:href="#font_2_4"  width="0.4" height="0.5" x="-0.2" y="-0.3" transform="matrix(18 0 0 -18 704.3741 31.0082)" style="overflow:visible;enable-background:new    ;"/>
<path class="st0" d="M71,165.9v53"/>
<path class="st0" d="M315,165.9v53"/>
<path class="st0" d="M501.1,165.9v53"/>
<path class="st0" d="M658.3,165.9v53"/>
<path class="st0" d="M0,166.4h902.8"/>
<path class="st0" d="M0.5,131.4v87.5"/>
<path class="st0" d="M902.3,131.4v87.5"/>
<path class="st0" d="M0,218.4h902.8"/>
<use xlink:href="#font_1_7"  width="0.5" height="0.7" x="-0.3" y="-0.4" transform="matrix(12 0 0 -12 35.7586 149.8174)" style="overflow:visible;enable-background:new    ;"/>
<use xlink:href="#font_1_1b"  width="0.5" height="0.7" x="-0.3" y="-0.4" transform="matrix(12 0 0 -12 145.7807 149.8174)" style="overflow:visible;enable-background:new    ;"/>
<use xlink:href="#font_1_f"  width="0.5" height="0.7" x="-0.2" y="-0.4" transform="matrix(12 0 0 -12 153.2385 149.8174)" style="overflow:visible;enable-background:new    ;"/>
<use xlink:href="#font_1_17"  width="0.5" height="0.7" x="-0.3" y="-0.4" transform="matrix(12 0 0 -12 161.1095 149.8174)" style="overflow:visible;enable-background:new    ;"/>
<use xlink:href="#font_1_11"  width="0.5" height="0.7" x="-0.3" y="-0.4" transform="matrix(12 0 0 -12 168.4326 149.8174)" style="overflow:visible;enable-background:new    ;"/>
<use xlink:href="#font_1_13"  width="0.4" height="0.7" x="-0.2" y="-0.4" transform="matrix(12 0 0 -12 175.8641 149.8174)" style="overflow:visible;enable-background:new    ;"/>
<use xlink:href="#font_1_5"  width="0.5" height="0.7" x="-0.2" y="-0.4" transform="matrix(12 0 0 -12 182.2849 149.7589)" style="overflow:visible;enable-background:new    ;"/>
<use xlink:href="#font_1_1"  transform="matrix(12 0 0 -12 185.6089 154.0831)" style="overflow:visible;"/>
<use xlink:href="#font_1_35"  width="0.4" height="0.5" x="-0.2" y="-0.3" transform="matrix(12 0 0 -12 191.6928 150.9131)" style="overflow:visible;enable-background:new    ;"/>
<use xlink:href="#font_1_23"  width="0.4" height="0.5" x="-0.2" y="-0.3" transform="matrix(12 0 0 -12 198.1134 150.9131)" style="overflow:visible;enable-background:new    ;"/>
<use xlink:href="#font_1_2e"  width="0.1" height="0.8" x="0" y="-0.4" transform="matrix(12 0 0 -12 202.8143 149.5831)" style="overflow:visible;enable-background:new    ;"/>
<use xlink:href="#font_1_36"  width="0.3" height="0.7" x="-0.1" y="-0.3" transform="matrix(12 0 0 -12 206.0094 150.2012)" style="overflow:visible;enable-background:new    ;"/>
<use xlink:href="#font_1_1"  transform="matrix(12 0 0 -12 208.0969 154.0831)" style="overflow:visible;enable-background:new    ;"/>
<use xlink:href="#font_1_2e"  width="0.1" height="0.8" x="0" y="-0.4" transform="matrix(12 0 0 -12 212.5607 149.5831)" style="overflow:visible;enable-background:new    ;"/>
<use xlink:href="#font_1_27"  width="0.4" height="0.5" x="-0.2" y="-0.3" transform="matrix(12 0 0 -12 217.2089 150.9131)" style="overflow:visible;enable-background:new    ;"/>
<use xlink:href="#font_1_30"  width="0.4" height="0.5" x="-0.2" y="-0.3" transform="matrix(12 0 0 -12 223.6707 150.8546)" style="overflow:visible;"/>
<use xlink:href="#font_1_29"  width="0.4" height="0.7" x="-0.2" y="-0.4" transform="matrix(12 0 0 -12 230.2233 152.1055)" style="overflow:visible;"/>
<use xlink:href="#font_1_36"  width="0.3" height="0.7" x="-0.1" y="-0.3" transform="matrix(12 0 0 -12 235.5102 150.2012)" style="overflow:visible;enable-background:new    ;"/>
<use xlink:href="#font_1_2a"  width="0.4" height="0.8" x="-0.2" y="-0.4" transform="matrix(12 0 0 -12 240.9171 149.5831)" style="overflow:visible;"/>
<use xlink:href="#font_1_4"  width="0.3" height="0.7" x="-0.1" y="-0.4" transform="matrix(12 0 0 -12 403.9173 149.794)" style="overflow:visible;enable-background:new    ;"/>
<use xlink:href="#font_1_5"  width="0.5" height="0.7" x="-0.2" y="-0.4" transform="matrix(12 0 0 -12 411.4554 149.7589)" style="overflow:visible;enable-background:new    ;"/>
<use xlink:href="#font_1_38"  width="0.5" height="0.5" x="-0.2" y="-0.3" transform="matrix(12 0 0 -12 561.6744 150.9131)" style="overflow:visible;enable-background:new    ;"/>
<use xlink:href="#font_1_23"  width="0.4" height="0.5" x="-0.2" y="-0.3" transform="matrix(12 0 0 -12 567.91 150.9131)" style="overflow:visible;enable-background:new    ;"/>
<use xlink:href="#font_1_34"  width="0.3" height="0.5" x="-0.1" y="-0.3" transform="matrix(12 0 0 -12 573.5127 150.8546)" style="overflow:visible;"/>
<use xlink:href="#font_1_2b"  width="0.1" height="0.7" x="-0.1" y="-0.4" transform="matrix(12 0 0 -12 576.7512 149.7589)" style="overflow:visible;enable-background:new    ;"/>
<use xlink:href="#font_1_23"  width="0.4" height="0.5" x="-0.2" y="-0.3" transform="matrix(12 0 0 -12 581.4076 150.9131)" style="overflow:visible;enable-background:new    ;"/>
<use xlink:href="#font_1_24"  width="0.4" height="0.8" x="-0.2" y="-0.4" transform="matrix(12 0 0 -12 588.1588 149.6417)" style="overflow:visible;enable-background:new    ;"/>
<use xlink:href="#font_1_2e"  width="0.1" height="0.8" x="0" y="-0.4" transform="matrix(12 0 0 -12 592.8621 149.5831)" style="overflow:visible;enable-background:new    ;"/>
<use xlink:href="#font_1_27"  width="0.4" height="0.5" x="-0.2" y="-0.3" transform="matrix(12 0 0 -12 597.5127 150.9131)" style="overflow:visible;enable-background:new    ;"/>
<use xlink:href="#font_1_4"  width="0.3" height="0.7" x="-0.1" y="-0.4" transform="matrix(12 0 0 -12 776.2066 149.794)" style="overflow:visible;enable-background:new    ;"/>
<use xlink:href="#font_1_9"  width="0.4" height="0.7" x="-0.2" y="-0.4" transform="matrix(12 0 0 -12 783.7945 149.8702)" style="overflow:visible;enable-background:new    ;"/>
<g>
	<g>
		
			<use xlink:href="#font_1_1b"  width="0.5" height="0.7" x="-0.3" y="-0.4" transform="matrix(12 0 0 -12 6.6141 186.0575)" style="overflow:visible;"/>
		
			<use xlink:href="#font_1_f"  width="0.5" height="0.7" x="-0.2" y="-0.4" transform="matrix(12 0 0 -12 14.0719 186.0575)" style="overflow:visible;"/>
		
			<use xlink:href="#font_1_17"  width="0.5" height="0.7" x="-0.3" y="-0.4" transform="matrix(12 0 0 -12 21.9429 186.0575)" style="overflow:visible;"/>
		
			<use xlink:href="#font_1_11"  width="0.5" height="0.7" x="-0.3" y="-0.4" transform="matrix(12 0 0 -12 29.266 186.0575)" style="overflow:visible;"/>
		
			<use xlink:href="#font_1_13"  width="0.4" height="0.7" x="-0.2" y="-0.4" transform="matrix(12 0 0 -12 36.6975 186.0575)" style="overflow:visible;"/>
		
			<use xlink:href="#font_1_5"  width="0.5" height="0.7" x="-0.2" y="-0.4" transform="matrix(12 0 0 -12 43.1183 185.9989)" style="overflow:visible;"/>
		<use xlink:href="#font_1_1"  transform="matrix(12 0 0 -12 46.4423 190.3231)" style="overflow:visible;"/>
		
			<use xlink:href="#font_1_35"  width="0.4" height="0.5" x="-0.2" y="-0.3" transform="matrix(12 0 0 -12 52.5262 187.1532)" style="overflow:visible;"/>
		
			<use xlink:href="#font_1_23"  width="0.4" height="0.5" x="-0.2" y="-0.3" transform="matrix(12 0 0 -12 58.9468 187.1532)" style="overflow:visible;"/>
		
			<use xlink:href="#font_1_2e"  width="0.1" height="0.8" x="0" y="-0.4" transform="matrix(12 0 0 -12 63.6477 185.8231)" style="overflow:visible;"/>
		
			<use xlink:href="#font_1_36"  width="0.3" height="0.7" x="-0.1" y="-0.3" transform="matrix(12 0 0 -12 66.8428 186.4413)" style="overflow:visible;"/>
		<use xlink:href="#font_1_1"  transform="matrix(12 0 0 -12 68.9303 190.3231)" style="overflow:visible;"/>
	</g>
</g>
<use xlink:href="#font_1_2e"  width="0.1" height="0.8" x="0" y="-0.4" transform="matrix(12 0 0 -12 20.6375 200.9431)" style="overflow:visible;enable-background:new    ;"/>
<use xlink:href="#font_1_27"  width="0.4" height="0.5" x="-0.2" y="-0.3" transform="matrix(12 0 0 -12 25.2881 202.2732)" style="overflow:visible;enable-background:new    ;"/>
<use xlink:href="#font_1_30"  width="0.4" height="0.5" x="-0.2" y="-0.3" transform="matrix(12 0 0 -12 31.7523 202.2146)" style="overflow:visible;enable-background:new    ;"/>
<use xlink:href="#font_1_29"  width="0.4" height="0.7" x="-0.2" y="-0.4" transform="matrix(12 0 0 -12 38.3073 203.4656)" style="overflow:visible;enable-background:new    ;"/>
<use xlink:href="#font_1_36"  width="0.3" height="0.7" x="-0.1" y="-0.3" transform="matrix(12 0 0 -12 43.5966 201.5613)" style="overflow:visible;enable-background:new    ;"/>
<use xlink:href="#font_1_2a"  width="0.4" height="0.8" x="-0.2" y="-0.4" transform="matrix(12 0 0 -12 49.0058 200.9431)" style="overflow:visible;enable-background:new    ;"/>
<use xlink:href="#font_1_1b"  width="0.5" height="0.7" x="-0.3" y="-0.4" transform="matrix(12 0 0 -12 163.8432 193.2574)" style="overflow:visible;enable-background:new    ;"/>
<use xlink:href="#font_1_f"  width="0.5" height="0.7" x="-0.2" y="-0.4" transform="matrix(12 0 0 -12 171.301 193.2574)" style="overflow:visible;enable-background:new    ;"/>
<use xlink:href="#font_1_17"  width="0.5" height="0.7" x="-0.3" y="-0.4" transform="matrix(12 0 0 -12 179.172 193.2574)" style="overflow:visible;enable-background:new    ;"/>
<use xlink:href="#font_1_11"  width="0.5" height="0.7" x="-0.3" y="-0.4" transform="matrix(12 0 0 -12 186.4951 193.2574)" style="overflow:visible;enable-background:new    ;"/>
<use xlink:href="#font_1_13"  width="0.4" height="0.7" x="-0.2" y="-0.4" transform="matrix(12 0 0 -12 193.9266 193.2574)" style="overflow:visible;enable-background:new    ;"/>
<use xlink:href="#font_1_5"  width="0.5" height="0.7" x="-0.2" y="-0.4" transform="matrix(12 0 0 -12 200.3474 193.1989)" style="overflow:visible;enable-background:new    ;"/>
<use xlink:href="#font_1_1"  transform="matrix(12 0 0 -12 203.6714 197.5231)" style="overflow:visible;enable-background:new    ;"/>
<use xlink:href="#font_1_35"  width="0.4" height="0.5" x="-0.2" y="-0.3" transform="matrix(12 0 0 -12 209.7553 194.3531)" style="overflow:visible;enable-background:new    ;"/>
<use xlink:href="#font_1_23"  width="0.4" height="0.5" x="-0.2" y="-0.3" transform="matrix(12 0 0 -12 216.1759 194.3531)" style="overflow:visible;enable-background:new    ;"/>
<use xlink:href="#font_1_2e"  width="0.1" height="0.8" x="0" y="-0.4" transform="matrix(12 0 0 -12 220.8768 193.0231)" style="overflow:visible;enable-background:new    ;"/>
<use xlink:href="#font_1_36"  width="0.3" height="0.7" x="-0.1" y="-0.3" transform="matrix(12 0 0 -12 224.0719 193.6412)" style="overflow:visible;enable-background:new    ;"/>
<use xlink:href="#font_1_2b"  width="0.1" height="0.7" x="-0.1" y="-0.4" transform="matrix(12 0 0 -12 359.2542 193.1989)" style="overflow:visible;enable-background:new    ;"/>
<use xlink:href="#font_1_30"  width="0.4" height="0.5" x="-0.2" y="-0.3" transform="matrix(12 0 0 -12 363.9751 194.2946)" style="overflow:visible;enable-background:new    ;"/>
<use xlink:href="#font_1_2b"  width="0.1" height="0.7" x="-0.1" y="-0.4" transform="matrix(12 0 0 -12 368.7606 193.1989)" style="overflow:visible;enable-background:new    ;"/>
<use xlink:href="#font_1_36"  width="0.3" height="0.7" x="-0.1" y="-0.3" transform="matrix(12 0 0 -12 371.9434 193.6412)" style="overflow:visible;enable-background:new    ;"/>
<use xlink:href="#font_1_2b"  width="0.1" height="0.7" x="-0.1" y="-0.4" transform="matrix(12 0 0 -12 375.507 193.1989)" style="overflow:visible;enable-background:new    ;"/>
<use xlink:href="#font_1_23"  width="0.4" height="0.5" x="-0.2" y="-0.3" transform="matrix(12 0 0 -12 380.1634 194.3531)" style="overflow:visible;enable-background:new    ;"/>
<use xlink:href="#font_1_2e"  width="0.1" height="0.8" x="0" y="-0.4" transform="matrix(12 0 0 -12 384.8667 193.0231)" style="overflow:visible;enable-background:new    ;"/>
<use xlink:href="#font_1_2b"  width="0.1" height="0.7" x="-0.1" y="-0.4" transform="matrix(12 0 0 -12 387.7566 193.1989)" style="overflow:visible;enable-background:new    ;"/>
<use xlink:href="#font_1_3b"  width="0.4" height="0.5" x="-0.2" y="-0.3" transform="matrix(12 0 0 -12 392.1933 194.3531)" style="overflow:visible;enable-background:new    ;"/>
<use xlink:href="#font_1_23"  width="0.4" height="0.5" x="-0.2" y="-0.3" transform="matrix(12 0 0 -12 398.4082 194.3531)" style="overflow:visible;enable-background:new    ;"/>
<use xlink:href="#font_1_36"  width="0.3" height="0.7" x="-0.1" y="-0.3" transform="matrix(12 0 0 -12 403.4338 193.6412)" style="overflow:visible;enable-background:new    ;"/>
<use xlink:href="#font_1_2b"  width="0.1" height="0.7" x="-0.1" y="-0.4" transform="matrix(12 0 0 -12 406.9974 193.1989)" style="overflow:visible;enable-background:new    ;"/>
<use xlink:href="#font_1_31"  width="0.5" height="0.5" x="-0.2" y="-0.3" transform="matrix(12 0 0 -12 411.8238 194.3531)" style="overflow:visible;enable-background:new    ;"/>
<use xlink:href="#font_1_30"  width="0.4" height="0.5" x="-0.2" y="-0.3" transform="matrix(12 0 0 -12 418.5895 194.2946)" style="overflow:visible;enable-background:new    ;"/>
<use xlink:href="#font_1_1"  transform="matrix(12 0 0 -12 421.9013 197.5231)" style="overflow:visible;enable-background:new    ;"/>
<use xlink:href="#font_1_38"  width="0.5" height="0.5" x="-0.2" y="-0.3" transform="matrix(12 0 0 -12 427.7911 194.3531)" style="overflow:visible;enable-background:new    ;"/>
<use xlink:href="#font_1_27"  width="0.4" height="0.5" x="-0.2" y="-0.3" transform="matrix(12 0 0 -12 434.0061 194.3531)" style="overflow:visible;enable-background:new    ;"/>
<use xlink:href="#font_1_25"  width="0.4" height="0.5" x="-0.2" y="-0.3" transform="matrix(12 0 0 -12 440.3678 194.3531)" style="overflow:visible;enable-background:new    ;"/>
<use xlink:href="#font_1_36"  width="0.3" height="0.7" x="-0.1" y="-0.3" transform="matrix(12 0 0 -12 445.1794 193.6412)" style="overflow:visible;enable-background:new    ;"/>
<use xlink:href="#font_1_31"  width="0.5" height="0.5" x="-0.2" y="-0.3" transform="matrix(12 0 0 -12 450.6942 194.3531)" style="overflow:visible;enable-background:new    ;"/>
<use xlink:href="#font_1_34"  width="0.3" height="0.5" x="-0.1" y="-0.3" transform="matrix(12 0 0 -12 456.4989 194.2946)" style="overflow:visible;enable-background:new    ;"/>
<use xlink:href="#font_1_27"  width="0.4" height="0.5" x="-0.2" y="-0.3" transform="matrix(12 0 0 -12 515.0768 194.3531)" style="overflow:visible;enable-background:new    ;"/>
<use xlink:href="#font_1_30"  width="0.4" height="0.5" x="-0.2" y="-0.3" transform="matrix(12 0 0 -12 521.5361 194.2946)" style="overflow:visible;enable-background:new    ;"/>
<use xlink:href="#font_1_25"  width="0.4" height="0.5" x="-0.2" y="-0.3" transform="matrix(12 0 0 -12 528.06 194.3531)" style="overflow:visible;enable-background:new    ;"/>
<use xlink:href="#font_1_34"  width="0.3" height="0.5" x="-0.1" y="-0.3" transform="matrix(12 0 0 -12 533.456 194.2946)" style="overflow:visible;enable-background:new    ;"/>
<use xlink:href="#font_1_3a"  width="0.5" height="0.7" x="-0.2" y="-0.4" transform="matrix(12 0 0 -12 538.0581 195.6334)" style="overflow:visible;"/>
<use xlink:href="#font_1_32"  width="0.4" height="0.7" x="-0.2" y="-0.4" transform="matrix(12 0 0 -12 544.3474 195.5133)" style="overflow:visible;"/>
<use xlink:href="#font_1_36"  width="0.3" height="0.7" x="-0.1" y="-0.3" transform="matrix(12 0 0 -12 549.3741 193.6412)" style="overflow:visible;enable-background:new    ;"/>
<use xlink:href="#font_1_27"  width="0.4" height="0.5" x="-0.2" y="-0.3" transform="matrix(12 0 0 -12 554.7056 194.3531)" style="overflow:visible;enable-background:new    ;"/>
<use xlink:href="#font_1_26"  width="0.4" height="0.8" x="-0.2" y="-0.4" transform="matrix(12 0 0 -12 561.08 193.0817)" style="overflow:visible;enable-background:new    ;"/>
<use xlink:href="#font_1_1"  transform="matrix(12 0 0 -12 564.592 197.5231)" style="overflow:visible;enable-background:new    ;"/>
<use xlink:href="#font_1_24"  width="0.4" height="0.8" x="-0.2" y="-0.4" transform="matrix(12 0 0 -12 571.1013 193.0817)" style="overflow:visible;enable-background:new    ;"/>
<use xlink:href="#font_1_2b"  width="0.1" height="0.7" x="-0.1" y="-0.4" transform="matrix(12 0 0 -12 575.8145 193.1989)" style="overflow:visible;enable-background:new    ;"/>
<use xlink:href="#font_1_30"  width="0.4" height="0.5" x="-0.2" y="-0.3" transform="matrix(12 0 0 -12 580.5305 194.2946)" style="overflow:visible;enable-background:new    ;"/>
<use xlink:href="#font_1_23"  width="0.4" height="0.5" x="-0.2" y="-0.3" transform="matrix(12 0 0 -12 587.0925 194.3531)" style="overflow:visible;enable-background:new    ;"/>
<use xlink:href="#font_1_34"  width="0.3" height="0.5" x="-0.1" y="-0.3" transform="matrix(12 0 0 -12 592.6904 194.2946)" style="overflow:visible;enable-background:new    ;"/>
<use xlink:href="#font_1_3a"  width="0.5" height="0.7" x="-0.2" y="-0.4" transform="matrix(12 0 0 -12 597.2925 195.6334)" style="overflow:visible;enable-background:new    ;"/>
<use xlink:href="#font_1_1"  transform="matrix(12 0 0 -12 600.0808 197.5231)" style="overflow:visible;enable-background:new    ;"/>
<use xlink:href="#font_1_31"  width="0.5" height="0.5" x="-0.2" y="-0.3" transform="matrix(12 0 0 -12 606.508 194.3531)" style="overflow:visible;enable-background:new    ;"/>
<use xlink:href="#font_1_28"  width="0.3" height="0.8" x="-0.2" y="-0.4" transform="matrix(12 0 0 -12 612.235 192.9615)" style="overflow:visible;enable-background:new    ;"/>
<use xlink:href="#font_1_1"  transform="matrix(12 0 0 -12 614.08 197.5231)" style="overflow:visible;enable-background:new    ;"/>
<use xlink:href="#font_1_35"  width="0.4" height="0.5" x="-0.2" y="-0.3" transform="matrix(12 0 0 -12 620.1615 194.3531)" style="overflow:visible;enable-background:new    ;"/>
<use xlink:href="#font_1_36"  width="0.3" height="0.7" x="-0.1" y="-0.3" transform="matrix(12 0 0 -12 625.118 193.6412)" style="overflow:visible;enable-background:new    ;"/>
<use xlink:href="#font_1_34"  width="0.3" height="0.5" x="-0.1" y="-0.3" transform="matrix(12 0 0 -12 629.5736 194.2946)" style="overflow:visible;enable-background:new    ;"/>
<use xlink:href="#font_1_2b"  width="0.1" height="0.7" x="-0.1" y="-0.4" transform="matrix(12 0 0 -12 632.8193 193.1989)" style="overflow:visible;enable-background:new    ;"/>
<use xlink:href="#font_1_30"  width="0.4" height="0.5" x="-0.2" y="-0.3" transform="matrix(12 0 0 -12 637.5353 194.2946)" style="overflow:visible;enable-background:new    ;"/>
<use xlink:href="#font_1_29"  width="0.4" height="0.7" x="-0.2" y="-0.4" transform="matrix(12 0 0 -12 644.0856 195.5455)" style="overflow:visible;enable-background:new    ;"/>
<use xlink:href="#font_1_23"  width="0.4" height="0.5" x="-0.2" y="-0.3" transform="matrix(12 0 0 -12 735.3249 194.3531)" style="overflow:visible;enable-background:new    ;"/>
<use xlink:href="#font_1_37"  width="0.4" height="0.5" x="-0.2" y="-0.3" transform="matrix(12 0 0 -12 741.8693 194.4117)" style="overflow:visible;enable-background:new    ;"/>
<use xlink:href="#font_1_36"  width="0.3" height="0.7" x="-0.1" y="-0.3" transform="matrix(12 0 0 -12 746.972 193.6412)" style="overflow:visible;enable-background:new    ;"/>
<use xlink:href="#font_1_2a"  width="0.4" height="0.8" x="-0.2" y="-0.4" transform="matrix(12 0 0 -12 752.3826 193.0231)" style="overflow:visible;enable-background:new    ;"/>
<use xlink:href="#font_1_27"  width="0.4" height="0.5" x="-0.2" y="-0.3" transform="matrix(12 0 0 -12 758.918 194.3531)" style="overflow:visible;enable-background:new    ;"/>
<use xlink:href="#font_1_30"  width="0.4" height="0.5" x="-0.2" y="-0.3" transform="matrix(12 0 0 -12 765.3834 194.2946)" style="overflow:visible;enable-background:new    ;"/>
<use xlink:href="#font_1_36"  width="0.3" height="0.7" x="-0.1" y="-0.3" transform="matrix(12 0 0 -12 770.4656 193.6412)" style="overflow:visible;enable-background:new    ;"/>
<use xlink:href="#font_1_2b"  width="0.1" height="0.7" x="-0.1" y="-0.4" transform="matrix(12 0 0 -12 774.0305 193.1989)" style="overflow:visible;enable-background:new    ;"/>
<use xlink:href="#font_1_25"  width="0.4" height="0.5" x="-0.2" y="-0.3" transform="matrix(12 0 0 -12 778.65 194.3531)" style="overflow:visible;enable-background:new    ;"/>
<use xlink:href="#font_1_23"  width="0.4" height="0.5" x="-0.2" y="-0.3" transform="matrix(12 0 0 -12 784.9365 194.3531)" style="overflow:visible;enable-background:new    ;"/>
<use xlink:href="#font_1_36"  width="0.3" height="0.7" x="-0.1" y="-0.3" transform="matrix(12 0 0 -12 789.9633 193.6412)" style="overflow:visible;enable-background:new    ;"/>
<use xlink:href="#font_1_2b"  width="0.1" height="0.7" x="-0.1" y="-0.4" transform="matrix(12 0 0 -12 793.528 193.1989)" style="overflow:visible;enable-background:new    ;"/>
<use xlink:href="#font_1_31"  width="0.5" height="0.5" x="-0.2" y="-0.3" transform="matrix(12 0 0 -12 798.3556 194.3531)" style="overflow:visible;enable-background:new    ;"/>
<use xlink:href="#font_1_30"  width="0.4" height="0.5" x="-0.2" y="-0.3" transform="matrix(12 0 0 -12 805.1226 194.2946)" style="overflow:visible;enable-background:new    ;"/>
<use xlink:href="#font_1_1"  transform="matrix(12 0 0 -12 808.4236 197.5231)" style="overflow:visible;enable-background:new    ;"/>
<use xlink:href="#font_1_36"  width="0.3" height="0.7" x="-0.1" y="-0.3" transform="matrix(12 0 0 -12 813.2013 193.6412)" style="overflow:visible;enable-background:new    ;"/>
<use xlink:href="#font_1_23"  width="0.4" height="0.5" x="-0.2" y="-0.3" transform="matrix(12 0 0 -12 818.5473 194.3531)" style="overflow:visible;enable-background:new    ;"/>
<use xlink:href="#font_1_29"  width="0.4" height="0.7" x="-0.2" y="-0.4" transform="matrix(12 0 0 -12 825.036 195.5455)" style="overflow:visible;enable-background:new    ;"/>
<path class="st1" d="M417.6,44.3L0.5,131.4"/>
<path class="st1" d="M902.3,44.3l0,87.1"/>
</svg>
