<?xml version="1.0" standalone="no"?>
<!DOCTYPE svg PUBLIC "-//W3C//DTD SVG 20010904//EN"
 "http://www.w3.org/TR/2001/REC-SVG-20010904/DTD/svg10.dtd">
<svg version="1.0" xmlns="http://www.w3.org/2000/svg"
 width="1191.000000pt" height="1191.000000pt" viewBox="0 0 1191.000000 1191.000000"
 preserveAspectRatio="xMidYMid meet">
<metadata>
Created by potrace 1.11, written by Peter Selinger 2001-2013
</metadata>
<g transform="translate(0.000000,1191.000000) scale(0.100000,-0.100000)"
fill="#000000" stroke="none">
<path d="M5749 11906 c-2 -2 -38 -6 -79 -10 -73 -5 -128 -11 -220 -22 -84 -11
-95 -12 -95 -14 0 -1 -9 -3 -20 -4 -27 -4 -105 -17 -130 -23 -11 -2 -33 -7
-50 -9 -75 -14 -311 -78 -432 -119 -136 -46 -201 -71 -338 -130 -77 -34 -261
-126 -330 -165 -38 -23 -81 -46 -95 -53 -14 -6 -29 -15 -35 -20 -5 -4 -70 -47
-143 -95 -73 -49 -142 -97 -155 -108 -12 -11 -38 -30 -57 -44 -19 -13 -37 -27
-40 -30 -3 -3 -39 -33 -80 -67 -142 -116 -430 -399 -430 -423 0 -4 -4 -10 -9
-12 -5 -1 -36 -37 -70 -78 -33 -41 -67 -82 -75 -90 -17 -20 -113 -152 -151
-210 -17 -25 -32 -47 -35 -50 -10 -10 -31 -45 -36 -62 -4 -10 -10 -18 -15 -18
-5 0 -9 -4 -9 -9 0 -5 -18 -39 -40 -75 -23 -37 -48 -83 -58 -104 -9 -20 -20
-39 -23 -42 -7 -6 -119 -236 -119 -244 0 -3 -11 -29 -24 -58 -13 -29 -31 -73
-41 -98 -10 -25 -21 -54 -26 -65 -12 -29 -61 -176 -63 -189 -1 -6 -5 -16 -8
-22 -4 -6 -9 -21 -12 -35 -2 -13 -14 -59 -26 -101 -11 -43 -23 -85 -25 -95
-20 -94 -44 -215 -49 -243 -3 -19 -8 -46 -10 -60 -3 -14 -7 -43 -10 -65 -3
-22 -8 -58 -11 -80 -10 -67 -14 -132 -21 -317 l-7 -176 54 -63 c30 -35 59 -69
64 -75 6 -7 30 -35 55 -64 25 -29 52 -61 60 -70 8 -10 35 -42 60 -71 55 -65
276 -323 312 -364 14 -16 45 -52 68 -80 37 -45 70 -83 140 -165 12 -14 39 -45
60 -70 22 -25 49 -56 60 -70 12 -14 31 -36 43 -50 12 -14 47 -54 77 -90 30
-36 67 -78 81 -95 25 -28 205 -239 232 -271 6 -8 17 -20 23 -27 23 -27 140
-164 159 -186 11 -13 34 -39 52 -58 17 -18 28 -33 25 -33 -4 0 -2 -4 3 -8 6
-4 35 -36 65 -72 30 -35 64 -74 75 -85 11 -12 36 -41 55 -64 19 -24 40 -48 46
-54 5 -7 39 -46 74 -87 35 -41 69 -78 75 -82 5 -4 7 -8 3 -8 -3 0 6 -12 20
-27 15 -16 47 -52 72 -82 25 -30 80 -95 124 -145 43 -50 88 -102 100 -116 23
-28 116 -137 156 -184 14 -16 35 -39 48 -52 12 -13 22 -26 22 -30 0 -3 15 -21
33 -39 17 -18 48 -52 67 -75 19 -24 64 -77 100 -119 36 -41 70 -82 75 -89 6
-7 17 -21 26 -30 9 -9 44 -51 79 -92 35 -41 68 -79 74 -85 6 -5 23 -26 37 -45
15 -19 37 -46 49 -59 13 -12 50 -55 84 -95 33 -39 67 -78 74 -86 7 -8 26 -31
42 -50 17 -19 40 -48 53 -64 12 -15 37 -43 55 -62 18 -19 31 -34 28 -34 -2 0
10 -15 27 -33 18 -18 48 -53 67 -77 19 -24 42 -51 50 -59 9 -9 40 -45 70 -81
30 -36 61 -72 70 -81 24 -25 94 -110 103 -125 6 -11 -1 -14 -30 -15 -37 -2
-74 -5 -163 -13 -25 -3 -76 -7 -115 -11 -38 -3 -88 -8 -110 -10 -22 -3 -74 -7
-115 -11 -77 -6 -97 -7 -235 -19 -92 -7 -158 -20 -189 -37 -11 -7 -24 -11 -28
-10 -5 1 -8 -2 -8 -8 0 -5 -6 -10 -13 -10 -14 0 -83 -69 -114 -115 -29 -43
-54 -121 -55 -174 -1 -41 5 -132 17 -256 11 -119 16 -175 20 -220 2 -27 6 -79
10 -115 3 -36 8 -92 11 -125 2 -33 6 -78 8 -100 4 -44 13 -142 22 -250 3 -38
7 -86 9 -105 2 -19 6 -69 10 -110 3 -41 8 -93 10 -115 3 -22 7 -74 10 -115 4
-41 8 -93 10 -115 2 -22 6 -69 9 -105 14 -157 16 -188 22 -240 6 -62 13 -148
19 -230 2 -30 6 -77 9 -105 3 -27 8 -79 11 -115 2 -36 7 -90 9 -120 3 -30 8
-84 12 -120 10 -112 19 -149 48 -205 40 -76 146 -163 221 -181 51 -12 287 -6
415 11 19 3 64 7 100 10 36 3 88 8 115 10 28 3 86 7 130 11 104 8 150 12 150
14 0 1 25 3 55 5 68 4 163 12 355 30 33 3 89 8 125 11 36 2 81 6 100 9 36 4
149 14 230 20 58 4 173 14 230 20 25 3 74 8 110 10 144 11 187 15 230 20 25 3
77 8 115 10 39 3 93 7 120 10 124 11 183 17 221 20 89 6 188 55 251 124 13 14
38 55 56 91 40 82 41 129 12 450 -3 25 -7 77 -9 115 -3 39 -6 70 -6 70 -1 0
-3 16 -5 35 -1 19 -6 71 -9 115 -4 44 -10 107 -12 140 -3 33 -7 76 -9 95 -2
19 -7 71 -10 115 -3 44 -8 100 -11 125 -2 25 -6 70 -9 100 -2 30 -7 82 -10
115 -6 63 -14 159 -20 235 -2 25 -6 68 -9 95 -7 78 -23 267 -31 365 -2 25 -4
45 -5 45 0 0 -3 23 -5 50 -2 28 -6 82 -10 120 -3 39 -8 99 -11 135 -3 36 -7
81 -9 100 -2 19 -7 71 -10 115 -4 44 -8 96 -10 115 -12 149 -110 274 -255 325
-44 16 -150 20 -250 9 -61 -6 -101 -10 -195 -18 -44 -4 -105 -9 -135 -12 -30
-3 -77 -7 -105 -9 -27 -2 -77 -6 -110 -9 -33 -3 -86 -8 -118 -10 -32 -3 -62
-8 -67 -11 -22 -13 -7 22 46 114 31 53 65 108 75 123 11 15 19 29 19 31 0 3
24 44 53 93 29 49 56 96 60 104 4 8 25 44 47 79 22 34 40 65 40 67 0 3 16 30
35 60 19 30 35 59 35 64 0 6 5 10 10 10 6 0 10 4 10 9 0 13 132 235 142 239 4
2 6 7 3 12 -3 5 1 14 8 22 7 7 27 38 44 68 16 30 39 69 49 87 10 17 54 92 98
165 43 73 96 161 117 196 22 35 39 65 39 68 0 3 16 30 35 60 19 30 35 57 35
60 0 3 13 25 30 49 16 24 35 54 40 67 6 13 18 35 28 50 33 50 72 121 72 129 0
5 5 9 10 9 6 0 10 5 10 10 0 6 16 36 35 66 19 30 35 56 35 59 0 3 16 29 35 59
19 30 35 60 35 66 0 5 5 10 10 10 6 0 10 4 10 9 0 9 69 131 80 141 3 3 13 21
23 40 35 65 52 95 58 100 4 3 16 23 28 45 12 22 29 54 39 70 10 17 44 75 77
130 32 55 63 103 69 107 6 4 7 8 2 8 -5 0 -2 8 6 18 8 9 18 24 22 32 7 15 12
24 52 90 38 62 228 384 249 421 23 40 218 370 253 427 12 20 25 44 29 52 4 8
35 61 70 119 35 57 63 107 63 112 0 5 5 9 10 9 6 0 10 5 10 10 0 6 28 57 61
113 34 56 71 118 82 137 11 19 27 47 36 62 9 14 34 57 55 94 22 37 86 146 143
242 57 95 100 178 97 184 -4 7 -2 8 4 4 15 -9 15 4 -2 79 -7 33 -13 62 -13 65
-1 3 -4 23 -8 45 -4 22 -8 45 -10 50 -7 24 -9 32 -17 65 -8 32 -15 60 -22 85
-1 6 -8 30 -15 55 -7 25 -22 74 -34 110 -11 36 -21 67 -22 70 0 6 -7 23 -60
160 -20 52 -44 111 -52 130 -25 57 -93 204 -105 224 -79 144 -103 188 -137
244 -50 85 -153 237 -162 240 -5 2 -9 8 -9 13 0 8 -20 35 -47 64 -7 8 -13 17
-13 20 0 4 -12 22 -27 39 -16 18 -46 55 -68 82 -22 27 -52 61 -67 77 -14 15
-24 27 -21 27 10 0 -300 305 -379 373 -100 85 -314 247 -328 247 -5 0 -10 4
-10 8 0 4 -15 16 -32 26 -18 11 -43 28 -55 39 -13 11 -23 17 -23 12 0 -4 -8
-1 -17 7 -18 15 -113 73 -188 115 -45 25 -251 127 -335 165 -30 14 -113 47
-185 73 -71 26 -139 51 -150 56 -88 36 -452 126 -585 144 -14 2 -25 4 -25 5 0
1 -11 3 -25 5 -14 1 -47 5 -75 9 -104 14 -131 17 -175 22 -54 6 -586 15 -591
10z m3724 -3304 c-3 -9 -11 -24 -18 -32 -18 -23 -95 -158 -95 -166 0 -4 -6
-15 -14 -23 -8 -9 -25 -34 -37 -57 -20 -34 -73 -124 -163 -277 -10 -18 -47
-80 -82 -138 -35 -59 -64 -112 -64 -118 0 -6 -3 -11 -8 -11 -4 0 -16 -17 -27
-37 -17 -33 -48 -86 -92 -158 -22 -37 -77 -130 -88 -150 -20 -35 -117 -199
-141 -237 -13 -21 -24 -40 -24 -43 0 -2 -20 -36 -45 -75 -25 -39 -45 -72 -45
-74 0 -1 -57 -99 -126 -217 -70 -118 -130 -224 -135 -236 -5 -13 -13 -23 -19
-23 -5 0 -10 -4 -10 -9 0 -5 -20 -44 -45 -85 -25 -42 -45 -79 -45 -82 0 -3 -5
-10 -10 -17 -19 -21 -190 -316 -190 -327 0 -5 -4 -10 -8 -10 -5 0 -16 -15 -25
-32 -9 -18 -30 -55 -47 -83 -17 -27 -35 -59 -40 -70 -6 -11 -19 -33 -30 -50
-11 -16 -23 -37 -27 -45 -6 -14 -23 -42 -69 -115 -10 -16 -19 -32 -19 -35 0
-3 -13 -24 -28 -47 -15 -24 -27 -47 -27 -53 0 -5 -4 -10 -10 -10 -5 0 -12 -11
-16 -25 -3 -14 -10 -25 -15 -25 -5 0 -9 -4 -9 -9 0 -10 -110 -198 -144 -246
-11 -16 -20 -32 -20 -35 1 -3 -4 -14 -11 -25 -50 -79 -165 -279 -165 -286 0
-5 -4 -9 -8 -9 -5 0 -14 -16 -22 -35 -8 -19 -16 -35 -19 -35 -3 0 -17 -21 -31
-47 -14 -27 -34 -62 -45 -79 -30 -47 -79 -128 -80 -134 -2 -8 -68 -110 -71
-110 -2 0 3 15 10 33 7 17 17 41 21 52 4 11 9 25 11 30 3 11 32 93 84 235 17
47 45 126 62 175 17 50 37 102 44 118 8 15 12 27 9 27 -4 0 -3 6 2 13 4 6 8
17 10 22 1 6 18 55 38 110 20 55 37 105 39 110 2 6 6 17 9 25 4 8 23 62 42
120 20 58 40 114 45 125 11 27 45 119 45 125 1 10 28 86 40 115 7 17 20 50 28
75 38 112 118 337 126 355 6 11 14 36 20 55 5 19 21 67 36 105 15 39 29 82 32
98 3 15 9 27 12 27 4 0 8 6 9 13 0 12 34 108 167 477 36 102 67 190 69 195 2
6 6 17 9 25 3 8 13 38 22 65 21 63 28 81 49 128 9 21 16 42 16 47 0 6 21 68
46 138 26 70 47 132 49 137 1 6 5 17 8 25 34 82 87 240 86 254 0 5 3 12 8 15
9 7 55 141 53 155 -1 5 2 12 7 15 5 3 16 29 25 56 42 128 90 261 96 267 7 7
120 19 200 22 17 0 32 3 32 6 0 3 24 5 53 6 47 1 113 6 262 19 28 3 73 7 100
9 28 3 79 7 115 11 36 3 93 8 128 10 35 2 65 5 67 7 2 1 19 4 39 5 29 1 34 -1
29 -15z m-1399 -229 c-25 -71 -70 -198 -101 -283 -30 -85 -64 -180 -75 -210
-11 -30 -21 -59 -22 -65 -2 -5 -9 -23 -15 -40 -7 -16 -14 -37 -16 -46 -2 -8
-10 -32 -19 -52 -8 -21 -15 -39 -16 -42 -1 -9 -12 -40 -25 -75 -8 -19 -28 -75
-45 -125 -17 -49 -33 -97 -37 -105 -3 -8 -7 -19 -9 -25 -5 -18 -105 -299 -114
-320 -4 -11 -20 -56 -35 -100 -15 -44 -31 -89 -35 -100 -5 -11 -50 -137 -100
-280 -50 -143 -101 -285 -113 -315 -12 -30 -22 -59 -23 -65 -2 -5 -16 -48 -33
-95 -60 -169 -109 -306 -120 -332 -6 -16 -8 -28 -5 -28 4 0 2 -6 -3 -12 -5 -7
-17 -35 -27 -63 -10 -27 -21 -59 -26 -70 -5 -11 -18 -47 -29 -80 -23 -70 -76
-219 -127 -360 -19 -55 -37 -104 -38 -110 -2 -5 -9 -23 -15 -40 -7 -16 -14
-37 -16 -45 -2 -8 -4 -16 -5 -17 -2 -2 -3 -6 -4 -10 -1 -5 -12 -35 -24 -68
-26 -70 -31 -84 -32 -90 0 -3 -12 -35 -26 -72 -14 -38 -42 -115 -61 -173 -20
-58 -39 -110 -44 -115 -4 -6 -10 -22 -13 -35 -7 -34 -90 -268 -98 -276 -4 -3
-5 4 -3 17 2 13 6 60 10 104 3 44 7 103 10 130 5 55 14 172 20 250 2 28 6 82
9 120 4 39 9 99 12 135 3 36 7 85 9 110 2 25 7 83 10 130 4 47 8 101 10 120 2
19 7 76 11 125 3 50 8 106 9 125 2 19 6 73 10 120 10 129 13 169 19 235 3 33
8 94 11 135 3 41 8 91 10 110 2 19 6 80 10 135 4 55 9 114 10 130 2 17 6 68
10 115 3 47 8 105 10 130 3 25 7 77 9 115 3 39 8 95 11 125 3 30 8 87 10 125
3 39 8 94 10 123 4 61 13 162 20 247 12 126 15 163 21 255 4 52 8 112 8 132 1
21 3 38 6 38 3 0 5 21 6 48 1 44 6 118 20 272 3 36 7 85 9 110 1 25 4 45 4 45
1 0 5 41 8 90 2 50 6 99 8 110 1 11 3 27 4 35 1 11 13 15 44 16 23 0 78 3 122
7 107 10 167 15 245 22 36 3 88 8 115 11 28 2 77 6 110 9 33 2 80 6 105 9 25
2 83 7 130 11 47 3 99 8 115 10 17 3 73 7 125 11 52 3 97 8 99 10 2 2 10 4 17
4 9 0 -1 -40 -32 -127z m-1498 -35 c-3 -13 -8 -54 -11 -93 -3 -38 -7 -92 -9
-120 -3 -27 -7 -84 -10 -125 -4 -41 -8 -102 -11 -135 -9 -106 -15 -178 -20
-245 -3 -36 -7 -87 -10 -115 -13 -159 -17 -211 -20 -263 -2 -31 -4 -57 -5 -57
-1 0 -3 -20 -5 -45 -3 -49 -13 -178 -20 -250 -5 -64 -19 -231 -30 -370 -3 -41
-7 -100 -10 -130 -3 -30 -7 -84 -10 -120 -3 -36 -7 -85 -9 -110 -3 -25 -7 -83
-11 -130 -4 -47 -8 -105 -10 -130 -2 -25 -6 -76 -9 -115 -3 -38 -9 -99 -12
-135 -3 -36 -7 -92 -10 -125 -2 -33 -7 -94 -11 -135 -3 -41 -6 -96 -7 -122 -1
-27 -3 -48 -6 -48 -3 0 -5 -19 -6 -43 -1 -38 -10 -167 -19 -257 -5 -47 -17
-220 -18 -248 -2 -39 -13 -10 -46 113 -30 114 -35 132 -46 180 -2 11 -20 80
-40 154 -20 74 -37 142 -39 150 -2 9 -6 23 -9 31 -3 8 -20 71 -37 140 -17 69
-42 167 -56 219 -14 51 -28 105 -30 119 -3 14 -7 29 -10 34 -3 5 -8 20 -10 35
-3 15 -14 60 -26 102 -11 41 -22 82 -23 91 -2 8 -4 17 -6 20 -1 3 -3 10 -3 15
-1 6 -7 28 -13 50 -16 50 -93 341 -100 375 -9 44 -11 55 -13 55 -2 0 -9 30
-14 55 -2 8 -6 22 -9 30 -3 8 -10 35 -16 60 -7 25 -27 106 -47 180 -19 74 -37
142 -39 150 -2 8 -20 78 -40 155 -20 77 -48 181 -61 230 -14 50 -27 101 -30
114 -7 32 -62 245 -78 301 -8 25 -14 47 -14 50 0 3 -3 12 -6 20 -5 16 -18 73
-17 77 0 2 -7 26 -15 55 -9 28 -18 59 -20 67 -2 9 -10 43 -18 76 -19 74 -19
82 -3 82 39 2 179 13 217 17 41 5 87 9 225 21 28 3 86 7 130 10 44 2 80 5 80
6 0 2 41 6 130 13 44 4 98 9 120 11 22 3 71 7 110 10 38 3 70 7 71 8 2 1 37 3
79 5 74 3 76 3 71 -20z m-1550 -120 c1 -2 5 -15 7 -28 5 -23 66 -261 102 -394
8 -33 17 -67 19 -75 2 -9 6 -23 9 -31 3 -8 11 -37 17 -65 17 -73 17 -71 45
-180 15 -55 28 -107 30 -115 3 -8 16 -60 31 -115 14 -55 28 -107 29 -115 2 -8
4 -16 5 -17 3 -4 6 -13 15 -58 4 -22 12 -46 18 -52 5 -7 7 -13 4 -13 -3 0 1
-21 9 -46 7 -25 13 -49 12 -52 -1 -4 2 -14 5 -22 5 -12 88 -322 102 -380 1 -8
20 -78 40 -155 20 -77 41 -156 45 -175 8 -31 21 -82 90 -345 10 -38 37 -142
60 -230 23 -88 50 -194 61 -235 12 -41 27 -102 35 -135 8 -33 23 -89 34 -125
10 -36 21 -76 24 -90 2 -14 9 -37 15 -52 6 -16 8 -28 5 -28 -3 0 -2 -6 2 -12
5 -7 9 -19 10 -28 1 -8 5 -24 7 -35 3 -11 24 -90 47 -175 45 -168 59 -224 65
-255 2 -11 4 -21 5 -22 2 -2 3 -6 4 -10 1 -5 5 -17 9 -28 3 -11 8 -31 11 -45
3 -14 10 -43 16 -65 6 -22 13 -49 15 -60 3 -11 14 -51 24 -88 16 -54 17 -66 6
-57 -8 7 -12 16 -9 21 3 5 1 9 -3 9 -5 0 -20 22 -34 50 -13 27 -27 50 -31 50
-5 0 -8 4 -8 10 0 5 -13 31 -28 57 -16 26 -48 84 -72 128 -24 44 -51 92 -61
107 -11 14 -19 29 -19 32 0 4 -18 36 -40 72 -22 36 -40 67 -40 69 0 2 -22 42
-50 90 -27 48 -50 91 -50 96 0 5 -4 9 -10 9 -5 0 -10 4 -10 9 0 5 -31 64 -70
132 -38 67 -70 124 -70 127 0 2 -8 16 -18 30 -11 15 -32 52 -49 82 -32 58
-184 327 -218 385 -11 19 -35 63 -54 97 -18 35 -42 75 -52 90 -11 14 -19 33
-19 41 0 9 -4 17 -8 19 -7 3 -30 39 -85 138 -22 40 -110 195 -157 275 -9 17
-36 64 -59 105 -23 41 -50 89 -60 105 -10 17 -32 57 -50 90 -18 32 -42 72 -52
87 -11 15 -17 28 -13 28 4 0 0 8 -9 18 -9 10 -23 33 -32 52 -9 19 -40 76 -70
125 -29 50 -54 94 -54 98 -1 5 -9 21 -20 35 -10 15 -27 43 -38 62 -11 19 -48
87 -84 150 -35 63 -66 117 -69 120 -3 3 -12 19 -20 35 -8 17 -24 46 -36 65
-20 32 -286 502 -346 611 -14 25 -32 55 -39 67 -18 28 -11 32 52 37 64 5 179
14 234 19 37 4 102 9 250 22 33 2 81 7 106 10 25 2 72 6 105 9 120 8 200 15
234 20 19 2 71 7 115 11 44 3 82 7 83 9 4 4 43 -2 48 -7z m-1559 -150 c1 -11
8 -28 16 -37 7 -9 40 -63 72 -121 32 -58 65 -116 74 -130 8 -14 24 -41 35 -60
10 -19 29 -53 42 -75 13 -22 29 -51 36 -65 7 -14 29 -53 50 -88 21 -34 51 -86
66 -115 37 -67 56 -101 62 -107 3 -3 13 -21 22 -40 22 -44 71 -133 78 -140 3
-3 14 -23 25 -45 11 -22 22 -42 25 -45 3 -3 62 -104 130 -225 68 -121 165
-293 217 -382 51 -90 93 -167 93 -173 0 -5 4 -10 9 -10 5 0 11 -8 14 -17 3
-10 22 -47 43 -83 20 -36 43 -76 51 -90 8 -14 24 -43 37 -65 13 -22 44 -78 70
-125 27 -47 55 -96 64 -110 9 -14 17 -27 17 -30 0 -3 8 -16 16 -30 14 -22 184
-321 251 -440 14 -25 39 -69 57 -98 17 -29 31 -54 31 -56 0 -3 119 -213 140
-246 5 -8 20 -35 33 -60 14 -25 34 -61 45 -80 12 -19 32 -55 45 -80 32 -61 51
-94 57 -100 7 -7 48 -80 68 -120 9 -19 20 -37 23 -40 7 -7 58 -100 54 -100 -1
0 -36 39 -76 88 -40 48 -76 89 -79 92 -3 3 -34 39 -69 80 -68 80 -144 169
-174 204 -10 11 -37 43 -60 70 -112 132 -243 285 -271 316 -17 19 -53 62 -80
95 -28 33 -57 67 -65 77 -20 20 -62 69 -231 268 -72 85 -142 166 -154 180 -25
28 -256 300 -268 315 -5 6 -18 21 -31 35 -43 50 -126 146 -257 300 -72 85
-142 166 -153 180 -12 14 -55 64 -96 113 -41 48 -79 87 -84 87 -6 0 -8 3 -4 6
3 3 -4 16 -16 28 -12 13 -38 42 -57 65 -19 23 -44 52 -55 65 -36 41 -111 129
-240 281 -70 83 -130 152 -134 155 -3 3 -26 30 -51 60 -25 30 -47 57 -50 60
-3 3 -30 34 -60 70 -30 36 -57 67 -60 70 -3 3 -30 34 -60 70 -30 36 -59 70
-65 76 -5 6 -30 35 -55 64 -25 30 -57 68 -72 84 -61 70 -87 101 -84 104 3 3
54 8 171 17 39 3 93 8 120 11 28 3 79 7 115 10 36 2 81 6 100 9 19 2 73 7 120
11 47 3 101 7 120 9 19 2 71 7 115 10 44 4 81 8 82 8 1 1 23 3 50 4 43 2 49 0
50 -19z"/>
</g>
</svg>
