<svg xmlns="http://www.w3.org/2000/svg" viewBox="0 0 1191.04 1191.04"><polygon points="638.8 854.66 242.25 391.06 205.52 394.28 643.3 906.07 985.54 326.04 948.82 329.25 638.8 854.66"/><polygon points="637.01 834.24 378.64 379.13 345.78 382.01 643.3 906.07 845.29 338.31 812.43 341.18 637.01 834.24"/><polygon points="627.7 727.83 533 365.63 502.68 368.28 643.3 906.07 688.38 352.03 658.07 354.69 627.7 727.83"/><circle cx="652.29" cy="1008.86" r="69.3" transform="translate(-227.8 191.11) rotate(-14.22)"/><path d="M594,1062.89l-3.64,4.34A9.94,9.94,0,1,0,605.57,1080l3.64-4.33A79.1,79.1,0,0,1,594,1062.89Z"/><path d="M649.26,1088.32l.49,5.64a9.95,9.95,0,0,0,19.82-1.73l-.5-5.64a79.28,79.28,0,0,1-9.85,1.55A81,81,0,0,1,649.26,1088.32Z"/><path d="M567.19,1006.32a9.95,9.95,0,0,0,1.74,19.82l5.62-.49a73.35,73.35,0,0,1-1.73-19.82Z"/><path d="M655.32,929.4l-.49-5.63A9.95,9.95,0,1,0,635,925.5l.49,5.64a72.83,72.83,0,0,1,19.82-1.74Z"/><path d="M585.47,965.78a80.07,80.07,0,0,1,12.79-15.24l-4.33-3.63a9.95,9.95,0,1,0-12.79,15.24Z"/><path d="M719.11,1052a80.32,80.32,0,0,1-12.79,15.23l4.33,3.64a9.95,9.95,0,0,0,12.79-15.24Z"/><path d="M770.92,826.83,503.85,850.2a37,37,0,0,0-33.59,40l23.36,267.06a37,37,0,0,0,40,33.59l267.06-23.36a37,37,0,0,0,33.6-40L811,860.43A37,37,0,0,0,770.92,826.83Zm-110,280.66a99,99,0,1,1,90-107.26A99,99,0,0,1,660.92,1107.49Z"/><path d="M737.39,1011.4a9.95,9.95,0,0,0-1.74-19.82l-5.63.5a79.28,79.28,0,0,1,1.55,9.85,81.2,81.2,0,0,1,.19,10Z"/><path d="M699,937.71l-3.64,4.34a79.41,79.41,0,0,1,15.24,12.78l3.63-4.33A9.94,9.94,0,1,0,699,937.71Z"/><path d="M565.28,1.44C697-9.51,818.21,139,845.29,338.31L985.54,326C953.09,127.15,771-16,565.28,1.44Z"/><path d="M563.38,1.6C357.59,20,203,192.66,205.52,394.28L345.78,382C338,184.47,429,19.48,557,2.33,446,18,369.59,181.7,378.64,379.13l124-10.85C488.73,167.66,514.21,6.3,563.38,1.6Z"/><path d="M564,1.54l.37,0-.24,0-.49,0C530.06,4.76,517.91,165,533,365.63l125.07-10.94C638.16,155.15,597.75-.12,564.16,1.54c49.13-3,103.18,151.05,124.22,350.49l124-10.85C786.59,141.62,678.45-8,564,1.54Z"/></svg>