<?xml version="1.0" standalone="no"?>
<!DOCTYPE svg PUBLIC "-//W3C//DTD SVG 20010904//EN"
 "http://www.w3.org/TR/2001/REC-SVG-20010904/DTD/svg10.dtd">
<svg version="1.0" xmlns="http://www.w3.org/2000/svg"
 width="700.000000pt" height="700.000000pt" viewBox="0 0 700.000000 700.000000"
 preserveAspectRatio="xMidYMid meet">
<metadata>
Created by potrace 1.14, written by Peter Selinger 2001-2017
</metadata>
<g transform="translate(0.000000,700.000000) scale(0.100000,-0.100000)"
fill="#000000" stroke="none">
<path d="M3355 6990 c-4 -6 7 -10 24 -10 17 0 33 0 36 0 3 -1 23 -7 46 -15 23
-9 52 -17 65 -19 12 -3 65 -21 116 -41 385 -153 704 -448 925 -855 73 -135
169 -376 209 -527 39 -147 45 -170 50 -198 2 -16 11 -61 19 -100 15 -77 29
-169 30 -200 0 -15 -7 -21 -30 -23 -63 -6 -72 -11 -87 -54 -9 -24 -32 -88 -51
-143 -20 -55 -72 -201 -116 -325 -43 -124 -150 -423 -236 -665 -86 -242 -169
-476 -185 -520 -16 -44 -49 -138 -75 -210 -25 -71 -59 -166 -75 -210 -15 -44
-59 -165 -96 -270 -37 -104 -71 -199 -75 -210 -8 -19 -5 74 6 185 2 25 7 79 9
120 11 151 17 216 21 250 2 19 7 76 10 125 4 50 8 106 10 125 2 19 6 73 10
120 3 47 8 101 10 120 2 19 6 76 10 125 3 50 8 108 10 130 2 22 7 74 10 115 3
41 7 100 10 130 9 107 17 207 31 370 9 119 12 149 18 245 4 50 9 106 11 125 2
19 7 76 11 125 3 50 8 98 10 108 3 16 -2 18 -36 14 -40 -4 -63 3 -59 19 3 8
-7 99 -16 154 -2 14 -6 48 -10 75 -6 49 -41 270 -49 310 -2 11 -7 40 -11 65
-9 56 -13 78 -20 110 -8 36 -14 71 -20 105 -3 17 -8 38 -11 47 -5 17 -12 46
-20 88 -13 67 -70 279 -105 393 -95 306 -213 539 -335 661 l-38 38 -18 -24
c-115 -145 -206 -468 -243 -858 -3 -36 -8 -86 -10 -112 -18 -185 -24 -644 -12
-965 l7 -193 -29 0 c-59 0 -61 -3 -34 -93 13 -45 25 -92 27 -104 3 -12 13 -55
25 -95 37 -137 63 -233 66 -248 2 -8 8 -35 15 -60 7 -25 14 -53 16 -64 2 -10
8 -33 13 -50 6 -17 31 -112 57 -211 89 -348 142 -552 230 -885 32 -121 145
-550 150 -570 17 -70 23 -95 20 -97 -1 -2 -11 14 -23 35 -11 20 -75 134 -143
252 -67 118 -134 235 -148 260 -14 25 -49 87 -78 138 -30 52 -54 96 -54 98 0
2 -11 21 -24 42 -13 20 -92 159 -176 307 -84 149 -226 398 -315 555 -89 157
-174 307 -189 335 -16 27 -63 111 -107 187 -43 75 -79 141 -79 145 -1 4 -9 18
-20 31 -16 20 -26 23 -70 19 l-50 -5 -1 47 c-4 190 3 435 15 496 2 11 7 49 11
85 4 36 16 108 26 160 11 52 22 108 25 123 6 37 87 284 109 334 76 173 202
384 285 478 132 149 234 241 372 333 82 55 229 132 291 151 43 15 49 24 10 16
-16 -2 -53 -7 -83 -11 -30 -3 -64 -8 -75 -11 -11 -2 -31 -6 -45 -9 -14 -3 -52
-11 -85 -20 -33 -8 -69 -16 -80 -18 -25 -5 -204 -67 -270 -94 -169 -67 -378
-191 -544 -320 -81 -63 -262 -237 -330 -317 -268 -316 -467 -753 -517 -1135
-3 -25 -8 -56 -10 -70 -3 -14 -8 -86 -11 -161 l-6 -135 358 -420 c392 -459
527 -616 535 -624 3 -3 43 -50 90 -105 47 -55 87 -102 90 -105 3 -3 28 -32 56
-65 49 -59 611 -716 704 -825 26 -30 67 -77 90 -105 23 -27 50 -57 59 -67 9
-9 27 -31 41 -49 14 -18 34 -42 45 -53 11 -12 40 -46 65 -76 25 -30 59 -70 75
-88 44 -49 47 -58 22 -58 -25 -1 -200 -14 -237 -19 -14 -2 -59 -6 -100 -10
-41 -3 -97 -8 -125 -11 -130 -12 -218 -111 -210 -234 5 -78 16 -203 20 -245 2
-22 7 -74 10 -115 3 -41 8 -91 10 -110 2 -19 6 -71 10 -115 3 -44 8 -100 10
-125 3 -25 7 -74 10 -110 3 -36 8 -85 10 -110 2 -25 7 -79 10 -120 4 -41 8
-91 10 -110 2 -19 6 -70 10 -112 3 -43 7 -97 10 -120 2 -24 7 -79 10 -123 8
-110 42 -178 109 -220 43 -26 59 -30 120 -30 65 0 195 9 271 19 17 3 73 7 126
11 52 3 106 7 120 10 13 2 64 6 113 10 49 4 98 8 110 10 11 2 62 6 111 10 50
3 108 8 130 10 61 6 153 14 225 20 75 6 151 13 230 20 30 3 81 8 113 10 133
11 226 95 229 208 1 40 -8 181 -17 257 -2 19 -7 67 -10 105 -6 75 -12 136 -20
213 -3 26 -7 79 -10 117 -9 116 -15 198 -20 240 -2 22 -7 74 -10 115 -3 41 -8
95 -11 119 -3 24 -7 75 -10 115 -2 39 -6 91 -9 116 -2 25 -7 79 -11 120 -8
101 -10 110 -27 150 -21 49 -60 88 -113 112 -41 18 -59 19 -150 14 -57 -4
-118 -9 -136 -11 -42 -5 -131 -12 -235 -21 l-83 -6 171 288 c94 159 222 377
286 484 63 107 119 202 124 210 13 21 188 318 209 355 9 17 54 93 100 170 46
77 91 154 100 170 10 17 62 104 115 195 54 91 113 190 130 220 33 56 147 250
176 298 9 15 92 155 184 312 142 242 166 290 161 315 -127 700 -560 1287
-1196 1623 -213 112 -528 214 -735 238 -33 3 -69 8 -80 11 -42 10 -414 12
-420 3z m2139 -2066 c-207 -347 -394 -667 -394 -675 0 -5 -4 -9 -9 -9 -5 0
-11 -8 -15 -17 -3 -10 -10 -25 -16 -33 -5 -8 -57 -96 -115 -195 -58 -99 -109
-187 -114 -195 -5 -8 -59 -98 -119 -200 -60 -102 -169 -286 -242 -410 -73
-124 -185 -314 -249 -422 -64 -108 -117 -195 -118 -194 -2 1 34 103 78 227 45
123 94 262 111 309 16 47 40 114 53 150 26 71 246 690 375 1055 45 127 104
293 132 370 27 77 63 178 80 225 17 47 34 89 39 94 4 5 24 10 43 12 19 1 63 5
98 8 35 3 95 8 133 11 39 3 88 8 110 10 22 3 76 7 120 11 44 3 82 8 85 10 2 3
6 1 8 -4 1 -5 -32 -67 -74 -138z m-1629 -41 c-2 -21 -7 -76 -10 -123 -4 -47
-8 -105 -10 -130 -2 -25 -7 -76 -10 -115 -3 -38 -8 -92 -10 -120 -3 -27 -7
-86 -10 -130 -3 -44 -8 -100 -10 -125 -3 -25 -7 -76 -10 -115 -3 -38 -7 -95
-10 -125 -2 -30 -7 -89 -11 -130 -3 -41 -7 -91 -9 -110 -2 -19 -6 -73 -10
-120 -3 -47 -8 -105 -10 -130 -3 -25 -7 -79 -10 -120 -5 -74 -11 -143 -20
-250 -2 -30 -7 -86 -10 -125 -8 -94 -16 -169 -20 -173 -2 -2 -8 18 -14 45 -10
43 -51 205 -116 448 -13 50 -45 171 -70 270 -26 99 -72 272 -101 385 -143 547
-167 637 -207 793 -27 103 -40 167 -33 168 6 1 22 2 36 4 14 1 66 6 115 10 50
4 104 9 120 10 17 2 64 6 105 10 137 12 164 14 250 21 47 3 87 8 89 10 9 9 11
2 6 -33z m-1775 -230 c30 -53 69 -122 86 -152 17 -31 163 -288 324 -571 161
-283 302 -531 313 -550 54 -97 154 -273 187 -330 20 -36 48 -85 62 -110 14
-25 70 -124 125 -220 55 -96 105 -186 112 -200 11 -23 11 -24 -3 -6 -9 11 -26
31 -38 45 -13 14 -104 121 -203 236 -99 116 -182 212 -185 215 -3 3 -41 48
-85 100 -44 52 -82 97 -85 100 -4 3 -58 66 -120 140 -63 74 -124 146 -136 160
-12 14 -70 81 -129 150 -59 69 -117 136 -129 150 -11 14 -57 68 -101 120 -44
52 -82 97 -85 100 -6 5 -285 330 -442 515 -42 50 -88 103 -102 119 -15 16 -25
31 -23 32 5 6 62 13 147 19 47 3 96 8 110 10 14 2 68 7 120 10 52 4 96 8 98 9
1 2 30 4 65 5 l62 2 55 -98z m2458 -2723 c31 -25 40 -56 47 -157 3 -48 7 -99
9 -113 3 -14 7 -65 11 -114 4 -49 8 -101 10 -115 2 -14 6 -66 10 -114 3 -48 8
-96 10 -105 1 -9 6 -61 9 -115 4 -53 9 -105 10 -115 2 -9 7 -60 11 -112 4 -52
9 -111 10 -129 5 -54 16 -181 21 -231 11 -104 7 -131 -23 -161 -23 -24 -39
-30 -93 -34 -36 -3 -83 -7 -105 -10 -22 -2 -71 -7 -110 -10 -38 -4 -90 -8
-115 -11 -25 -2 -76 -6 -115 -9 -69 -6 -115 -10 -225 -20 -30 -3 -84 -7 -120
-10 -83 -6 -175 -15 -220 -20 -19 -2 -73 -7 -120 -10 -47 -4 -101 -8 -120 -10
-151 -16 -173 -16 -201 -5 -40 17 -55 50 -64 140 -4 41 -8 91 -10 112 -2 20
-6 67 -9 105 -7 83 -16 181 -22 248 -3 28 -7 77 -9 110 -3 33 -7 78 -9 100 -2
22 -7 76 -11 120 -4 44 -8 96 -10 115 -13 149 -17 191 -20 230 -3 25 -7 77
-10 115 -3 39 -7 83 -9 99 -5 44 12 94 38 111 13 9 43 18 67 20 114 11 159 15
224 20 39 3 91 8 118 10 26 3 68 7 95 10 26 2 77 7 115 10 37 3 97 7 135 10
37 3 87 8 112 10 25 3 70 7 100 10 30 2 84 7 120 11 82 7 145 12 239 19 41 3
76 7 78 8 1 2 31 4 66 4 46 1 68 -4 85 -17z"/>
<path d="M3690 1634 c-363 -95 -540 -497 -369 -835 43 -87 162 -203 250 -246
135 -66 305 -80 439 -37 239 78 402 301 403 554 2 266 -178 496 -439 564 -76
20 -210 20 -284 0z m143 -32 c26 -23 23 -62 -5 -62 -13 0 -40 -3 -60 -6 -37
-6 -38 -6 -38 23 0 29 20 55 50 65 17 6 27 2 53 -20z m359 -109 c23 -20 23
-55 1 -81 -18 -21 -18 -21 -61 16 l-42 38 20 22 c25 26 56 28 82 5z m-228 -38
c270 -92 363 -432 178 -651 -33 -39 -111 -92 -167 -113 -193 -73 -413 16 -505
203 -157 320 156 676 494 561z m-473 -24 l23 -19 -34 -38 c-18 -22 -37 -39
-42 -38 -22 3 -26 6 -35 27 -12 26 -1 61 24 76 26 15 38 13 64 -8z m883 -286
c25 -38 4 -81 -44 -90 -24 -5 -27 1 -33 68 l-5 47 33 0 c24 0 37 -7 49 -25z
m-1006 -100 c1 -23 3 -49 4 -56 2 -9 -8 -15 -29 -17 -25 -3 -35 2 -48 22 -30
45 -3 89 55 93 14 1 18 -7 18 -42z m884 -252 c45 -40 1 -115 -55 -94 -14 5
-28 15 -32 20 -5 10 51 91 63 91 3 0 14 -7 24 -17z m-717 -80 c42 -34 44 -38
28 -55 -22 -24 -49 -31 -72 -18 -34 18 -41 42 -24 78 9 18 17 32 20 32 2 0 24
-17 48 -37z m400 -132 c2 -29 -27 -61 -57 -61 -30 0 -58 28 -58 59 0 25 2 26
57 26 52 0 56 -2 58 -24z"/>
</g>
</svg>
