<svg xmlns="http://www.w3.org/2000/svg" viewBox="0 0 48 48" width="480px" height="480px"><path fill="#455a64" d="M29 44L33.973 25.23 32.027 24.77 27 44zM34.008 44L42.91 24.414 41.09 23.586 32 44zM21 44L15.973 24.77 14.027 25.23 19 44zM16 44L6.91 23.586 5.09 24.414 14 44z"/><path fill="#5ec08f" d="M24,4C12.953,4,4,12.953,4,24c0,0,1,3,4,3s4-3,4-3s1,3,4,3s4-3,4-3s1,3,4,3s4-3,4-3s1,3,4,3s4-3,4-3s1,3,4,3s4-3,4-3C44,12.953,35.047,4,24,4z"/><g><path fill="#41a571" d="M12 24c0 0 1 3 4 3s4-3 4-3 0-15.998 4-20C24 4 12 6 12 24zM24 4c4 4.002 4 20 4 20s1 3 4 3 4-3 4-3C36 6 24 4 24 4z"/></g></svg>