<svg xmlns="http://www.w3.org/2000/svg" viewBox="0 0 48 48" width="480px" height="480px"><path fill="#455A64" d="M8 38H14V41H8zM34 38H40V41H34z"/><path fill="#78909C" d="M40,40H8c-2.209,0-4-1.791-4-4V10c0-2.209,1.791-4,4-4h32c2.209,0,4,1.791,4,4v26C44,38.209,42.209,40,40,40"/><path fill="#90A4AE" d="M40,37H8c-0.552,0-1-0.448-1-1V10c0-0.552,0.448-1,1-1h32c0.552,0,1,0.448,1,1v26C41,36.552,40.552,37,40,37"/><path fill="#37474F" d="M29,13c-5.523,0-10,4.477-10,10s4.477,10,10,10s10-4.477,10-10S34.523,13,29,13 M29,30c-3.866,0-7-3.134-7-7s3.134-7,7-7s7,3.134,7,7S32.866,30,29,30"/><path fill="#455A64" d="M12,19c-1.104,0-2,0.896-2,2v8c0,1.104,0.896,2,2,2s2-0.896,2-2v-8C14,19.896,13.104,19,12,19"/><g><path fill="#B0BEC5" d="M35.314 18.1l.402-.402c.392-.392.392-1.024 0-1.414-.391-.392-1.022-.392-1.414 0L33.9 16.686C34.43 17.097 34.903 17.571 35.314 18.1M22.686 18.1c.411-.528.885-1.003 1.414-1.414l-.402-.402c-.392-.392-1.023-.392-1.414 0-.392.39-.392 1.022 0 1.414L22.686 18.1zM21 23c0-.339.027-.672.068-1H20.5c-.552 0-1 .448-1 1s.448 1 1 1h.568C21.027 23.672 21 23.339 21 23M29 15c.339 0 .672.028 1 .069V14.5c0-.552-.448-1-1-1s-1 .448-1 1v.569C28.328 15.028 28.661 15 29 15M35.314 27.9c-.411.528-.885 1.003-1.414 1.414l.402.402c.195.195.451.293.707.293s.512-.098.707-.293c.392-.39.392-1.022 0-1.414L35.314 27.9zM22.686 27.9l-.402.402c-.392.392-.392 1.024 0 1.414.194.195.451.293.707.293s.512-.098.707-.293l.402-.402C23.57 28.903 23.097 28.429 22.686 27.9M37.5 22h-.568C36.973 22.328 37 22.661 37 23s-.027.672-.068 1H37.5c.552 0 1-.448 1-1S38.052 22 37.5 22M29 31c-.339 0-.672-.028-1-.069V31.5c0 .552.448 1 1 1s1-.448 1-1v-.569C29.672 30.972 29.339 31 29 31"/><path fill="#CFD8DC" d="M12,17c-1.104,0-2,0.896-2,2v8c0,1.104,0.896,2,2,2s2-0.896,2-2v-8C14,17.896,13.104,17,12,17"/></g></svg>