<svg xmlns="http://www.w3.org/2000/svg" viewBox="0 0 1191.04 1191.04"><defs><style>.a{fill:#fff;}</style></defs><polygon class="a" points="685.65 834.3 985.55 326.04 948.82 329.25 696.2 757.39 845.29 338.31 812.43 341.19 652.74 790.03 688.39 352.04 658.07 354.69 627.71 727.84 533 365.63 502.69 368.29 613.85 793.43 378.65 379.14 345.78 382.01 565.39 768.84 242.26 391.07 205.53 394.28 589.12 842.74 685.65 834.3"/><path class="a" d="M834.32,1127.5,811,860.43a37,37,0,0,0-40-33.59L503.86,850.2a37,37,0,0,0-33.6,40l23.36,267.06a37,37,0,0,0,40,33.6l267.07-23.36A37,37,0,0,0,834.32,1127.5Zm-47.48,9.63-244.78,21.41a16.63,16.63,0,0,1-18-15.13L502.62,898.64a16.63,16.63,0,0,1,15.13-18l244.77-21.42a16.64,16.64,0,0,1,18,15.13L802,1119.1A16.64,16.64,0,0,1,786.84,1137.13Z"/><path class="a" d="M750.92,1000.24a99,99,0,1,0-90,107.25A99,99,0,0,0,750.92,1000.24ZM699,937.72a9.95,9.95,0,1,1,15.24,12.79l-3.64,4.33a79.1,79.1,0,0,0-15.24-12.79Zm-55-23a9.94,9.94,0,0,1,10.77,9l.5,5.64a72.3,72.3,0,0,0-19.82,1.73l-.5-5.64A10,10,0,0,1,644.06,914.73Zm-75.13,111.42a9.95,9.95,0,0,1-1.74-19.82l5.63-.49a73.87,73.87,0,0,0,1.74,19.81Zm12.21-64a9.95,9.95,0,0,1,12.79-15.24l4.33,3.64a80.44,80.44,0,0,0-12.79,15.24ZM605.57,1080a9.94,9.94,0,0,1-15.23-12.79l3.63-4.33a79.82,79.82,0,0,0,15.24,12.79Zm55,23a10,10,0,0,1-10.78-9l-.49-5.64a72.83,72.83,0,0,0,19.82-1.74l.49,5.64A10,10,0,0,1,660.53,1103Zm-2.2-25.11a69.3,69.3,0,1,1,63-75.07A69.28,69.28,0,0,1,658.33,1077.9Zm66.34-8.3a10,10,0,0,1-14,1.22l-4.33-3.63A80.07,80.07,0,0,0,719.11,1052l4.33,3.64A9.92,9.92,0,0,1,724.67,1069.6Zm12.72-58.19-5.63.49A73.35,73.35,0,0,0,730,992.08l5.63-.49a9.95,9.95,0,0,1,1.73,19.82Z"/><path class="a" d="M830.24,339.63,985.55,326C953,126.79,770.34-16.51,564.16,1.53,564.16,1.53,789.43,18.71,830.24,339.63Z"/><path class="a" d="M564.16,1.53C505.93,70.16,513,287.9,517.63,367L360.83,380.7C345.3,57.56,564.16,1.53,564.16,1.53,358,19.57,203,192.41,205.53,394.28l467.92-40.93C664.31,274.65,633.43,59,564.16,1.53Z"/></svg>