<svg xmlns="http://www.w3.org/2000/svg" viewBox="0 0 783 908">
	<polygon fill="#666" points="391.5 856.39 36.87 360 0 360 391.5 908 783 360 746.13 360 391.5 856.39" />
	<polygon fill="#666" points="391.5 835.89 173.78 360 140.79 360 391.5 908 642.21 360 609.22 360 391.5 835.89" />
	<polygon fill="#666" points="391.5 729.08 328.73 360 298.3 360 391.5 908 484.7 360 454.27 360 391.5 729.08" />
	<path fill="#76d275" d="M783,360C768,158.67,598.46,0,391.5,0S15,158.67,0,360Z" />
	<path fill="#43a047" d="M627.1,360C614.41,36.74,391.5,0,391.5,0c64,63.29,76,280.81,78.21,360Z" />
	<path fill="#43a047" d="M313.29,360c2.24-79.19,14.22-296.71,78.21-360,0,0-222.91,36.74-235.6,360Z" />
</svg>
