<svg id="safe" viewBox="182 748 588 588" xmlns="http://www.w3.org/2000/svg"
	xmlns:xlink="http://www.w3.org/1999/xlink">
	<g>
		<animateTransform
			attributeName="transform"
			attributeType="XML"
			type="rotate"
			dur="3s"
			values="360 476 1042;0 476 1042;360 476 1042"
			calcMode="spline"
			keySplines="0.42 0 0.58 1;0.42 0 0.58 1"
			keyTimes="0;0.5;1"
			repeatCount="indefinite"
		/>
		<rect x="273" y="839" width="406" height="406" rx="60" fill="url(#a)" stroke="url(#b)"
			stroke-width="50" />
	</g>
	<g style="filter:drop-shadow(0 4px 4px rgba(0,0,0,.25))">
		<circle cx="476" cy="1042" r="111" fill="url(#e)" stroke="url(#d)" stroke-width="38" />
		<g fill="url(#c)">
			<animateTransform
				attributeName="transform"
				attributeType="XML"
				type="rotate"
				dur="1.5s"
				values="0 476 1042;360 476 1042;0 476 1042"
				calcMode="spline"
				keySplines="0.42 0 0.58 1;0.42 0 0.58 1"
				keyTimes="0;0.5;1"
				repeatCount="indefinite"
			/>
			<path
				d="M363 1031c-6.075 0-11 4.92-11 11s4.925 11 11 11h9c3.314 0 6-2.69 6-6v-10c0-3.31-2.686-6-6-6h-9Z" />
			<path
				d="M589 1031c6.075 0 11 4.92 11 11s-4.925 11-11 11h-9c-3.314 0-6-2.69-6-6v-10c0-3.31 2.686-6 6-6h9Z" />
			<path
				d="M465 1155c0 6.08 4.925 11 11 11s11-4.92 11-11v-9c0-3.31-2.686-6-6-6h-10c-3.314 0-6 2.69-6 6v9Z" />
			<path d="M465 929c0-6.075 4.925-11 11-11s11 4.925 11 11v9a6 6 0 0 1-6 6h-10a6 6 0 0 1-6-6v-9Z" />
			<path
				d="M388.319 1114.13c-4.296 4.29-4.296 11.26 0 15.55 4.295 4.3 11.26 4.3 15.556 0l6.364-6.36a6.006 6.006 0 0 0 0-8.49l-7.071-7.07a6.005 6.005 0 0 0-8.485 0l-6.364 6.37Z" />
			<path
				d="M548.125 954.319c4.296-4.296 11.26-4.296 15.556 0 4.296 4.296 4.296 11.26 0 15.556l-6.364 6.364a6 6 0 0 1-8.485 0l-7.071-7.071a6 6 0 0 1 0-8.485l6.364-6.364Z" />
			<path
				d="M563.681 1114.13c4.296 4.29 4.296 11.26 0 15.55-4.296 4.3-11.261 4.3-15.557 0l-6.363-6.36a6.004 6.004 0 0 1 0-8.49l7.071-7.07a6.005 6.005 0 0 1 8.485 0l6.364 6.37Z" />
			<path
				d="M403.875 954.319c-4.296-4.296-11.261-4.296-15.556 0-4.296 4.296-4.296 11.26 0 15.556l6.363 6.364a6.001 6.001 0 0 0 8.486 0l7.071-7.071a6 6 0 0 0 0-8.485l-6.364-6.364Z" />
		</g>
	</g>
	<defs>
		<!-- shared -->
		<linearGradient id="d" x1="50%" y1="0%" x2="50%" y2="100%">
			<stop stop-color="#243B42" />
			<stop offset="1" stop-color="#011E24" />
		</linearGradient>
		<style>
			@media (prefers-color-scheme: dark) {
			#d stop:nth-child(1) {
			stop-color: #5C828D;
			}
			#d stop:nth-child(2) {
			stop-color: #28464D;
			}
			}
		</style>
		<linearGradient id="e" x1="50%" y1="0%" x2="50%" y2="100%">
			<stop stop-color="#F7FAF9" />
			<stop offset="1" stop-color="#8E949D" />
		</linearGradient>

		<!-- outer -->
		<linearGradient id="b" href="#d" gradientTransform="rotate(0 0.5 0.5)">
			<animateTransform
				attributeName="gradientTransform"
				attributeType="XML"
				type="rotate"
				dur="3s"
				values="0 0.5 0.5;360 0.5 0.5;0 0.5 0.5"
				calcMode="spline"
				keySplines="0.42 0 0.58 1;0.42 0 0.58 1"
				keyTimes="0;0.5;1"
				repeatCount="indefinite"
			/>
		</linearGradient>
		<linearGradient id="a" href="#e" gradientTransform="rotate(0 0.5 0.5)">
			<animateTransform
				attributeName="gradientTransform"
				attributeType="XML"
				type="rotate"
				dur="3s"
				values="0 0.5 0.5;360 0.5 0.5;0 0.5 0.5"
				calcMode="spline"
				keySplines="0.42 0 0.58 1;0.42 0 0.58 1"
				keyTimes="0;0.5;1"
				repeatCount="indefinite"
			/>
		</linearGradient>

		<!-- inner -->
		<linearGradient id="c" href="#e" gradientTransform="rotate(0 0.5 0.5)">
			<animateTransform
				attributeName="gradientTransform"
				attributeType="XML"
				type="rotate"
				dur="1.5s"
				values="360 0.5 0.5;0 0.5 0.5;360 0.5 0.5"
				calcMode="spline"
				keySplines="0.42 0 0.58 1;0.42 0 0.58 1"
				keyTimes="0;0.5;1"
				repeatCount="indefinite"
			/>
		</linearGradient>
	</defs>
</svg>