<?xml version="1.0" encoding="utf-8"?>
<!-- Generator: Adobe Illustrator 24.2.3, SVG Export Plug-In . SVG Version: 6.00 Build 0)  -->
<svg version="1.1" id="Layer_1" xmlns="http://www.w3.org/2000/svg" xmlns:xlink="http://www.w3.org/1999/xlink" x="0px" y="0px"
	 viewBox="0 0 2530.7 100.4" style="enable-background:new 0 0 2530.7 100.4;" xml:space="preserve">
<style type="text/css">
	.st0{fill:none;stroke:#FFFFFF;stroke-linejoin:round;stroke-miterlimit:10;}
	.st1{fill:none;stroke:#000000;stroke-linejoin:round;stroke-miterlimit:10;}
</style>
<symbol  id="font_1_1" viewBox="0 0 0 0">
	<path d="M0,0"/>
</symbol>
<symbol  id="font_1_10" viewBox="-0.2 -0.4 0.4 0.7">
	<path d="M0-0.4c0,0-0.1,0-0.1,0s-0.1,0-0.1,0.1l0,0.1C-0.1-0.3-0.1-0.3,0-0.4c0,0.1,0.1,0.1,0.1,0.1c0,0,0,0.1,0,0.1v0
		c0,0-0.1-0.1-0.1-0.1c-0.1,0-0.1,0-0.2,0.1S-0.2,0-0.2,0.1v0c0,0.1,0,0.1,0.1,0.2c0,0,0.1,0.1,0.2,0.1c0.1,0,0.1,0,0.2-0.1l0,0.1
		h0.1v-0.5c0-0.1,0-0.1-0.1-0.2C0.1-0.4,0.1-0.4,0-0.4 M-0.1,0.1c0-0.1,0-0.1,0-0.1c0,0,0.1-0.1,0.1-0.1c0.1,0,0.1,0,0.1,0.1v0.2
		c0,0,0,0,0,0.1c0,0,0,0-0.1,0c0,0-0.1,0-0.1-0.1C-0.1,0.2-0.1,0.2-0.1,0.1L-0.1,0.1z"/>
</symbol>
<symbol  id="font_1_11" viewBox="-0.2 -0.4 0.4 0.8">
	<path d="M0,0.1C0,0.1,0,0.1,0,0.1C-0.1,0-0.1,0-0.1,0v-0.4h-0.1v0.8h0.1V0.1C-0.1,0.1,0,0.2,0,0.1c0.1,0.1,0.1,0.1,0.1,0
		c0,0,0-0.1,0-0.1v-0.3H0.1V0C0.1,0,0.1,0,0,0.1C0.1,0.1,0,0.1,0,0.1z"/>
</symbol>
<symbol  id="font_1_12" viewBox="-0.1 -0.4 0.1 0.7">
	<path d="M-0.1,0.3C-0.1,0.3,0,0.3-0.1,0.3C0,0.4,0,0.4-0.1,0.3C0,0.4,0,0.4-0.1,0.3c0.1,0,0.1,0,0.1,0C0.1,0.3,0,0.3-0.1,0.3
		C0,0.3,0,0.3-0.1,0.3C0,0.3,0,0.3-0.1,0.3C0,0.3-0.1,0.3-0.1,0.3 M0,0.2v-0.5H0L0,0.2L0,0.2z"/>
</symbol>
<symbol  id="font_1_13" viewBox="-0.2 -0.4 0.4 0.8">
	<path d="M0.1-0.4l-0.2,0.2l-0.1-0.1v-0.2h-0.1v0.8h0.1v-0.5l0,0.1l0.2,0.2h0.1L0-0.1l0.2-0.3H0.1z"/>
</symbol>
<symbol  id="font_1_14" viewBox="0 -0.4 0.1 0.8">
	<path d="M0,0.4v-0.8H0L0,0.4L0,0.4z"/>
</symbol>
<symbol  id="font_1_15" viewBox="-0.2 -0.3 0.4 0.5">
	<path d="M0,0.2C0,0.2,0,0.2,0,0.2c-0.1,0-0.1-0.1-0.1-0.1v-0.4h-0.1v0.5h0.1l0-0.1C-0.1,0.2,0,0.3,0,0.2c0.1,0.1,0.1,0.1,0.1,0
		c0,0,0-0.1,0-0.1v-0.3H0.1v0.3C0.1,0.1,0.1,0.1,0,0.2C0.1,0.2,0,0.2,0,0.2z"/>
</symbol>
<symbol  id="font_1_16" viewBox="-0.2 -0.3 0.5 0.5">
	<path d="M-0.2,0c0,0.1,0,0.1,0.1,0.2c0,0.1,0.1,0.1,0.2,0.1s0.1,0,0.2-0.1c0-0.1,0.1-0.1,0.1-0.2v0c0-0.1,0-0.1-0.1-0.2
		c0-0.1-0.1-0.1-0.2-0.1c-0.1,0-0.1,0-0.2,0.1C-0.2-0.1-0.2-0.1-0.2,0L-0.2,0 M-0.2,0c0-0.1,0-0.1,0-0.1c0,0,0.1-0.1,0.1-0.1
		c0,0,0.1,0,0.1,0.1c0,0,0,0.1,0,0.1v0c0,0.1,0,0.1,0,0.1c0,0-0.1,0.1-0.1,0.1c0,0-0.1,0-0.1-0.1C-0.1,0.1-0.2,0.1-0.2,0L-0.2,0z"/>
</symbol>
<symbol  id="font_1_17" viewBox="-0.2 -0.4 0.4 0.7">
	<path d="M0-0.2c-0.1,0-0.1,0-0.2,0.1v-0.3h-0.1v0.7h0.1l0-0.1c0,0,0.1,0.1,0.2,0.1c0.1,0,0.1,0,0.2-0.1s0.1-0.1,0.1-0.2v0
		c0-0.1,0-0.1-0.1-0.2C0.1-0.2,0.1-0.2,0-0.2 M0,0.3c-0.1,0-0.1,0-0.1-0.1V0c0,0,0.1-0.1,0.1-0.1c0,0,0.1,0,0.1,0.1c0,0,0,0.1,0,0.1
		v0c0,0.1,0,0.1,0,0.1C0.1,0.3,0,0.3,0,0.3z"/>
</symbol>
<symbol  id="font_1_18" viewBox="-0.1 -0.3 0.3 0.5">
	<path d="M0.1,0.2C0,0.2,0,0.2,0,0.1v-0.4h-0.1v0.5H0l0-0.1C0,0.2,0,0.3,0.1,0.2C0.1,0.3,0.1,0.3,0.1,0.2L0.1,0.2
		C0.1,0.2,0.1,0.2,0.1,0.2z"/>
</symbol>
<symbol  id="font_1_19" viewBox="-0.2 -0.3 0.4 0.5">
	<path d="M0.1-0.1C0.1-0.1,0.1-0.1,0.1-0.1C0.1-0.1,0.1,0,0,0C-0.1,0-0.1,0-0.1,0c0,0-0.1,0.1-0.1,0.1c0,0,0,0.1,0.1,0.1
		c0,0,0.1,0,0.1,0c0.1,0,0.1,0,0.1,0s0.1-0.1,0.1-0.1H0.1c0,0,0,0,0,0.1c0,0,0,0-0.1,0c0,0-0.1,0-0.1,0s0,0,0-0.1s0,0,0,0
		c0,0,0,0,0.1,0C0.1,0,0.1,0,0.2,0C0.2,0,0.2-0.1,0.1-0.1c0.1,0,0.1-0.1,0-0.1c0,0-0.1,0-0.1,0c-0.1,0-0.1,0-0.2,0.1
		s-0.1,0.1-0.1,0.1h0.1c0,0,0-0.1,0-0.1c0,0,0.1,0,0.1,0C0-0.2,0.1-0.2,0.1-0.1C0.1-0.2,0.1-0.1,0.1-0.1z"/>
</symbol>
<symbol  id="font_1_1a" viewBox="-0.1 -0.3 0.3 0.7">
	<path d="M0.1-0.3C0.1-0.3,0.1-0.3,0.1-0.3C0-0.3,0-0.3,0-0.3s0,0.1,0,0.1v0.3h-0.1v0.1H0v0.1H0V0.2h0.1V0.1H0v-0.3
		C0-0.2,0-0.2,0.1-0.3C0.1-0.3,0.1-0.3,0.1-0.3C0.1-0.3,0.1-0.3,0.1-0.3L0.1-0.3z"/>
</symbol>
<symbol  id="font_1_1b" viewBox="-0.2 -0.3 0.4 0.5">
	<path d="M0.1-0.3L0.1-0.3c0,0-0.1,0-0.2,0c-0.1,0-0.1,0-0.1,0s0,0.1,0,0.2v0.3h0.1v-0.3c0,0,0-0.1,0-0.1c0,0,0,0,0.1,0
		c0.1,0,0.1,0,0.1,0.1v0.4h0.1L0.1-0.3L0.1-0.3z"/>
</symbol>
<symbol  id="font_1_1c" viewBox="-0.2 -0.3 0.5 0.5">
	<path d="M0.2,0.3L0-0.3H0l-0.2,0.5h0.1L0-0.1L0.2,0.3L0.2,0.3z"/>
</symbol>
<symbol  id="font_1_1d" viewBox="-0.2 -0.4 0.5 0.7">
	<path d="M0-0.2c0-0.1-0.1-0.1-0.1-0.1l0,0c0,0,0,0-0.1,0l0,0.1l0,0c0,0,0.1,0,0.1,0C-0.1-0.3-0.1-0.2,0-0.2L0-0.2l-0.2,0.6h0.1L0,0
		l0.1,0.4h0.1L0-0.2z"/>
</symbol>
<symbol  id="font_1_1e" viewBox="-0.2 -0.3 0.4 0.5">
	<path d="M-0.2,0.2L-0.2,0.2l0.4,0.1V0.2l-0.3-0.4h0.3v-0.1h-0.4v0.1l0.3,0.4H-0.2z"/>
</symbol>
<symbol  id="font_1_2" viewBox="-0.1 -0.4 0.3 0.7">
	<path d="M0.1,0.4v-0.7H0v0.6l-0.2-0.1v0.1L0.1,0.4L0.1,0.4z"/>
</symbol>
<symbol  id="font_1_3" viewBox="-0.2 -0.4 0.5 0.7">
	<path d="M0.2-0.3L0.2-0.3l-0.5-0.1v0.1L0,0c0,0,0.1,0.1,0.1,0.1c0,0,0,0.1,0,0.1c0,0,0,0.1,0,0.1c0,0-0.1,0-0.1,0c0,0-0.1,0-0.1,0
		s0-0.1,0-0.1h-0.1c0,0.1,0,0.1,0.1,0.2S-0.1,0.4,0,0.4c0.1,0,0.1,0,0.2-0.1c0,0,0.1-0.1,0.1-0.1c0,0,0-0.1,0-0.1
		c0,0-0.1-0.1-0.1-0.1l-0.2-0.2H0.2z"/>
</symbol>
<symbol  id="font_1_4" viewBox="-0.3 -0.4 0.5 0.7">
	<path d="M-0.3-0.1l0.3,0.5h0.1v-0.5h0.1v-0.1H0.2v-0.2H0.1v0.2L-0.3-0.1L-0.3-0.1 M-0.2-0.1h0.2v0.3l0,0L-0.2-0.1z"/>
</symbol>
<symbol  id="font_1_5" viewBox="-0.2 -0.4 0.4 0.7">
	<path d="M0.2-0.1c0-0.1,0-0.1-0.1-0.2c0,0-0.1-0.1-0.2-0.1c-0.1,0-0.1,0-0.1,0c0,0-0.1,0.1-0.1,0.1c0,0,0,0.1,0,0.1v0
		c0,0.1,0,0.1,0,0.2c0,0.1,0.1,0.1,0.1,0.2c0,0,0.1,0.1,0.2,0.1h0V0.3c-0.1,0-0.1,0-0.1,0c0,0-0.1-0.1-0.1-0.1c0,0,0-0.1,0-0.1
		c0,0,0.1,0.1,0.2,0.1c0,0,0.1,0,0.1,0c0,0,0.1-0.1,0.1-0.1C0.2,0,0.2-0.1,0.2-0.1 M-0.1-0.1c0-0.1,0-0.1,0-0.1c0,0,0.1-0.1,0.1-0.1
		c0,0,0.1,0,0.1,0c0,0,0,0.1,0,0.1c0,0,0,0.1,0,0.1S0,0,0,0c0,0-0.1,0-0.1,0S-0.1,0-0.1-0.1L-0.1-0.1z"/>
</symbol>
<symbol  id="font_1_6" viewBox="-0.2 -0.4 0.5 0.7">
	<path d="M0.2-0.2c0-0.1,0-0.1-0.1-0.2c0,0-0.1-0.1-0.2-0.1h-0.2v0.7H0c0.1,0,0.1,0,0.2,0c0,0,0.1-0.1,0.1-0.1c0,0,0-0.1,0-0.1
		c0,0,0,0-0.1-0.1c0,0,0.1,0,0.1-0.1C0.2-0.1,0.2-0.1,0.2-0.2 M-0.1,0.3V0.1H0c0,0,0.1,0,0.1,0s0,0,0,0.1c0,0.1,0,0.1-0.1,0.1H-0.1
		 M0.1-0.2C0.1-0.1,0.1-0.1,0.1-0.2C0.1,0,0.1,0,0,0h-0.2v-0.3H0C0.1-0.3,0.1-0.3,0.1-0.2C0.1-0.2,0.1-0.2,0.1-0.2z"/>
</symbol>
<symbol  id="font_1_7" viewBox="-0.3 -0.4 0.5 0.7">
	<path d="M-0.3-0.4v0.7h0.2c0.1,0,0.2,0,0.2-0.1C0.2,0.2,0.3,0.1,0.3,0v0c0-0.1,0-0.2-0.1-0.2C0.1-0.3,0-0.4-0.1-0.4H-0.3 M-0.2,0.3
		v-0.6h0.1c0.1,0,0.1,0,0.2,0.1S0.2-0.1,0.2,0v0c0,0.1,0,0.1-0.1,0.2S0,0.3-0.1,0.3H-0.2z"/>
</symbol>
<symbol  id="font_1_8" viewBox="-0.2 -0.4 0.4 0.7">
	<path d="M-0.2-0.4v0.7h0.4V0.3h-0.3V0h0.3V0h-0.3L-0.2-0.4L-0.2-0.4z"/>
</symbol>
<symbol  id="font_1_9" viewBox="-0.3 -0.4 0.5 0.7">
	<path d="M0.2-0.4L-0.1,0l-0.1-0.1v-0.2h-0.1v0.7h0.1V0l0.3,0.4h0.1L0,0l0.3-0.4H0.2z"/>
</symbol>
<symbol  id="font_1_a" viewBox="-0.3 -0.4 0.5 0.7">
	<path d="M-0.2-0.1v-0.3h-0.1v0.7H0c0.1,0,0.1,0,0.2-0.1c0,0,0.1-0.1,0.1-0.2c0-0.1,0-0.1-0.1-0.2c0,0-0.1-0.1-0.2-0.1H-0.2
		 M-0.2,0.3V0H0c0.1,0,0.1,0,0.1,0s0,0.1,0,0.1c0,0,0,0.1,0,0.1s-0.1,0-0.1,0H-0.2z"/>
</symbol>
<symbol  id="font_1_b" viewBox="-0.2 -0.3 0.4 0.5">
	<path d="M0.1-0.3C0.1-0.3,0.1-0.2,0.1-0.3C0.1-0.2,0.1-0.2,0.1-0.3C0-0.3,0-0.3,0-0.3c-0.1,0-0.1,0-0.1,0s0,0.1,0,0.1
		c0,0.1,0,0.1,0.1,0.1c0,0,0.1,0,0.2,0h0.1v0c0,0,0,0.1,0,0.1c0,0,0,0-0.1,0c0,0-0.1,0-0.1,0c0,0,0,0,0-0.1h-0.1c0,0,0,0.1,0.1,0.1
		s0.1,0,0.2,0c0.1,0,0.1,0,0.1,0s0.1-0.1,0.1-0.1v-0.2C0.2-0.2,0.2-0.2,0.1-0.3L0.1-0.3L0.1-0.3 M0-0.2C0-0.2,0-0.2,0-0.2
		c0.1,0,0.1,0.1,0.1,0.1V0H0c-0.1,0-0.2,0-0.2-0.1C-0.1-0.1-0.1-0.2,0-0.2C-0.1-0.2-0.1-0.2,0-0.2z"/>
</symbol>
<symbol  id="font_1_c" viewBox="-0.2 -0.4 0.4 0.8">
	<path d="M0.2-0.1c0-0.1,0-0.1-0.1-0.2S0.1-0.4,0-0.4c-0.1,0-0.1,0-0.2,0.1l0-0.1h-0.1v0.8h0.1V0.1c0,0,0.1,0.1,0.2,0.1
		c0.1,0,0.1,0,0.2-0.1C0.2,0,0.2,0,0.2-0.1L0.2-0.1 M0,0.1C0,0.1-0.1,0.1,0,0.1C-0.1,0.1-0.1,0-0.1,0v-0.2c0,0,0,0,0-0.1s0,0,0.1,0
		c0,0,0.1,0,0.1,0.1c0,0,0,0.1,0,0.1v0c0,0.1,0,0.1,0,0.1C0.1,0.1,0,0.1,0,0.1z"/>
</symbol>
<symbol  id="font_1_d" viewBox="-0.2 -0.3 0.4 0.5">
	<path d="M0-0.2C0-0.2,0.1-0.2,0-0.2c0.1,0,0.1,0.1,0.1,0.1h0.1c0,0,0-0.1-0.1-0.1C0.1-0.3,0.1-0.3,0-0.2c-0.1-0.1-0.1,0-0.2,0
		c0,0.1-0.1,0.1-0.1,0.2v0c0,0.1,0,0.1,0.1,0.2c0,0.1,0.1,0.1,0.2,0.1c0.1,0,0.1,0,0.1-0.1c0,0,0.1-0.1,0.1-0.1H0.1c0,0,0,0.1,0,0.1
		c0,0-0.1,0-0.1,0c0,0-0.1,0-0.1,0c0,0,0,0,0-0.1c0,0,0-0.1,0-0.1v0c0,0,0-0.1,0-0.1S-0.1-0.2,0-0.2C-0.1-0.2,0-0.2,0-0.2z"/>
</symbol>
<symbol  id="font_1_e" viewBox="-0.2 -0.4 0.4 0.8">
	<path d="M0.1-0.4L0.1-0.4c0,0-0.1,0-0.2,0c-0.1,0-0.1,0-0.1,0.1s-0.1,0.1-0.1,0.2v0c0,0.1,0,0.1,0.1,0.2c0,0,0.1,0.1,0.2,0.1
		c0.1,0,0.1,0,0.1-0.1v0.3h0.1L0.1-0.4L0.1-0.4 M-0.1-0.1c0-0.1,0-0.1,0-0.1c0,0,0.1-0.1,0.1-0.1c0.1,0,0.1,0,0.1,0.1V0
		c0,0.1-0.1,0.1-0.1,0.1c0,0-0.1,0-0.1-0.1C-0.1,0-0.1,0-0.1-0.1L-0.1-0.1z"/>
</symbol>
<symbol  id="font_1_f" viewBox="-0.2 -0.3 0.4 0.5">
	<path d="M0.2-0.2C0.2-0.2,0.2-0.2,0.2-0.2C0.1-0.3,0.1-0.3,0-0.3c-0.1,0-0.1,0-0.2,0.1c0,0-0.1,0.1-0.1,0.2v0c0,0.1,0,0.1,0,0.1
		c0,0,0.1,0.1,0.1,0.1c0,0,0.1,0,0.1,0c0.1,0,0.1,0,0.2-0.1c0,0,0.1-0.1,0.1-0.2v0h-0.4c0,0,0-0.1,0-0.1c0,0,0.1-0.1,0.1-0.1
		c0,0,0.1,0,0.1,0S0.1-0.2,0.2-0.2L0.2-0.2 M0,0.2C0,0.2-0.1,0.2,0,0.2C-0.1,0.1-0.1,0.1-0.1,0h0.3v0C0.1,0.1,0.1,0.1,0,0.2
		C0.1,0.2,0.1,0.2,0,0.2z"/>
</symbol>
<path class="st0" d="M158.4,0v51.5"/>
<path class="st1" d="M158.4,51.5v48.8"/>
<path class="st0" d="M510.5,0v51.5"/>
<path class="st1" d="M510.5,51.5v48.8"/>
<path class="st0" d="M668.3,0v51.5"/>
<path class="st1" d="M668.3,51.5v48.8"/>
<path class="st0" d="M1214.8,0v51.5"/>
<path class="st1" d="M1214.8,51.5v48.8"/>
<path class="st0" d="M1631.7,0v51.5"/>
<path class="st1" d="M1631.7,51.5v48.8"/>
<path class="st0" d="M1983.8,0v51.5"/>
<path class="st1" d="M1983.8,51.5v48.8"/>
<path class="st1" d="M0,51.5h2530.7"/>
<path class="st0" d="M0.5,0v51.5"/>
<path class="st1" d="M0.5,51.5v48.8"/>
<path class="st0" d="M2530.2,0v51.5"/>
<path class="st1" d="M2530.2,51.5v48.8"/>
<path class="st0" d="M0,0.5h2530.7"/>
<path class="st1" d="M0,99.9h2530.7"/>
<use xlink:href="#font_1_4"  width="0.5" height="0.7" x="-0.3" y="-0.4" transform="matrix(16 0 0 -16 79.4506 27.717)" style="overflow:visible;"/>
<use xlink:href="#font_1_f"  width="0.4" height="0.5" x="-0.2" y="-0.3" transform="matrix(16 0 0 -16 222.673 29.1779)" style="overflow:visible;"/>
<use xlink:href="#font_1_15"  width="0.4" height="0.5" x="-0.2" y="-0.3" transform="matrix(16 0 0 -16 231.2855 29.0998)" style="overflow:visible;"/>
<use xlink:href="#font_1_d"  width="0.4" height="0.5" x="-0.2" y="-0.3" transform="matrix(16 0 0 -16 240.032 29.1779)" style="overflow:visible;"/>
<use xlink:href="#font_1_18"  width="0.3" height="0.5" x="-0.1" y="-0.3" transform="matrix(16 0 0 -16 247.2586 29.0998)" style="overflow:visible;"/>
<use xlink:href="#font_1_1d"  width="0.5" height="0.7" x="-0.2" y="-0.4" transform="matrix(16 0 0 -16 253.2667 30.885)" style="overflow:visible;"/>
<use xlink:href="#font_1_17"  width="0.4" height="0.7" x="-0.2" y="-0.4" transform="matrix(16 0 0 -16 261.7805 30.7248)" style="overflow:visible;"/>
<use xlink:href="#font_1_1a"  width="0.3" height="0.7" x="-0.1" y="-0.3" transform="matrix(16 0 0 -16 268.4827 28.2287)" style="overflow:visible;"/>
<use xlink:href="#font_1_12"  width="0.1" height="0.7" x="-0.1" y="-0.4" transform="matrix(16 0 0 -16 273.3237 27.6389)" style="overflow:visible;"/>
<use xlink:href="#font_1_16"  width="0.5" height="0.5" x="-0.2" y="-0.3" transform="matrix(16 0 0 -16 279.8005 29.1779)" style="overflow:visible;"/>
<use xlink:href="#font_1_15"  width="0.4" height="0.5" x="-0.2" y="-0.3" transform="matrix(16 0 0 -16 288.7831 29.0998)" style="overflow:visible;enable-background:new    ;"/>
<use xlink:href="#font_1_1"  transform="matrix(16 0 0 -16 293.2405 33.4045)" style="overflow:visible;"/>
<use xlink:href="#font_1_19"  width="0.4" height="0.5" x="-0.2" y="-0.3" transform="matrix(16 0 0 -16 301.3492 29.1779)" style="overflow:visible;"/>
<use xlink:href="#font_1_12"  width="0.1" height="0.7" x="-0.1" y="-0.4" transform="matrix(16 0 0 -16 307.4517 27.6389)" style="overflow:visible;enable-background:new    ;"/>
<use xlink:href="#font_1_e"  width="0.4" height="0.8" x="-0.2" y="-0.4" transform="matrix(16 0 0 -16 313.6746 27.4826)" style="overflow:visible;"/>
<use xlink:href="#font_1_f"  width="0.4" height="0.5" x="-0.2" y="-0.3" transform="matrix(16 0 0 -16 322.6698 29.1779)" style="overflow:visible;enable-background:new    ;"/>
<use xlink:href="#font_1_1"  transform="matrix(16 0 0 -16 326.8565 33.4045)" style="overflow:visible;enable-background:new    ;"/>
<use xlink:href="#font_1_17"  width="0.4" height="0.7" x="-0.2" y="-0.4" transform="matrix(16 0 0 -16 335.5276 30.7248)" style="overflow:visible;enable-background:new    ;"/>
<use xlink:href="#font_1_1b"  width="0.4" height="0.5" x="-0.2" y="-0.3" transform="matrix(16 0 0 -16 344.2533 29.2561)" style="overflow:visible;"/>
<use xlink:href="#font_1_c"  width="0.4" height="0.8" x="-0.2" y="-0.4" transform="matrix(16 0 0 -16 353.4138 27.4826)" style="overflow:visible;"/>
<use xlink:href="#font_1_14"  width="0.1" height="0.8" x="0" y="-0.4" transform="matrix(16 0 0 -16 359.6786 27.4045)" style="overflow:visible;"/>
<use xlink:href="#font_1_12"  width="0.1" height="0.7" x="-0.1" y="-0.4" transform="matrix(16 0 0 -16 363.5733 27.6389)" style="overflow:visible;enable-background:new    ;"/>
<use xlink:href="#font_1_d"  width="0.4" height="0.5" x="-0.2" y="-0.3" transform="matrix(16 0 0 -16 369.7727 29.1779)" style="overflow:visible;enable-background:new    ;"/>
<use xlink:href="#font_1_1"  transform="matrix(16 0 0 -16 373.8549 33.4045)" style="overflow:visible;enable-background:new    ;"/>
<use xlink:href="#font_1_13"  width="0.4" height="0.8" x="-0.2" y="-0.4" transform="matrix(16 0 0 -16 382.4596 27.4045)" style="overflow:visible;"/>
<use xlink:href="#font_1_f"  width="0.4" height="0.5" x="-0.2" y="-0.3" transform="matrix(16 0 0 -16 390.3018 29.1779)" style="overflow:visible;enable-background:new    ;"/>
<use xlink:href="#font_1_1d"  width="0.5" height="0.7" x="-0.2" y="-0.4" transform="matrix(16 0 0 -16 398.2619 30.885)" style="overflow:visible;enable-background:new    ;"/>
<use xlink:href="#font_1_1"  transform="matrix(16 0 0 -16 402.1077 33.4045)" style="overflow:visible;enable-background:new    ;"/>
<use xlink:href="#font_1_14"  width="0.1" height="0.8" x="0" y="-0.4" transform="matrix(16 0 0 -16 408.0562 27.4045)" style="overflow:visible;enable-background:new    ;"/>
<use xlink:href="#font_1_f"  width="0.4" height="0.5" x="-0.2" y="-0.3" transform="matrix(16 0 0 -16 414.2986 29.1779)" style="overflow:visible;enable-background:new    ;"/>
<use xlink:href="#font_1_15"  width="0.4" height="0.5" x="-0.2" y="-0.3" transform="matrix(16 0 0 -16 422.911 29.0998)" style="overflow:visible;enable-background:new    ;"/>
<use xlink:href="#font_1_10"  width="0.4" height="0.7" x="-0.2" y="-0.4" transform="matrix(16 0 0 -16 431.6927 30.7678)" style="overflow:visible;"/>
<use xlink:href="#font_1_1a"  width="0.3" height="0.7" x="-0.1" y="-0.3" transform="matrix(16 0 0 -16 438.7387 28.2287)" style="overflow:visible;enable-background:new    ;"/>
<use xlink:href="#font_1_11"  width="0.4" height="0.8" x="-0.2" y="-0.4" transform="matrix(16 0 0 -16 446.0406 27.4045)" style="overflow:visible;"/>
<use xlink:href="#font_1_4"  width="0.5" height="0.7" x="-0.3" y="-0.4" transform="matrix(16 0 0 -16 589.4423 27.717)" style="overflow:visible;enable-background:new    ;"/>
<use xlink:href="#font_1_a"  width="0.5" height="0.7" x="-0.3" y="-0.4" transform="matrix(16 0 0 -16 878.4699 27.717)" style="overflow:visible;"/>
<use xlink:href="#font_1_6"  width="0.5" height="0.7" x="-0.2" y="-0.4" transform="matrix(16 0 0 -16 888.3721 27.717)" style="overflow:visible;"/>
<use xlink:href="#font_1_9"  width="0.5" height="0.7" x="-0.3" y="-0.4" transform="matrix(16 0 0 -16 898.8571 27.717)" style="overflow:visible;"/>
<use xlink:href="#font_1_7"  width="0.5" height="0.7" x="-0.3" y="-0.4" transform="matrix(16 0 0 -16 908.6118 27.717)" style="overflow:visible;"/>
<use xlink:href="#font_1_8"  width="0.4" height="0.7" x="-0.2" y="-0.4" transform="matrix(16 0 0 -16 918.5108 27.717)" style="overflow:visible;"/>
<use xlink:href="#font_1_3"  width="0.5" height="0.7" x="-0.2" y="-0.4" transform="matrix(16 0 0 -16 927.1102 27.6389)" style="overflow:visible;"/>
<use xlink:href="#font_1_1"  transform="matrix(16 0 0 -16 931.5486 33.4045)" style="overflow:visible;enable-background:new    ;"/>
<use xlink:href="#font_1_19"  width="0.4" height="0.5" x="-0.2" y="-0.3" transform="matrix(16 0 0 -16 939.6509 29.1779)" style="overflow:visible;enable-background:new    ;"/>
<use xlink:href="#font_1_b"  width="0.4" height="0.5" x="-0.2" y="-0.3" transform="matrix(16 0 0 -16 948.1381 29.1779)" style="overflow:visible;"/>
<use xlink:href="#font_1_14"  width="0.1" height="0.8" x="0" y="-0.4" transform="matrix(16 0 0 -16 954.4924 27.4045)" style="overflow:visible;enable-background:new    ;"/>
<use xlink:href="#font_1_1a"  width="0.3" height="0.7" x="-0.1" y="-0.3" transform="matrix(16 0 0 -16 958.7908 28.2287)" style="overflow:visible;enable-background:new    ;"/>
<use xlink:href="#font_1_1"  transform="matrix(16 0 0 -16 961.6606 33.4045)" style="overflow:visible;enable-background:new    ;"/>
<use xlink:href="#font_1_14"  width="0.1" height="0.8" x="0" y="-0.4" transform="matrix(16 0 0 -16 967.6027 27.4045)" style="overflow:visible;enable-background:new    ;"/>
<use xlink:href="#font_1_f"  width="0.4" height="0.5" x="-0.2" y="-0.3" transform="matrix(16 0 0 -16 973.8387 29.1779)" style="overflow:visible;enable-background:new    ;"/>
<use xlink:href="#font_1_15"  width="0.4" height="0.5" x="-0.2" y="-0.3" transform="matrix(16 0 0 -16 982.4448 29.0998)" style="overflow:visible;enable-background:new    ;"/>
<use xlink:href="#font_1_10"  width="0.4" height="0.7" x="-0.2" y="-0.4" transform="matrix(16 0 0 -16 991.22 30.7678)" style="overflow:visible;enable-background:new    ;"/>
<use xlink:href="#font_1_1a"  width="0.3" height="0.7" x="-0.1" y="-0.3" transform="matrix(16 0 0 -16 998.2756 28.2287)" style="overflow:visible;enable-background:new    ;"/>
<use xlink:href="#font_1_11"  width="0.4" height="0.8" x="-0.2" y="-0.4" transform="matrix(16 0 0 -16 1005.5712 27.4045)" style="overflow:visible;enable-background:new    ;"/>
<use xlink:href="#font_1_2"  width="0.3" height="0.7" x="-0.1" y="-0.4" transform="matrix(16 0 0 -16 1417.73 27.6858)" style="overflow:visible;"/>
<use xlink:href="#font_1_3"  width="0.5" height="0.7" x="-0.2" y="-0.4" transform="matrix(16 0 0 -16 1427.7808 27.6389)" style="overflow:visible;enable-background:new    ;"/>
<use xlink:href="#font_1_1c"  width="0.5" height="0.5" x="-0.2" y="-0.3" transform="matrix(16 0 0 -16 1783.6537 29.1779)" style="overflow:visible;"/>
<use xlink:href="#font_1_b"  width="0.4" height="0.5" x="-0.2" y="-0.3" transform="matrix(16 0 0 -16 1791.8845 29.1779)" style="overflow:visible;enable-background:new    ;"/>
<use xlink:href="#font_1_18"  width="0.3" height="0.5" x="-0.1" y="-0.3" transform="matrix(16 0 0 -16 1799.4476 29.0998)" style="overflow:visible;enable-background:new    ;"/>
<use xlink:href="#font_1_12"  width="0.1" height="0.7" x="-0.1" y="-0.4" transform="matrix(16 0 0 -16 1803.6344 27.6389)" style="overflow:visible;enable-background:new    ;"/>
<use xlink:href="#font_1_b"  width="0.4" height="0.5" x="-0.2" y="-0.3" transform="matrix(16 0 0 -16 1809.8877 29.1779)" style="overflow:visible;enable-background:new    ;"/>
<use xlink:href="#font_1_c"  width="0.4" height="0.8" x="-0.2" y="-0.4" transform="matrix(16 0 0 -16 1818.9821 27.4826)" style="overflow:visible;enable-background:new    ;"/>
<use xlink:href="#font_1_14"  width="0.1" height="0.8" x="0" y="-0.4" transform="matrix(16 0 0 -16 1825.25 27.4045)" style="overflow:visible;enable-background:new    ;"/>
<use xlink:href="#font_1_f"  width="0.4" height="0.5" x="-0.2" y="-0.3" transform="matrix(16 0 0 -16 1831.4956 29.1779)" style="overflow:visible;enable-background:new    ;"/>
<use xlink:href="#font_1_2"  width="0.3" height="0.7" x="-0.1" y="-0.4" transform="matrix(16 0 0 -16 2251.5259 27.6858)" style="overflow:visible;enable-background:new    ;"/>
<use xlink:href="#font_1_5"  width="0.4" height="0.7" x="-0.2" y="-0.4" transform="matrix(16 0 0 -16 2261.6431 27.7873)" style="overflow:visible;"/>
<use xlink:href="#font_1_f"  width="0.4" height="0.5" x="-0.2" y="-0.3" transform="matrix(16 0 0 -16 29.4922 69.2579)" style="overflow:visible;enable-background:new    ;"/>
<use xlink:href="#font_1_15"  width="0.4" height="0.5" x="-0.2" y="-0.3" transform="matrix(16 0 0 -16 38.1047 69.1798)" style="overflow:visible;enable-background:new    ;"/>
<use xlink:href="#font_1_d"  width="0.4" height="0.5" x="-0.2" y="-0.3" transform="matrix(16 0 0 -16 46.8512 69.2579)" style="overflow:visible;enable-background:new    ;"/>
<use xlink:href="#font_1_18"  width="0.3" height="0.5" x="-0.1" y="-0.3" transform="matrix(16 0 0 -16 54.0778 69.1798)" style="overflow:visible;enable-background:new    ;"/>
<use xlink:href="#font_1_1d"  width="0.5" height="0.7" x="-0.2" y="-0.4" transform="matrix(16 0 0 -16 60.0859 70.9649)" style="overflow:visible;enable-background:new    ;"/>
<use xlink:href="#font_1_17"  width="0.4" height="0.7" x="-0.2" y="-0.4" transform="matrix(16 0 0 -16 68.5997 70.8048)" style="overflow:visible;enable-background:new    ;"/>
<use xlink:href="#font_1_1a"  width="0.3" height="0.7" x="-0.1" y="-0.3" transform="matrix(16 0 0 -16 75.3019 68.3087)" style="overflow:visible;enable-background:new    ;"/>
<use xlink:href="#font_1_12"  width="0.1" height="0.7" x="-0.1" y="-0.4" transform="matrix(16 0 0 -16 80.143 67.7188)" style="overflow:visible;enable-background:new    ;"/>
<use xlink:href="#font_1_16"  width="0.5" height="0.5" x="-0.2" y="-0.3" transform="matrix(16 0 0 -16 86.6197 69.2579)" style="overflow:visible;enable-background:new    ;"/>
<use xlink:href="#font_1_15"  width="0.4" height="0.5" x="-0.2" y="-0.3" transform="matrix(16 0 0 -16 95.6023 69.1798)" style="overflow:visible;enable-background:new    ;"/>
<use xlink:href="#font_1_1"  transform="matrix(16 0 0 -16 100.0597 73.4845)" style="overflow:visible;enable-background:new    ;"/>
<use xlink:href="#font_1_19"  width="0.4" height="0.5" x="-0.2" y="-0.3" transform="matrix(16 0 0 -16 108.1684 69.2579)" style="overflow:visible;enable-background:new    ;"/>
<use xlink:href="#font_1_12"  width="0.1" height="0.7" x="-0.1" y="-0.4" transform="matrix(16 0 0 -16 114.271 67.7188)" style="overflow:visible;enable-background:new    ;"/>
<use xlink:href="#font_1_e"  width="0.4" height="0.8" x="-0.2" y="-0.4" transform="matrix(16 0 0 -16 120.4938 67.5626)" style="overflow:visible;enable-background:new    ;"/>
<use xlink:href="#font_1_f"  width="0.4" height="0.5" x="-0.2" y="-0.3" transform="matrix(16 0 0 -16 129.489 69.2579)" style="overflow:visible;enable-background:new    ;"/>
<use xlink:href="#font_1_1"  transform="matrix(16 0 0 -16 133.6757 73.4845)" style="overflow:visible;enable-background:new    ;"/>
<use xlink:href="#font_1_17"  width="0.4" height="0.7" x="-0.2" y="-0.4" transform="matrix(16 0 0 -16 24.2827 89.7648)" style="overflow:visible;enable-background:new    ;"/>
<use xlink:href="#font_1_1b"  width="0.4" height="0.5" x="-0.2" y="-0.3" transform="matrix(16 0 0 -16 33.0132 88.2961)" style="overflow:visible;enable-background:new    ;"/>
<use xlink:href="#font_1_c"  width="0.4" height="0.8" x="-0.2" y="-0.4" transform="matrix(16 0 0 -16 42.1625 86.5226)" style="overflow:visible;enable-background:new    ;"/>
<use xlink:href="#font_1_14"  width="0.1" height="0.8" x="0" y="-0.4" transform="matrix(16 0 0 -16 48.432 86.4445)" style="overflow:visible;enable-background:new    ;"/>
<use xlink:href="#font_1_12"  width="0.1" height="0.7" x="-0.1" y="-0.4" transform="matrix(16 0 0 -16 52.3316 86.6789)" style="overflow:visible;enable-background:new    ;"/>
<use xlink:href="#font_1_d"  width="0.4" height="0.5" x="-0.2" y="-0.3" transform="matrix(16 0 0 -16 58.5358 88.2179)" style="overflow:visible;enable-background:new    ;"/>
<use xlink:href="#font_1_1"  transform="matrix(16 0 0 -16 62.6227 92.4445)" style="overflow:visible;enable-background:new    ;"/>
<use xlink:href="#font_1_13"  width="0.4" height="0.8" x="-0.2" y="-0.4" transform="matrix(16 0 0 -16 71.2323 86.4445)" style="overflow:visible;enable-background:new    ;"/>
<use xlink:href="#font_1_f"  width="0.4" height="0.5" x="-0.2" y="-0.3" transform="matrix(16 0 0 -16 79.0632 88.2179)" style="overflow:visible;enable-background:new    ;"/>
<use xlink:href="#font_1_1d"  width="0.5" height="0.7" x="-0.2" y="-0.4" transform="matrix(16 0 0 -16 87.0282 89.925)" style="overflow:visible;enable-background:new    ;"/>
<use xlink:href="#font_1_1"  transform="matrix(16 0 0 -16 90.8787 92.4445)" style="overflow:visible;enable-background:new    ;"/>
<use xlink:href="#font_1_14"  width="0.1" height="0.8" x="0" y="-0.4" transform="matrix(16 0 0 -16 96.832 86.4445)" style="overflow:visible;enable-background:new    ;"/>
<use xlink:href="#font_1_f"  width="0.4" height="0.5" x="-0.2" y="-0.3" transform="matrix(16 0 0 -16 103.0792 88.2179)" style="overflow:visible;enable-background:new    ;"/>
<use xlink:href="#font_1_15"  width="0.4" height="0.5" x="-0.2" y="-0.3" transform="matrix(16 0 0 -16 111.6965 88.1398)" style="overflow:visible;enable-background:new    ;"/>
<use xlink:href="#font_1_10"  width="0.4" height="0.7" x="-0.2" y="-0.4" transform="matrix(16 0 0 -16 120.4669 89.8078)" style="overflow:visible;enable-background:new    ;"/>
<use xlink:href="#font_1_1a"  width="0.3" height="0.7" x="-0.1" y="-0.3" transform="matrix(16 0 0 -16 127.5177 87.2687)" style="overflow:visible;enable-background:new    ;"/>
<use xlink:href="#font_1_11"  width="0.4" height="0.8" x="-0.2" y="-0.4" transform="matrix(16 0 0 -16 134.8245 86.4445)" style="overflow:visible;enable-background:new    ;"/>
<use xlink:href="#font_1_f"  width="0.4" height="0.5" x="-0.2" y="-0.3" transform="matrix(16 0 0 -16 246.8605 78.8579)" style="overflow:visible;enable-background:new    ;"/>
<use xlink:href="#font_1_15"  width="0.4" height="0.5" x="-0.2" y="-0.3" transform="matrix(16 0 0 -16 255.473 78.7798)" style="overflow:visible;enable-background:new    ;"/>
<use xlink:href="#font_1_d"  width="0.4" height="0.5" x="-0.2" y="-0.3" transform="matrix(16 0 0 -16 264.2195 78.8579)" style="overflow:visible;enable-background:new    ;"/>
<use xlink:href="#font_1_18"  width="0.3" height="0.5" x="-0.1" y="-0.3" transform="matrix(16 0 0 -16 271.4461 78.7798)" style="overflow:visible;enable-background:new    ;"/>
<use xlink:href="#font_1_1d"  width="0.5" height="0.7" x="-0.2" y="-0.4" transform="matrix(16 0 0 -16 277.4542 80.565)" style="overflow:visible;enable-background:new    ;"/>
<use xlink:href="#font_1_17"  width="0.4" height="0.7" x="-0.2" y="-0.4" transform="matrix(16 0 0 -16 285.968 80.4048)" style="overflow:visible;enable-background:new    ;"/>
<use xlink:href="#font_1_1a"  width="0.3" height="0.7" x="-0.1" y="-0.3" transform="matrix(16 0 0 -16 292.6702 77.9087)" style="overflow:visible;enable-background:new    ;"/>
<use xlink:href="#font_1_12"  width="0.1" height="0.7" x="-0.1" y="-0.4" transform="matrix(16 0 0 -16 297.5112 77.3189)" style="overflow:visible;enable-background:new    ;"/>
<use xlink:href="#font_1_16"  width="0.5" height="0.5" x="-0.2" y="-0.3" transform="matrix(16 0 0 -16 303.988 78.8579)" style="overflow:visible;enable-background:new    ;"/>
<use xlink:href="#font_1_15"  width="0.4" height="0.5" x="-0.2" y="-0.3" transform="matrix(16 0 0 -16 312.9706 78.7798)" style="overflow:visible;enable-background:new    ;"/>
<use xlink:href="#font_1_1"  transform="matrix(16 0 0 -16 317.428 83.0845)" style="overflow:visible;enable-background:new    ;"/>
<use xlink:href="#font_1_19"  width="0.4" height="0.5" x="-0.2" y="-0.3" transform="matrix(16 0 0 -16 325.5367 78.8579)" style="overflow:visible;enable-background:new    ;"/>
<use xlink:href="#font_1_12"  width="0.1" height="0.7" x="-0.1" y="-0.4" transform="matrix(16 0 0 -16 331.6393 77.3189)" style="overflow:visible;enable-background:new    ;"/>
<use xlink:href="#font_1_e"  width="0.4" height="0.8" x="-0.2" y="-0.4" transform="matrix(16 0 0 -16 337.8621 77.1626)" style="overflow:visible;enable-background:new    ;"/>
<use xlink:href="#font_1_f"  width="0.4" height="0.5" x="-0.2" y="-0.3" transform="matrix(16 0 0 -16 346.8573 78.8579)" style="overflow:visible;enable-background:new    ;"/>
<use xlink:href="#font_1_1"  transform="matrix(16 0 0 -16 351.044 83.0845)" style="overflow:visible;enable-background:new    ;"/>
<use xlink:href="#font_1_17"  width="0.4" height="0.7" x="-0.2" y="-0.4" transform="matrix(16 0 0 -16 359.7152 80.4048)" style="overflow:visible;enable-background:new    ;"/>
<use xlink:href="#font_1_1b"  width="0.4" height="0.5" x="-0.2" y="-0.3" transform="matrix(16 0 0 -16 368.4408 78.9361)" style="overflow:visible;enable-background:new    ;"/>
<use xlink:href="#font_1_c"  width="0.4" height="0.8" x="-0.2" y="-0.4" transform="matrix(16 0 0 -16 377.6014 77.1626)" style="overflow:visible;enable-background:new    ;"/>
<use xlink:href="#font_1_14"  width="0.1" height="0.8" x="0" y="-0.4" transform="matrix(16 0 0 -16 383.8661 77.0845)" style="overflow:visible;enable-background:new    ;"/>
<use xlink:href="#font_1_12"  width="0.1" height="0.7" x="-0.1" y="-0.4" transform="matrix(16 0 0 -16 387.7608 77.3189)" style="overflow:visible;enable-background:new    ;"/>
<use xlink:href="#font_1_d"  width="0.4" height="0.5" x="-0.2" y="-0.3" transform="matrix(16 0 0 -16 393.9602 78.8579)" style="overflow:visible;enable-background:new    ;"/>
<use xlink:href="#font_1_1"  transform="matrix(16 0 0 -16 398.0424 83.0845)" style="overflow:visible;enable-background:new    ;"/>
<use xlink:href="#font_1_13"  width="0.4" height="0.8" x="-0.2" y="-0.4" transform="matrix(16 0 0 -16 406.6471 77.0845)" style="overflow:visible;enable-background:new    ;"/>
<use xlink:href="#font_1_f"  width="0.4" height="0.5" x="-0.2" y="-0.3" transform="matrix(16 0 0 -16 414.4893 78.8579)" style="overflow:visible;enable-background:new    ;"/>
<use xlink:href="#font_1_1d"  width="0.5" height="0.7" x="-0.2" y="-0.4" transform="matrix(16 0 0 -16 422.4494 80.565)" style="overflow:visible;enable-background:new    ;"/>
<use xlink:href="#font_1_a"  width="0.5" height="0.7" x="-0.3" y="-0.4" transform="matrix(16 0 0 -16 526.333 77.397)" style="overflow:visible;enable-background:new    ;"/>
<use xlink:href="#font_1_6"  width="0.5" height="0.7" x="-0.2" y="-0.4" transform="matrix(16 0 0 -16 536.2352 77.397)" style="overflow:visible;enable-background:new    ;"/>
<use xlink:href="#font_1_9"  width="0.5" height="0.7" x="-0.3" y="-0.4" transform="matrix(16 0 0 -16 546.7202 77.397)" style="overflow:visible;enable-background:new    ;"/>
<use xlink:href="#font_1_7"  width="0.5" height="0.7" x="-0.3" y="-0.4" transform="matrix(16 0 0 -16 556.4749 77.397)" style="overflow:visible;enable-background:new    ;"/>
<use xlink:href="#font_1_8"  width="0.4" height="0.7" x="-0.2" y="-0.4" transform="matrix(16 0 0 -16 566.3739 77.397)" style="overflow:visible;enable-background:new    ;"/>
<use xlink:href="#font_1_3"  width="0.5" height="0.7" x="-0.2" y="-0.4" transform="matrix(16 0 0 -16 574.9733 77.3189)" style="overflow:visible;enable-background:new    ;"/>
<use xlink:href="#font_1_1"  transform="matrix(16 0 0 -16 579.4117 83.0845)" style="overflow:visible;enable-background:new    ;"/>
<use xlink:href="#font_1_19"  width="0.4" height="0.5" x="-0.2" y="-0.3" transform="matrix(16 0 0 -16 587.514 78.8579)" style="overflow:visible;enable-background:new    ;"/>
<use xlink:href="#font_1_b"  width="0.4" height="0.5" x="-0.2" y="-0.3" transform="matrix(16 0 0 -16 596.0012 78.8579)" style="overflow:visible;enable-background:new    ;"/>
<use xlink:href="#font_1_14"  width="0.1" height="0.8" x="0" y="-0.4" transform="matrix(16 0 0 -16 602.3555 77.0845)" style="overflow:visible;enable-background:new    ;"/>
<use xlink:href="#font_1_1a"  width="0.3" height="0.7" x="-0.1" y="-0.3" transform="matrix(16 0 0 -16 606.6539 77.9087)" style="overflow:visible;enable-background:new    ;"/>
<use xlink:href="#font_1_1"  transform="matrix(16 0 0 -16 609.5237 83.0845)" style="overflow:visible;enable-background:new    ;"/>
<use xlink:href="#font_1_14"  width="0.1" height="0.8" x="0" y="-0.4" transform="matrix(16 0 0 -16 615.4658 77.0845)" style="overflow:visible;enable-background:new    ;"/>
<use xlink:href="#font_1_f"  width="0.4" height="0.5" x="-0.2" y="-0.3" transform="matrix(16 0 0 -16 621.7018 78.8579)" style="overflow:visible;enable-background:new    ;"/>
<use xlink:href="#font_1_15"  width="0.4" height="0.5" x="-0.2" y="-0.3" transform="matrix(16 0 0 -16 630.3079 78.7798)" style="overflow:visible;enable-background:new    ;"/>
<use xlink:href="#font_1_10"  width="0.4" height="0.7" x="-0.2" y="-0.4" transform="matrix(16 0 0 -16 639.0831 80.4478)" style="overflow:visible;enable-background:new    ;"/>
<use xlink:href="#font_1_1a"  width="0.3" height="0.7" x="-0.1" y="-0.3" transform="matrix(16 0 0 -16 646.1387 77.9087)" style="overflow:visible;enable-background:new    ;"/>
<use xlink:href="#font_1_11"  width="0.4" height="0.8" x="-0.2" y="-0.4" transform="matrix(16 0 0 -16 653.4343 77.0845)" style="overflow:visible;enable-background:new    ;"/>
<use xlink:href="#font_1_a"  width="0.5" height="0.7" x="-0.3" y="-0.4" transform="matrix(16 0 0 -16 902.6574 77.397)" style="overflow:visible;enable-background:new    ;"/>
<use xlink:href="#font_1_6"  width="0.5" height="0.7" x="-0.2" y="-0.4" transform="matrix(16 0 0 -16 912.5596 77.397)" style="overflow:visible;enable-background:new    ;"/>
<use xlink:href="#font_1_9"  width="0.5" height="0.7" x="-0.3" y="-0.4" transform="matrix(16 0 0 -16 923.0446 77.397)" style="overflow:visible;enable-background:new    ;"/>
<use xlink:href="#font_1_7"  width="0.5" height="0.7" x="-0.3" y="-0.4" transform="matrix(16 0 0 -16 932.7993 77.397)" style="overflow:visible;enable-background:new    ;"/>
<use xlink:href="#font_1_8"  width="0.4" height="0.7" x="-0.2" y="-0.4" transform="matrix(16 0 0 -16 942.6983 77.397)" style="overflow:visible;enable-background:new    ;"/>
<use xlink:href="#font_1_3"  width="0.5" height="0.7" x="-0.2" y="-0.4" transform="matrix(16 0 0 -16 951.2977 77.3189)" style="overflow:visible;enable-background:new    ;"/>
<use xlink:href="#font_1_1"  transform="matrix(16 0 0 -16 955.7361 83.0845)" style="overflow:visible;enable-background:new    ;"/>
<use xlink:href="#font_1_19"  width="0.4" height="0.5" x="-0.2" y="-0.3" transform="matrix(16 0 0 -16 963.8384 78.8579)" style="overflow:visible;enable-background:new    ;"/>
<use xlink:href="#font_1_b"  width="0.4" height="0.5" x="-0.2" y="-0.3" transform="matrix(16 0 0 -16 972.3256 78.8579)" style="overflow:visible;enable-background:new    ;"/>
<use xlink:href="#font_1_14"  width="0.1" height="0.8" x="0" y="-0.4" transform="matrix(16 0 0 -16 978.6799 77.0845)" style="overflow:visible;enable-background:new    ;"/>
<use xlink:href="#font_1_1a"  width="0.3" height="0.7" x="-0.1" y="-0.3" transform="matrix(16 0 0 -16 982.9783 77.9087)" style="overflow:visible;enable-background:new    ;"/>
<use xlink:href="#font_1_12"  width="0.1" height="0.7" x="-0.1" y="-0.4" transform="matrix(16 0 0 -16 1357.9292 77.3189)" style="overflow:visible;enable-background:new    ;"/>
<use xlink:href="#font_1_15"  width="0.4" height="0.5" x="-0.2" y="-0.3" transform="matrix(16 0 0 -16 1364.2654 78.7798)" style="overflow:visible;enable-background:new    ;"/>
<use xlink:href="#font_1_12"  width="0.1" height="0.7" x="-0.1" y="-0.4" transform="matrix(16 0 0 -16 1370.6876 77.3189)" style="overflow:visible;enable-background:new    ;"/>
<use xlink:href="#font_1_1a"  width="0.3" height="0.7" x="-0.1" y="-0.3" transform="matrix(16 0 0 -16 1374.9729 77.9087)" style="overflow:visible;enable-background:new    ;"/>
<use xlink:href="#font_1_12"  width="0.1" height="0.7" x="-0.1" y="-0.4" transform="matrix(16 0 0 -16 1379.814 77.3189)" style="overflow:visible;enable-background:new    ;"/>
<use xlink:href="#font_1_b"  width="0.4" height="0.5" x="-0.2" y="-0.3" transform="matrix(16 0 0 -16 1386.0642 78.8579)" style="overflow:visible;enable-background:new    ;"/>
<use xlink:href="#font_1_14"  width="0.1" height="0.8" x="0" y="-0.4" transform="matrix(16 0 0 -16 1392.4248 77.0845)" style="overflow:visible;enable-background:new    ;"/>
<use xlink:href="#font_1_12"  width="0.1" height="0.7" x="-0.1" y="-0.4" transform="matrix(16 0 0 -16 1396.3196 77.3189)" style="overflow:visible;enable-background:new    ;"/>
<use xlink:href="#font_1_1e"  width="0.4" height="0.5" x="-0.2" y="-0.3" transform="matrix(16 0 0 -16 1402.2769 78.8579)" style="overflow:visible;"/>
<use xlink:href="#font_1_b"  width="0.4" height="0.5" x="-0.2" y="-0.3" transform="matrix(16 0 0 -16 1410.573 78.8579)" style="overflow:visible;enable-background:new    ;"/>
<use xlink:href="#font_1_1a"  width="0.3" height="0.7" x="-0.1" y="-0.3" transform="matrix(16 0 0 -16 1417.3633 77.9087)" style="overflow:visible;enable-background:new    ;"/>
<use xlink:href="#font_1_12"  width="0.1" height="0.7" x="-0.1" y="-0.4" transform="matrix(16 0 0 -16 1422.2043 77.3189)" style="overflow:visible;enable-background:new    ;"/>
<use xlink:href="#font_1_16"  width="0.5" height="0.5" x="-0.2" y="-0.3" transform="matrix(16 0 0 -16 1428.6812 78.8579)" style="overflow:visible;enable-background:new    ;"/>
<use xlink:href="#font_1_15"  width="0.4" height="0.5" x="-0.2" y="-0.3" transform="matrix(16 0 0 -16 1437.6637 78.7798)" style="overflow:visible;enable-background:new    ;"/>
<use xlink:href="#font_1_1"  transform="matrix(16 0 0 -16 1442.1211 83.0845)" style="overflow:visible;enable-background:new    ;"/>
<use xlink:href="#font_1_1c"  width="0.5" height="0.5" x="-0.2" y="-0.3" transform="matrix(16 0 0 -16 1449.9838 78.8579)" style="overflow:visible;enable-background:new    ;"/>
<use xlink:href="#font_1_f"  width="0.4" height="0.5" x="-0.2" y="-0.3" transform="matrix(16 0 0 -16 1458.1841 78.8579)" style="overflow:visible;enable-background:new    ;"/>
<use xlink:href="#font_1_d"  width="0.4" height="0.5" x="-0.2" y="-0.3" transform="matrix(16 0 0 -16 1466.6598 78.8579)" style="overflow:visible;enable-background:new    ;"/>
<use xlink:href="#font_1_1a"  width="0.3" height="0.7" x="-0.1" y="-0.3" transform="matrix(16 0 0 -16 1473.1169 77.9087)" style="overflow:visible;enable-background:new    ;"/>
<use xlink:href="#font_1_16"  width="0.5" height="0.5" x="-0.2" y="-0.3" transform="matrix(16 0 0 -16 1480.5596 78.8579)" style="overflow:visible;enable-background:new    ;"/>
<use xlink:href="#font_1_18"  width="0.3" height="0.5" x="-0.1" y="-0.3" transform="matrix(16 0 0 -16 1488.2609 78.7798)" style="overflow:visible;enable-background:new    ;"/>
<use xlink:href="#font_1_f"  width="0.4" height="0.5" x="-0.2" y="-0.3" transform="matrix(16 0 0 -16 1753.0438 78.8579)" style="overflow:visible;enable-background:new    ;"/>
<use xlink:href="#font_1_15"  width="0.4" height="0.5" x="-0.2" y="-0.3" transform="matrix(16 0 0 -16 1761.6562 78.7798)" style="overflow:visible;enable-background:new    ;"/>
<use xlink:href="#font_1_d"  width="0.4" height="0.5" x="-0.2" y="-0.3" transform="matrix(16 0 0 -16 1770.4028 78.8579)" style="overflow:visible;enable-background:new    ;"/>
<use xlink:href="#font_1_18"  width="0.3" height="0.5" x="-0.1" y="-0.3" transform="matrix(16 0 0 -16 1777.6294 78.7798)" style="overflow:visible;enable-background:new    ;"/>
<use xlink:href="#font_1_1d"  width="0.5" height="0.7" x="-0.2" y="-0.4" transform="matrix(16 0 0 -16 1783.6376 80.565)" style="overflow:visible;enable-background:new    ;"/>
<use xlink:href="#font_1_17"  width="0.4" height="0.7" x="-0.2" y="-0.4" transform="matrix(16 0 0 -16 1792.1512 80.4048)" style="overflow:visible;enable-background:new    ;"/>
<use xlink:href="#font_1_1a"  width="0.3" height="0.7" x="-0.1" y="-0.3" transform="matrix(16 0 0 -16 1798.8535 77.9087)" style="overflow:visible;enable-background:new    ;"/>
<use xlink:href="#font_1_f"  width="0.4" height="0.5" x="-0.2" y="-0.3" transform="matrix(16 0 0 -16 1806.0422 78.8579)" style="overflow:visible;enable-background:new    ;"/>
<use xlink:href="#font_1_e"  width="0.4" height="0.8" x="-0.2" y="-0.4" transform="matrix(16 0 0 -16 1814.5414 77.1626)" style="overflow:visible;enable-background:new    ;"/>
<use xlink:href="#font_1_1"  transform="matrix(16 0 0 -16 1819.2241 83.0845)" style="overflow:visible;enable-background:new    ;"/>
<use xlink:href="#font_1_c"  width="0.4" height="0.8" x="-0.2" y="-0.4" transform="matrix(16 0 0 -16 1827.9031 77.1626)" style="overflow:visible;enable-background:new    ;"/>
<use xlink:href="#font_1_12"  width="0.1" height="0.7" x="-0.1" y="-0.4" transform="matrix(16 0 0 -16 1834.1874 77.3189)" style="overflow:visible;enable-background:new    ;"/>
<use xlink:href="#font_1_15"  width="0.4" height="0.5" x="-0.2" y="-0.3" transform="matrix(16 0 0 -16 1840.5234 78.7798)" style="overflow:visible;enable-background:new    ;"/>
<use xlink:href="#font_1_b"  width="0.4" height="0.5" x="-0.2" y="-0.3" transform="matrix(16 0 0 -16 1849.3208 78.8579)" style="overflow:visible;enable-background:new    ;"/>
<use xlink:href="#font_1_18"  width="0.3" height="0.5" x="-0.1" y="-0.3" transform="matrix(16 0 0 -16 1856.8806 78.7798)" style="overflow:visible;enable-background:new    ;"/>
<use xlink:href="#font_1_1d"  width="0.5" height="0.7" x="-0.2" y="-0.4" transform="matrix(16 0 0 -16 1862.8888 80.565)" style="overflow:visible;enable-background:new    ;"/>
<use xlink:href="#font_1_b"  width="0.4" height="0.5" x="-0.2" y="-0.3" transform="matrix(16 0 0 -16 2196.6001 78.8579)" style="overflow:visible;enable-background:new    ;"/>
<use xlink:href="#font_1_1b"  width="0.4" height="0.5" x="-0.2" y="-0.3" transform="matrix(16 0 0 -16 2205.4092 78.9361)" style="overflow:visible;enable-background:new    ;"/>
<use xlink:href="#font_1_1a"  width="0.3" height="0.7" x="-0.1" y="-0.3" transform="matrix(16 0 0 -16 2212.2642 77.9087)" style="overflow:visible;enable-background:new    ;"/>
<use xlink:href="#font_1_11"  width="0.4" height="0.8" x="-0.2" y="-0.4" transform="matrix(16 0 0 -16 2219.5613 77.0845)" style="overflow:visible;enable-background:new    ;"/>
<use xlink:href="#font_1_f"  width="0.4" height="0.5" x="-0.2" y="-0.3" transform="matrix(16 0 0 -16 2228.3264 78.8579)" style="overflow:visible;enable-background:new    ;"/>
<use xlink:href="#font_1_15"  width="0.4" height="0.5" x="-0.2" y="-0.3" transform="matrix(16 0 0 -16 2236.9341 78.7798)" style="overflow:visible;enable-background:new    ;"/>
<use xlink:href="#font_1_1a"  width="0.3" height="0.7" x="-0.1" y="-0.3" transform="matrix(16 0 0 -16 2243.7617 77.9087)" style="overflow:visible;enable-background:new    ;"/>
<use xlink:href="#font_1_12"  width="0.1" height="0.7" x="-0.1" y="-0.4" transform="matrix(16 0 0 -16 2248.5979 77.3189)" style="overflow:visible;enable-background:new    ;"/>
<use xlink:href="#font_1_d"  width="0.4" height="0.5" x="-0.2" y="-0.3" transform="matrix(16 0 0 -16 2254.7925 78.8579)" style="overflow:visible;enable-background:new    ;"/>
<use xlink:href="#font_1_b"  width="0.4" height="0.5" x="-0.2" y="-0.3" transform="matrix(16 0 0 -16 2263.2097 78.8579)" style="overflow:visible;enable-background:new    ;"/>
<use xlink:href="#font_1_1a"  width="0.3" height="0.7" x="-0.1" y="-0.3" transform="matrix(16 0 0 -16 2269.9951 77.9087)" style="overflow:visible;enable-background:new    ;"/>
<use xlink:href="#font_1_12"  width="0.1" height="0.7" x="-0.1" y="-0.4" transform="matrix(16 0 0 -16 2274.8315 77.3189)" style="overflow:visible;enable-background:new    ;"/>
<use xlink:href="#font_1_16"  width="0.5" height="0.5" x="-0.2" y="-0.3" transform="matrix(16 0 0 -16 2281.3035 78.8579)" style="overflow:visible;enable-background:new    ;"/>
<use xlink:href="#font_1_15"  width="0.4" height="0.5" x="-0.2" y="-0.3" transform="matrix(16 0 0 -16 2290.2812 78.7798)" style="overflow:visible;enable-background:new    ;"/>
<use xlink:href="#font_1_1"  transform="matrix(16 0 0 -16 2294.7339 83.0845)" style="overflow:visible;enable-background:new    ;"/>
<use xlink:href="#font_1_1a"  width="0.3" height="0.7" x="-0.1" y="-0.3" transform="matrix(16 0 0 -16 2301.1072 77.9087)" style="overflow:visible;enable-background:new    ;"/>
<use xlink:href="#font_1_b"  width="0.4" height="0.5" x="-0.2" y="-0.3" transform="matrix(16 0 0 -16 2308.3184 78.8579)" style="overflow:visible;enable-background:new    ;"/>
<use xlink:href="#font_1_10"  width="0.4" height="0.7" x="-0.2" y="-0.4" transform="matrix(16 0 0 -16 2317.0532 80.4478)" style="overflow:visible;enable-background:new    ;"/>
</svg>
